<?xml version="1.0" encoding="utf-8"?>
<!-- Generator: Adobe Illustrator 27.3.1, SVG Export Plug-In . SVG Version: 6.00 Build 0)  -->
<svg version="1.1" id="Layer_1" xmlns="http://www.w3.org/2000/svg" xmlns:xlink="http://www.w3.org/1999/xlink" x="0px" y="0px"
	 width="1600px" height="900px" viewBox="0 0 1600 900" style="enable-background:new 0 0 1600 900;" xml:space="preserve">
<style type="text/css">
	.st0{opacity:0.2;}
	.st1{fill:#333333;}
	.st2{fill:#FDD9A6;}
	.st3{fill:#274C66;}
	.st4{fill:#29ABE2;}
	.st5{fill:#4D4D4D;}
	.st6{fill:#1A1A1A;}
	.st7{fill:#2F3137;}
	.st8{fill:#57585C;}
	.st9{fill:#918E8B;}
	.st10{fill:#58B4E5;}
	.st11{fill:#FFFFFF;}
	.st12{fill:#8FC640;}
	.st13{fill:#E8EBEB;}
	.st14{fill:#282A2F;}
	.st15{enable-background:new    ;}
	.st16{fill:#3B3E44;}
	.st17{fill:#7AC943;}
	.st18{fill:#F1F2F5;}
	.st19{fill:#50555B;}
	.st20{fill:#9E38A0;}
	.st21{fill:#E96AF0;}
	.st22{fill:#44BBCC;}
	.st23{fill:#7DD72C;}
	.st24{fill:#B1BFC4;}
	.st25{fill:#2FA9E9;}
	.st26{fill:#2B2B2B;}
	.st27{fill:#B2B2B2;}
	.st28{fill:none;stroke:#2FA9E9;stroke-miterlimit:10;}
	.st29{fill:none;stroke:#7DD72C;stroke-miterlimit:10;}
	.st30{fill:none;stroke:#E96AF0;stroke-miterlimit:10;}
	.st31{fill:#E2E2E2;}
	.st32{fill:#CCCCCC;}
	.st33{fill:#F2F2F2;}
	.st34{fill:#EFD567;}
	.st35{fill:#666666;}
	.st36{fill:#B3B3B3;}
	.st37{fill:#808080;}
	.st38{fill:#0A2538;}
	.st39{fill:none;stroke:#D6D6D6;stroke-width:0.5;stroke-miterlimit:10;}
	.st40{fill:#78848C;}
	.st41{fill:#E6E6E6;}
	.st42{fill:#F7931E;}
	.st43{fill:#FFFFFF;stroke:#8CC63F;stroke-width:2;stroke-miterlimit:10;}
	.st44{fill:#8CC63F;}
	.st45{fill:#9E005D;}
</style>
<ellipse class="st0" cx="604.5" cy="676" rx="29.4" ry="5.8"/>
<ellipse class="st0" cx="980.2" cy="676" rx="29.4" ry="5.8"/>
<path class="st1" d="M774,711.1h-31.8c-1.6,0-2.9-1.3-2.9-2.9v-13.6c0-1.6,1.3-2.9,2.9-2.9H774c1.6,0,2.9,1.3,2.9,2.9v13.6
	C776.9,709.8,775.6,711.1,774,711.1z"/>
<ellipse class="st0" cx="790.5" cy="729.6" rx="118.4" ry="11.6"/>
<rect x="818.7" y="668.1" class="st2" width="16.1" height="35"/>
<rect x="813.3" y="576.4" class="st3" width="32.2" height="97"/>
<path class="st1" d="M842.6,712.4h-31.8c-1.6,0-2.9-1.3-2.9-2.9v-13.6c0-1.6,1.3-2.9,2.9-2.9h31.8c1.6,0,2.9,1.3,2.9,2.9v13.6
	C845.5,711.1,844.2,712.4,842.6,712.4z"/>
<rect x="750.2" y="661.2" class="st2" width="16.1" height="35"/>
<rect x="744.8" y="575.1" class="st3" width="32.2" height="97"/>
<path class="st3" d="M851.1,576.6H737.6c-4.1,0-7.3-3.3-7.3-7.3v-19.1c0-4.1,3.3-7.3,7.3-7.3h113.6c4.1,0,7.3,3.3,7.3,7.3v19.1
	C858.4,573.4,855.1,576.6,851.1,576.6z"/>
<path class="st4" d="M852.9,545.7H734.5c-1.6,0-2.9-1.3-2.9-2.9v-36.8c0-1.6,1.3-2.9,2.9-2.9h118.4c1.6,0,2.9,1.3,2.9,2.9v36.8
	C855.8,544.4,854.5,545.7,852.9,545.7z"/>
<path class="st5" d="M631.2,325.1H389.1c-1.7,0-3.2-1.5-3.2-3.2V142.4c0-1.7,1.5-3.2,3.2-3.2h242.1c1.7,0,3.2,1.5,3.2,3.2v179.4
	C634.4,323.6,633,325.1,631.2,325.1z"/>
<path class="st6" d="M626.3,318.7H394.1c-0.9,0-1.6-0.7-1.6-1.6V147.4c0-0.9,0.7-1.6,1.6-1.6h232.4c0.9,0,1.6,0.7,1.6,1.6v169.7
	C628,317.9,627.3,318.7,626.3,318.7z"/>
<g>
	<g>
		<path class="st7" d="M628,153v-7.5c0-0.3-0.3-0.6-0.6-0.6H391.3c-0.3,0-0.6,0.3-0.6,0.6v7.5H628z"/>
	</g>
	<g>
		<polyline class="st8" points="395.9,149.1 396.8,147.2 395.9,146.6 393.8,147.9 		"/>
		<polyline class="st9" points="395.9,149.2 395.9,146.6 398.1,147.9 		"/>
		<path class="st10" d="M397.8,149.1c0,1-0.9,1.9-1.9,1.9s-1.9-0.9-1.9-1.9c0-1,0.9-1.9,1.9-1.9C397,147.2,397.8,148.1,397.8,149.1z
			"/>
		<path class="st11" d="M397.3,149.1c0,0.7-0.6,1.3-1.3,1.3s-1.3-0.6-1.3-1.3c0-0.7,0.6-1.3,1.3-1.3
			C396.7,147.8,397.3,148.4,397.3,149.1z"/>
		<ellipse class="st12" cx="395.9" cy="149.1" rx="0.7" ry="0.7"/>
		<polygon class="st11" points="395.9,149.1 397.1,149.8 395.9,151.7 393.8,150.5 393.8,147.9 		"/>
		<polygon class="st13" points="395.9,149.1 395.9,151.7 398.1,150.5 398.1,147.9 		"/>
	</g>
	<path class="st14" d="M432.9,151.7H402c-0.3,0-0.6-0.3-0.6-0.6v-4.4c0-0.3,0.3-0.6,0.6-0.6h30.9c0.3,0,0.6,0.3,0.6,0.6v4.4
		C433.5,151.4,433.2,151.7,432.9,151.7z"/>
	<g class="st15">
		<path class="st11" d="M403.8,150v-1.9h0.3v0.9l0.9-0.9h0.3l-0.7,0.7l0.9,1.2h-0.3l-0.7-0.9l-0.3,0.3v0.6
			C404.1,150,403.8,150,403.8,150z"/>
		<path class="st11" d="M405.5,150v-1.9h0.7c0.1,0,0.1,0,0.3,0s0.1,0,0.3,0.1l0.1,0.1c0,0.1,0,0.1,0,0.3c0,0.1,0,0.3-0.1,0.4
			c-0.1,0.1-0.3,0.1-0.6,0.1h-0.4v0.7C405.8,150,405.5,150,405.5,150z M405.7,149h0.4c0.1,0,0.3,0,0.3-0.1c0.1,0,0.1-0.1,0.1-0.3
			s0-0.1,0-0.1l-0.1-0.1c0,0-0.1,0-0.3,0h-0.4V149z"/>
		<path class="st11" d="M407.3,150v-1.9h0.3v1.9H407.3z"/>
		<path class="st11" d="M408.6,150v-1.9h0.6c0.1,0,0.3,0,0.3,0c0.1,0,0.1,0.1,0.3,0.1c0.1,0.1,0.1,0.1,0.1,0.3s0.1,0.3,0.1,0.4
			s0,0.3,0,0.4s-0.1,0.1-0.1,0.3c0,0.1-0.1,0.1-0.1,0.1l-0.1,0.1c0,0-0.1,0-0.3,0C409.3,150,408.6,150,408.6,150z M408.9,149.7h0.4
			c0.1,0,0.1,0,0.3,0c0.1,0,0.1,0,0.1-0.1c0,0,0.1-0.1,0.1-0.3c0-0.1,0-0.1,0-0.3s0-0.3-0.1-0.4c0-0.1-0.1-0.1-0.3-0.1
			c0,0-0.1,0-0.3,0h-0.4L408.9,149.7L408.9,149.7z"/>
		<path class="st11" d="M411.3,149.8c-0.1,0.1-0.1,0.1-0.3,0.1s-0.1,0-0.3,0c-0.1,0-0.3,0-0.3-0.1c-0.1-0.1-0.1-0.1-0.1-0.3v-0.1
			l0.1-0.1c0,0,0.1,0,0.1-0.1h0.1c0.1,0,0.3,0,0.4-0.1l0,0c0-0.1,0-0.1,0-0.1s-0.1-0.1-0.3-0.1c-0.1,0-0.1,0-0.3,0l-0.1,0.1h-0.1
			c0-0.1,0-0.1,0.1-0.3l0.1-0.1c0,0,0.1,0,0.3,0c0.1,0,0.1,0,0.3,0s0.1,0,0.1,0.1c0,0,0,0.1,0.1,0.1v0.1v0.6c0,0.1,0,0.3,0,0.4v0.1
			h-0.3C411.3,149.8,411.3,149.8,411.3,149.8z M411.3,149.2c-0.1,0-0.1,0-0.4,0.1c-0.1,0-0.1,0-0.1,0s-0.1,0-0.1,0.1v0.1
			c0,0,0,0.1,0.1,0.1s0.1,0,0.1,0c0.1,0,0.1,0,0.3,0s0.1-0.1,0.1-0.1C411.3,149.5,411.3,149.4,411.3,149.2L411.3,149.2L411.3,149.2z
			"/>
		<path class="st11" d="M411.8,149.5h0.1c0,0.1,0,0.1,0.1,0.1c0.1,0,0.1,0.1,0.3,0.1s0.1,0,0.3,0l0.1-0.1c0,0,0-0.1-0.1-0.1
			c0,0-0.1,0-0.3-0.1c-0.1,0-0.3-0.1-0.3-0.1l-0.1-0.1V149v-0.1c0,0,0-0.1,0.1-0.1c0,0,0.1,0,0.1-0.1c0-0.1,0.1,0,0.1,0
			c0.1,0,0.1,0,0.3,0c0.1,0,0.1,0.1,0.1,0.1s0,0.1,0.1,0.1h-0.1c0-0.1,0-0.1-0.1-0.1s-0.1,0-0.1,0c-0.1,0-0.1,0-0.1,0l-0.1,0.1
			c0,0,0,0,0,0.1s0,0,0.1,0h0.1c0.1,0,0.3,0.1,0.3,0.1l0.1,0.1v0.1c0,0,0,0.1-0.1,0.1c0,0.1-0.1,0.1-0.1,0.1c-0.1,0-0.1,0-0.3,0
			c-0.1,0-0.3,0-0.4-0.1C411.9,149.8,411.8,149.7,411.8,149.5z"/>
		<path class="st11" d="M413.2,150v-1.9h0.3v0.7c0.1-0.1,0.3-0.1,0.4-0.1s0.1,0,0.3,0c0.1,0,0.1,0.1,0.1,0.1c0,0.1,0,0.1,0,0.3v0.9
			h-0.3v-0.9c0-0.1,0-0.1-0.1-0.3c-0.1-0.1-0.1-0.1-0.1-0.1c-0.1,0-0.1,0-0.1,0l-0.1,0.1c0,0,0,0.1,0,0.3v0.7L413.2,150L413.2,150z"
			/>
		<path class="st11" d="M414.8,150h-0.1v-1.9h0.3v0.7c0.1-0.1,0.1-0.1,0.4-0.1c0.1,0,0.1,0,0.3,0c0.1,0,0.1,0.1,0.1,0.1l0.1,0.1
			c0,0.1,0,0.1,0,0.3c0,0.3,0,0.4-0.1,0.6c-0.1,0.1-0.3,0.1-0.4,0.1c-0.1,0-0.3,0-0.4-0.1L414.8,150L414.8,150z M414.8,149.2
			c0,0.1,0,0.3,0,0.3c0.1,0.1,0.1,0.1,0.3,0.1c0.1,0,0.1,0,0.3-0.1c0.1-0.1,0.1-0.1,0.1-0.4c0-0.1,0-0.3-0.1-0.4
			c-0.1-0.1-0.1-0.1-0.3-0.1c-0.1,0-0.1,0-0.3,0.1C414.8,149,414.8,149.1,414.8,149.2z"/>
		<path class="st11" d="M416,149.2c0-0.3,0.1-0.4,0.1-0.6c0.1-0.1,0.3-0.1,0.4-0.1s0.3,0,0.4,0.1c0.1,0.1,0.1,0.3,0.1,0.6
			c0,0.1,0,0.3-0.1,0.4c0,0.1-0.1,0.1-0.3,0.3c-0.1,0.1-0.1,0.1-0.3,0.1s-0.3,0-0.4-0.1C416,149.7,416,149.5,416,149.2z
			 M416.3,149.2c0,0.1,0,0.3,0.1,0.4c0.1,0.1,0.1,0.1,0.3,0.1c0.1,0,0.1,0,0.3-0.1c0.1-0.1,0.1-0.1,0.1-0.4c0-0.1,0-0.3-0.1-0.4
			c-0.1-0.1-0.1-0.1-0.3-0.1c-0.1,0-0.1,0-0.3,0.1C416.3,149,416.3,149.1,416.3,149.2z"/>
		<path class="st11" d="M418.3,149.8c-0.1,0.1-0.1,0.1-0.3,0.1c-0.1,0-0.1,0-0.3,0c-0.1,0-0.3,0-0.3-0.1c-0.1-0.1-0.1-0.1-0.1-0.3
			v-0.1l0.1-0.1c0,0,0.1,0,0.1-0.1h0.1c0.1,0,0.3,0,0.4-0.1l0,0c0-0.1,0-0.1,0-0.1s-0.1-0.1-0.3-0.1s-0.1,0-0.3,0l-0.1,0.1h-0.1
			c0-0.1,0-0.1,0.1-0.3l0.1-0.1c0.1,0,0.1,0,0.3,0c0.1,0,0.1,0,0.3,0s0.1,0,0.1,0.1c0,0,0,0.1,0.1,0.1v0.1v0.6c0,0.1,0,0.3,0,0.4
			v0.1h-0.3C418.3,149.8,418.3,149.8,418.3,149.8z M418.3,149.2c-0.1,0-0.1,0-0.4,0.1c-0.1,0-0.1,0-0.1,0s-0.1,0-0.1,0.1v0.1
			c0,0,0,0.1,0.1,0.1c0.1,0,0.1,0,0.1,0c0.1,0,0.1,0,0.3,0c0.1,0,0.1-0.1,0.1-0.1C418.4,149.5,418.4,149.4,418.3,149.2L418.3,149.2
			L418.3,149.2z"/>
		<path class="st11" d="M418.9,150v-1.3h0.1v0.1c0-0.1,0.1-0.1,0.1-0.1h0.1c0.1,0,0.1,0,0.3,0.1l-0.1,0.1h-0.1h-0.1l-0.1,0.1
			c0,0.1,0,0.1,0,0.3v0.7L418.9,150L418.9,150z"/>
		<path class="st11" d="M420.6,150v-0.1c-0.1,0.1-0.1,0.1-0.4,0.1c-0.1,0-0.1,0-0.3-0.1c-0.1,0-0.1-0.1-0.1-0.3
			c0-0.1-0.1-0.3-0.1-0.4c0-0.1,0-0.3,0.1-0.4c0-0.1,0.1-0.1,0.1-0.3c0.1,0,0.1-0.1,0.3-0.1s0.1,0,0.1,0l0.1,0.1v-0.7h0.3v1.9
			L420.6,150L420.6,150z M419.9,149.2c0,0.1,0,0.3,0.1,0.4c0.1,0.1,0.1,0.1,0.3,0.1s0.1,0,0.3-0.1c0.1-0.1,0.1-0.1,0.1-0.4
			c0-0.1,0-0.3-0.1-0.4c-0.1-0.1-0.1-0.1-0.3-0.1s-0.1,0-0.3,0.1C419.9,149,419.9,149.1,419.9,149.2z"/>
	</g>
	<g>
		<path class="st16" d="M439,151.7h-3.9c-0.3,0-0.6-0.3-0.6-0.6v-4.4c0-0.3,0.3-0.6,0.6-0.6h3.9c0.3,0,0.6,0.3,0.6,0.6v4.4
			C439.6,151.6,439.3,151.7,439,151.7z"/>
	</g>
	<polygon class="st17" points="438.4,149 437.3,149 437.3,147.6 437,147.6 437,149 435.8,149 435.8,149.2 437,149.2 437,150.4 
		437.3,150.4 437.3,149.2 438.4,149.2 	"/>
	<g>
		<path class="st16" d="M526.8,151.7h-22.3c-0.3,0-0.6-0.3-0.6-0.6v-4.4c0-0.3,0.3-0.6,0.6-0.6h22.3c0.3,0,0.6,0.3,0.6,0.6v4.4
			C527.4,151.4,527.1,151.7,526.8,151.7z"/>
	</g>
	<polygon class="st17" points="508.2,149 507.1,149 507.1,147.6 506.8,147.6 506.8,149 505.6,149 505.6,149.2 506.8,149.2 
		506.8,150.4 507.1,150.4 507.1,149.2 508.2,149.2 	"/>
	<g>
		<g class="st15">
			<path class="st11" d="M510.5,150l0.7-1.9h0.3l0.7,1.9H512l-0.1-0.6h-0.7L511,150H510.5z M511.1,149.1h0.6l-0.1-0.6
				c0-0.1-0.1-0.3-0.1-0.4c0,0.1,0,0.3-0.1,0.3L511.1,149.1z"/>
			<path class="st11" d="M513.3,150v-0.1c-0.1,0.1-0.1,0.1-0.4,0.1c-0.1,0-0.1,0-0.3-0.1c-0.1,0-0.1-0.1-0.1-0.3
				c0-0.1-0.1-0.3-0.1-0.4c0-0.1,0-0.3,0.1-0.4c0-0.1,0.1-0.1,0.1-0.3c0.1,0,0.1-0.1,0.3-0.1s0.1,0,0.1,0l0.1,0.1v-0.7h0.3v1.9
				L513.3,150L513.3,150z M512.6,149.2c0,0.1,0,0.3,0.1,0.4c0.1,0.1,0.1,0.1,0.3,0.1c0.1,0,0.1,0,0.3-0.1c0.1-0.1,0.1-0.1,0.1-0.4
				c0-0.1,0-0.3-0.1-0.4c-0.1-0.1-0.1-0.1-0.3-0.1c-0.1,0-0.1,0-0.3,0.1C512.6,149,512.6,149.1,512.6,149.2z"/>
			<path class="st11" d="M514.7,150v-0.1c-0.1,0.1-0.1,0.1-0.4,0.1c-0.1,0-0.1,0-0.3-0.1c-0.1,0-0.1-0.1-0.1-0.3
				c0-0.1-0.1-0.3-0.1-0.4c0-0.1,0-0.3,0.1-0.4c0-0.1,0.1-0.1,0.1-0.3c0.1,0,0.1-0.1,0.3-0.1c0.1,0,0.1,0,0.1,0l0.1,0.1v-0.7h0.3
				v1.9L514.7,150L514.7,150z M514,149.2c0,0.1,0,0.3,0.1,0.4c0.1,0.1,0.1,0.1,0.3,0.1c0.1,0,0.1,0,0.3-0.1c0.1-0.1,0.1-0.1,0.1-0.4
				c0-0.1,0-0.3-0.1-0.4c-0.1-0.1-0.1-0.1-0.3-0.1c-0.1,0-0.1,0-0.3,0.1C514,149,514,149.1,514,149.2z"/>
			<path class="st11" d="M516.9,149.8c-0.1,0.1-0.1,0.1-0.3,0.1c-0.1,0-0.1,0-0.3,0s-0.3,0-0.3-0.1c-0.1-0.1-0.1-0.1-0.1-0.3v-0.1
				l0.1-0.1c0,0,0.1,0,0.1-0.1h0.1c0.1,0,0.3,0,0.4-0.1l0,0c0-0.1,0-0.1,0-0.1s-0.1-0.1-0.3-0.1s-0.1,0-0.3,0l-0.1,0.1h-0.1
				c0-0.1,0-0.1,0.1-0.3l0.1-0.1c0,0,0.1,0,0.3,0s0.1,0,0.3,0c0.1,0,0.1,0,0.1,0.1c0,0,0,0.1,0.1,0.1v0.1v0.6c0,0.1,0,0.3,0,0.4v0.1
				h-0.3C516.9,149.8,516.9,149.8,516.9,149.8z M516.8,149.2c-0.1,0-0.1,0-0.4,0.1c-0.1,0-0.1,0-0.1,0s-0.1,0-0.1,0.1v0.1
				c0,0,0,0.1,0.1,0.1h0.1c0.1,0,0.1,0,0.3,0s0.1-0.1,0.1-0.1C516.9,149.5,516.9,149.4,516.8,149.2L516.8,149.2L516.8,149.2z"/>
			<path class="st11" d="M519,149.4h0.1c0,0.1-0.1,0.3-0.1,0.4c-0.1,0.1-0.1,0.1-0.4,0.1c-0.1,0-0.3,0-0.4-0.1
				c-0.1-0.1-0.1-0.3-0.1-0.6c0-0.1,0-0.3,0.1-0.4c0-0.1,0.1-0.1,0.1-0.3c0.1,0,0.1-0.1,0.3-0.1s0.3,0,0.4,0.1
				c0.1,0.1,0.1,0.1,0.1,0.3H519c0-0.1,0-0.1-0.1-0.1l-0.1-0.1c-0.1,0-0.1,0-0.3,0.1c-0.1,0.1-0.1,0.1-0.1,0.4c0,0.3,0,0.3,0.1,0.4
				c0.1,0.1,0.1,0.1,0.3,0.1s0.1,0,0.1-0.1C519,149.7,519,149.5,519,149.4z"/>
			<path class="st11" d="M519.4,150v-1.9h0.3v0.7c0.1-0.1,0.3-0.1,0.4-0.1c0.1,0,0.1,0,0.3,0s0.1,0.1,0.1,0.1c0,0.1,0,0.1,0,0.3v0.9
				h-0.3v-0.9c0-0.1,0-0.1-0.1-0.3l-0.1-0.1c-0.1,0-0.1,0-0.1,0l-0.1,0.1c0,0,0,0.1,0,0.3v0.7L519.4,150L519.4,150z"/>
			<path class="st11" d="M521.7,149.8c-0.1,0.1-0.1,0.1-0.3,0.1s-0.1,0-0.3,0c-0.1,0-0.3,0-0.3-0.1c-0.1-0.1-0.1-0.1-0.1-0.3v-0.1
				l0.1-0.1c0,0,0.1,0,0.1-0.1h0.1c0.1,0,0.3,0,0.4-0.1l0,0c0-0.1,0-0.1,0-0.1s-0.1-0.1-0.3-0.1c-0.1,0-0.1,0-0.3,0l-0.1,0.1h-0.1
				c0-0.1,0-0.1,0.1-0.3l0.1-0.1c0,0,0.1,0,0.3,0c0.1,0,0.1,0,0.3,0s0.1,0,0.1,0.1c0,0,0,0.1,0.1,0.1v0.1v0.6c0,0.1,0,0.3,0,0.4v0.1
				h-0.3C521.7,149.8,521.7,149.8,521.7,149.8z M521.7,149.2c-0.1,0-0.1,0-0.4,0.1c-0.1,0-0.1,0-0.1,0s-0.1,0-0.1,0.1v0.1
				c0,0,0,0.1,0.1,0.1h0.1c0.1,0,0.1,0,0.3,0c0.1,0,0.1-0.1,0.1-0.1C521.7,149.5,521.7,149.4,521.7,149.2L521.7,149.2L521.7,149.2z"
				/>
			<path class="st11" d="M522.3,150v-1.3h0.1v0.1c0-0.1,0.1-0.1,0.1-0.1h0.1c0.1,0,0.1,0,0.3,0.1l-0.1,0.1h-0.1h-0.1l-0.1,0.1
				c0,0.1,0,0.1,0,0.3v0.7L522.3,150L522.3,150z"/>
			<path class="st11" d="M523.6,149.7v0.1h-0.1c-0.1,0-0.1,0-0.1,0s-0.1,0-0.1-0.1c0,0,0-0.1,0-0.3v-0.9H523v-0.1h0.1v-0.3l0.3-0.1
				v0.4h0.3v0.1h-0.3v0.9v0.1l0,0C523.5,149.8,523.5,149.8,523.6,149.7C523.6,149.8,523.6,149.7,523.6,149.7z"/>
		</g>
	</g>
	<g>
		<path class="st14" d="M624.6,151.7h-9.3c-0.3,0-0.6-0.3-0.6-0.6v-4.4c0-0.3,0.3-0.6,0.6-0.6h9.3c0.3,0,0.6,0.3,0.6,0.6v4.4
			C625.1,151.4,624.9,151.7,624.6,151.7z"/>
	</g>
	<rect x="616.6" y="149.8" class="st18" width="0.6" height="0.6"/>
	<rect x="616.6" y="148.8" class="st18" width="0.6" height="0.6"/>
	<rect x="616.6" y="147.6" class="st18" width="0.6" height="0.6"/>
	<g>
		<path class="st19" d="M623.3,148.4c-0.1-0.1-0.1-0.1-0.3,0l-1,1l-1-1c-0.1-0.1-0.1-0.1-0.3,0c-0.1,0.1-0.1,0.1,0,0.3l1.2,1.2l0,0
			h0.1h0.1l0,0l1.2-1.2C623.3,148.7,623.3,148.5,623.3,148.4z"/>
	</g>
</g>
<g class="st15">
	<path class="st11" d="M486.6,302.6v-1.7c-0.9-0.1-1.6-0.3-2-0.6s-1-0.7-1.5-1.3c-0.4-0.6-0.6-1.3-0.6-2.2l1.7-0.3
		c0.1,0.9,0.3,1.6,0.6,1.9c0.4,0.6,1,0.9,1.7,1V294c-0.6-0.1-1.5-0.4-2.2-0.9c-0.6-0.3-1-0.7-1.2-1.2c-0.3-0.4-0.4-1.2-0.4-1.7
		c0-1.2,0.4-2.2,1.3-2.9c0.6-0.4,1.5-0.9,2.5-0.9v-0.9h1v0.9c1,0.1,1.7,0.4,2.3,0.9c0.7,0.6,1.2,1.5,1.3,2.5l-1.7,0.3
		c-0.1-0.6-0.3-1.2-0.6-1.6c-0.3-0.3-0.7-0.6-1.3-0.7v4.8c0.9,0.3,1.5,0.4,1.7,0.4c0.4,0.3,1,0.4,1.3,0.9c0.3,0.3,0.6,0.7,0.7,1.2
		c0.1,0.4,0.3,1,0.3,1.5c0,1.2-0.4,2.2-1.2,2.9c-0.7,0.7-1.7,1.2-2.9,1.2v1.7h-1L486.6,302.6L486.6,302.6z M486.6,288.1
		c-0.6,0.1-1.2,0.3-1.6,0.9c-0.4,0.4-0.6,0.9-0.6,1.5s0.1,1,0.4,1.5s0.9,0.7,1.6,0.9v-4.6H486.6z M487.6,299.5
		c0.6-0.1,1.2-0.3,1.6-0.9c0.4-0.4,0.6-1,0.6-1.7c0-0.6-0.1-1-0.4-1.5c-0.3-0.4-0.9-0.7-1.7-1C487.6,294.4,487.6,299.5,487.6,299.5z
		"/>
	<path class="st11" d="M499.5,300.7h-1.7v-10.6c-0.4,0.4-0.9,0.7-1.6,1.2c-0.6,0.4-1.2,0.6-1.7,0.9v-1.6c1-0.4,1.7-1,2.5-1.6
		s1.2-1.2,1.5-1.7h1v13.6h0.1V300.7z"/>
	<path class="st11" d="M503.9,293.9c0-1.6,0.1-2.9,0.4-3.9c0.3-1,0.9-1.7,1.5-2.3c0.6-0.6,1.5-0.9,2.5-0.9c0.7,0,1.5,0.1,1.9,0.4
		c0.6,0.3,1,0.7,1.5,1.3c0.3,0.6,0.6,1.2,0.9,2c0.3,0.9,0.3,1.9,0.3,3.2c0,1.6-0.1,2.9-0.4,3.9c-0.3,1-0.9,1.7-1.5,2.3
		c-0.6,0.6-1.5,0.9-2.5,0.9c-1.3,0-2.3-0.4-3-1.5C504.3,298.4,503.9,296.5,503.9,293.9z M505.6,293.9c0,2.3,0.3,3.8,0.9,4.5
		c0.4,0.7,1.2,1.2,1.9,1.2c0.7,0,1.5-0.4,1.9-1.2c0.4-0.7,0.9-2.2,0.9-4.5s-0.3-3.8-0.9-4.5c-0.4-0.7-1.2-1.2-1.9-1.2
		c-0.7,0-1.5,0.3-1.9,1C505.9,290.2,505.6,291.7,505.6,293.9z"/>
	<path class="st11" d="M515.3,300.7v-1.9h1.9v1.9c0,0.7-0.1,1.3-0.4,1.7c-0.3,0.4-0.6,0.7-1.2,1l-0.4-0.7c0.3-0.1,0.6-0.4,0.9-0.6
		c0.1-0.3,0.3-0.7,0.3-1.3L515.3,300.7L515.3,300.7z"/>
	<path class="st11" d="M528.4,290.4l-1.6,0.1c-0.1-0.6-0.3-1.2-0.6-1.5c-0.4-0.4-1-0.7-1.7-0.7c-0.6,0-1,0.1-1.5,0.4
		c-0.4,0.4-1,1-1.2,1.7c-0.3,0.7-0.4,1.7-0.4,3.2c0.4-0.6,0.9-1,1.5-1.5c0.6-0.4,1.2-0.4,1.9-0.4c1.2,0,2,0.4,2.9,1.2
		c0.9,0.9,1.2,1.9,1.2,3.2c0,0.9-0.1,1.6-0.6,2.3c-0.4,0.7-0.9,1.3-1.6,1.7c-0.6,0.4-1.5,0.6-2.2,0.6c-1.5,0-2.5-0.4-3.3-1.6
		c-0.9-1-1.3-2.6-1.3-5.1c0-2.6,0.4-4.5,1.5-5.8c0.9-1,2-1.6,3.3-1.6c1,0,1.9,0.3,2.6,0.9C528,288.5,528.2,289.2,528.4,290.4z
		 M521.6,296.3c0,0.6,0.1,1.2,0.4,1.6s0.6,0.9,1,1.2s0.9,0.4,1.5,0.4c0.7,0,1.3-0.3,1.7-0.9c0.4-0.6,0.7-1.5,0.7-2.3
		c0-1-0.3-1.7-0.7-2.2c-0.4-0.6-1.2-0.9-1.9-0.9s-1.5,0.3-1.9,0.9C521.9,294.6,521.6,295.3,521.6,296.3z"/>
	<path class="st11" d="M530.3,297.1l1.7-0.3c0.1,1,0.4,1.6,1,2c0.4,0.4,1,0.6,1.7,0.6c0.9,0,1.5-0.3,2-0.9c0.6-0.6,0.9-1.2,0.9-2
		c0-0.7-0.3-1.5-0.7-1.9c-0.4-0.4-1.2-0.7-1.9-0.7c-0.3,0-0.7,0.1-1.2,0.1l0.1-1.5c0.1,0,0.1,0,0.3,0c0.7,0,1.5-0.1,1.9-0.6
		c0.4-0.4,0.9-1,0.9-1.7c0-0.6-0.3-1.2-0.6-1.6c-0.3-0.4-1-0.6-1.6-0.6c-0.6,0-1.2,0.3-1.6,0.6c-0.4,0.3-0.7,1-0.9,1.9l-1.7-0.3
		c0.3-1.2,0.6-2,1.5-2.6c0.7-0.6,1.6-0.9,2.6-0.9c0.7,0,1.5,0.1,2,0.4c0.6,0.3,1.2,0.7,1.5,1.3c0.3,0.6,0.4,1.2,0.4,1.7
		c0,0.6-0.1,1.2-0.4,1.6s-0.9,0.9-1.5,1.2c0.9,0.1,1.5,0.6,1.9,1.2c0.4,0.6,0.6,1.3,0.6,2.2c0,1.2-0.4,2.2-1.3,3
		c-0.9,0.9-1.9,1.2-3.3,1.2c-1.2,0-2.2-0.3-3-1C530.9,299.1,530.4,298.2,530.3,297.1z"/>
	<path class="st11" d="M540.9,297.1l1.7-0.1c0.1,0.9,0.4,1.5,0.9,1.9c0.4,0.4,1,0.6,1.7,0.6c0.9,0,1.5-0.3,2-0.9
		c0.6-0.6,0.9-1.5,0.9-2.5s-0.3-1.7-0.9-2.3c-0.6-0.6-1.2-0.9-2.2-0.9c-0.6,0-1,0.1-1.5,0.4c-0.4,0.3-0.9,0.6-1,1L541,294l1.3-7h6.7
		v1.6h-5.4l-0.7,3.6c0.9-0.6,1.7-0.9,2.6-0.9c1.2,0,2.2,0.4,3,1.2c0.9,0.9,1.2,1.9,1.2,3.2c0,1.2-0.3,2.3-1,3.2
		c-0.9,1.2-2,1.6-3.6,1.6c-1.2,0-2.3-0.3-3-1C541.4,299.1,541,298.2,540.9,297.1z"/>
</g>
<g>
	<g>
		<path class="st20" d="M511.7,222.2l-31-33.4c8.7-8.1,19.3-12.2,31-12.2V222.2z"/>
	</g>
</g>
<g>
	<g>
		<g>
			<path class="st21" d="M511.7,222.2l-23.5,39.2c-21.6-12.9-28.6-40.9-15.7-62.5c2.3-3.8,4.8-6.8,8-9.9L511.7,222.2z"/>
		</g>
	</g>
</g>
<g>
	<g>
		<g>
			<path class="st22" d="M511.7,222.2l36.4,27.4c-14.2,18.9-39.6,23.8-59.9,11.7L511.7,222.2z"/>
		</g>
	</g>
</g>
<g>
	<g>
		<g>
			<path class="st23" d="M511.7,222.2l40.6-20.7c8.1,15.8,6.5,33.9-4.2,48.2L511.7,222.2z"/>
		</g>
	</g>
</g>
<g>
	<g>
		<g>
			<path class="st24" d="M511.7,222.2l30.5-33.9c4.4,3.9,7.4,7.8,10.2,13.2L511.7,222.2z"/>
		</g>
	</g>
</g>
<g>
	<g>
		<g>
			<path class="st25" d="M511.7,222.2v-45.5c11.9,0,21.6,3.8,30.5,11.7L511.7,222.2z"/>
		</g>
	</g>
</g>
<path class="st26" d="M921.9,325.1H680c-1.7,0-3.2-1.5-3.2-3.2V142.4c0-1.7,1.5-3.2,3.2-3.2h242.1c1.7,0,3.2,1.5,3.2,3.2v179.4
	C925.3,323.6,923.8,325.1,921.9,325.1z"/>
<path class="st6" d="M917.1,318.7H684.8c-0.9,0-1.6-0.7-1.6-1.6V147.4c0-0.9,0.7-1.6,1.6-1.6h232.4c0.9,0,1.6,0.7,1.6,1.6v169.7
	C918.7,317.9,918,318.7,917.1,318.7z"/>
<g>
	<g>
		<path class="st7" d="M918.7,153v-7.5c0-0.3-0.3-0.6-0.6-0.6h-236c-0.3,0-0.6,0.3-0.6,0.6v7.5H918.7z"/>
	</g>
	<g>
		<polyline class="st8" points="686.6,149.1 687.5,147.2 686.6,146.6 684.5,147.9 		"/>
		<polyline class="st9" points="686.8,149.2 686.6,146.6 689,147.9 		"/>
		<path class="st10" d="M688.5,149.1c0,1-0.9,1.9-1.9,1.9s-1.9-0.9-1.9-1.9c0-1,0.9-1.9,1.9-1.9
			C687.7,147.2,688.5,148.1,688.5,149.1z"/>
		<path class="st11" d="M688.1,149.1c0,0.7-0.6,1.3-1.3,1.3c-0.7,0-1.3-0.6-1.3-1.3c0-0.7,0.6-1.3,1.3-1.3
			C687.5,147.8,688.1,148.4,688.1,149.1z"/>
		<ellipse class="st12" cx="686.8" cy="149.1" rx="0.7" ry="0.7"/>
		<polygon class="st11" points="686.6,149.1 688,149.8 686.6,151.7 684.5,150.5 684.5,147.9 		"/>
		<polygon class="st13" points="686.6,149.1 686.6,151.7 689,150.5 689,147.9 		"/>
	</g>
	<path class="st14" d="M723.8,151.7h-30.9c-0.3,0-0.6-0.3-0.6-0.6v-4.4c0-0.3,0.3-0.6,0.6-0.6h30.9c0.3,0,0.6,0.3,0.6,0.6v4.4
		C724.2,151.4,724.1,151.7,723.8,151.7z"/>
	<g class="st15">
		<path class="st11" d="M694.5,150v-1.9h0.3v0.9l0.9-0.9h0.3l-0.7,0.7l0.9,1.2h-0.3l-0.7-0.9l-0.3,0.3v0.6
			C694.8,150,694.5,150,694.5,150z"/>
		<path class="st11" d="M696.2,150v-1.9h0.7c0.1,0,0.1,0,0.3,0c0.1,0,0.1,0,0.3,0.1l0.1,0.1c0,0.1,0,0.1,0,0.3c0,0.1,0,0.3-0.1,0.4
			c-0.1,0.1-0.3,0.1-0.6,0.1h-0.4v0.7C696.5,150,696.2,150,696.2,150z M696.5,149h0.4c0.1,0,0.3,0,0.3-0.1c0.1,0,0.1-0.1,0.1-0.3
			s0-0.1,0-0.1l-0.1-0.1c0,0-0.1,0-0.3,0h-0.4V149z"/>
		<path class="st11" d="M698,150v-1.9h0.3v1.9H698z"/>
		<path class="st11" d="M699.4,150v-1.9h0.6c0.1,0,0.3,0,0.3,0c0.1,0,0.1,0.1,0.3,0.1c0.1,0.1,0.1,0.1,0.1,0.3s0.1,0.3,0.1,0.4
			s0,0.3,0,0.4s-0.1,0.1-0.1,0.3c0,0.1-0.1,0.1-0.1,0.1l-0.1,0.1c0,0-0.1,0-0.3,0C700.1,150,699.4,150,699.4,150z M699.7,149.7h0.4
			c0.1,0,0.1,0,0.3,0s0.1,0,0.1-0.1c0,0,0.1-0.1,0.1-0.3c0-0.1,0-0.1,0-0.3s0-0.3-0.1-0.4c0-0.1-0.1-0.1-0.3-0.1c0,0-0.1,0-0.3,0
			h-0.4L699.7,149.7L699.7,149.7z"/>
		<path class="st11" d="M702,149.8c-0.1,0.1-0.1,0.1-0.3,0.1s-0.1,0-0.3,0s-0.3,0-0.3-0.1c-0.1-0.1-0.1-0.1-0.1-0.3v-0.1l0.1-0.1
			c0,0,0.1,0,0.1-0.1h0.1c0.1,0,0.3,0,0.4-0.1l0,0c0-0.1,0-0.1,0-0.1s-0.1-0.1-0.3-0.1s-0.1,0-0.3,0l-0.1,0.1H701
			c0-0.1,0-0.1,0.1-0.3l0.1-0.1c0,0,0.1,0,0.3,0s0.1,0,0.3,0s0.1,0,0.1,0.1c0,0,0,0.1,0.1,0.1v0.1v0.6c0,0.1,0,0.3,0,0.4v0.1h0
			C702.2,149.8,702,149.8,702,149.8z M702,149.2c-0.1,0-0.1,0-0.4,0.1c-0.1,0-0.1,0-0.1,0s-0.1,0-0.1,0.1v0.1c0,0,0,0.1,0.1,0.1h0.1
			c0.1,0,0.1,0,0.3,0s0.1-0.1,0.1-0.1C702.2,149.5,702.2,149.4,702,149.2L702,149.2L702,149.2z"/>
		<path class="st11" d="M702.6,149.5h0.1c0,0.1,0,0.1,0.1,0.1c0,0,0.1,0.1,0.3,0.1s0.1,0,0.3,0l0.1-0.1c0,0,0-0.1-0.1-0.1
			c0,0-0.1,0-0.3-0.1c-0.1,0-0.3-0.1-0.3-0.1l-0.1-0.1V149v-0.1c0,0,0-0.1,0.1-0.1c0,0,0.1,0,0.1-0.1h0.1c0.1,0,0.1,0,0.3,0
			s0.1,0.1,0.1,0.1s0,0.1,0.1,0.1h-0.1c0-0.1,0-0.1-0.1-0.1h-0.1c-0.1,0-0.1,0-0.1,0l-0.1,0.1c0,0,0,0,0,0.1c0,0,0,0,0.1,0h0.1
			c0.1,0,0.3,0.1,0.3,0.1l0.1,0.1v0.1c0,0,0,0.1-0.1,0.1c0,0.1-0.1,0.1-0.1,0.1c-0.1,0-0.1,0-0.3,0s-0.3,0-0.4-0.1
			C702.6,149.8,702.6,149.7,702.6,149.5z"/>
		<path class="st11" d="M703.9,150v-1.9h0.3v0.7c0.1-0.1,0.3-0.1,0.4-0.1c0.1,0,0.1,0,0.3,0c0.1,0,0.1,0.1,0.1,0.1
			c0,0.1,0,0.1,0,0.3v0.9h-0.3v-0.9c0-0.1,0-0.1-0.1-0.3l-0.1-0.1c-0.1,0-0.1,0-0.1,0l-0.1,0.1c0,0,0,0.1,0,0.3v0.7L703.9,150
			L703.9,150z"/>
		<path class="st11" d="M705.6,150h-0.1v-1.9h0.3v0.7c0.1-0.1,0.1-0.1,0.4-0.1c0.1,0,0.1,0,0.3,0s0.1,0.1,0.1,0.1l0.1,0.1
			c0,0.1,0,0.1,0,0.3c0,0.3,0,0.4-0.1,0.6s-0.3,0.1-0.4,0.1s-0.3,0-0.4-0.1L705.6,150L705.6,150z M705.6,149.2c0,0.1,0,0.3,0,0.3
			c0.1,0.1,0.1,0.1,0.3,0.1s0.1,0,0.3-0.1c0.1-0.1,0.1-0.1,0.1-0.4c0-0.1,0-0.3-0.1-0.4c-0.1-0.1-0.1-0.1-0.3-0.1s-0.1,0-0.3,0.1
			C705.6,149,705.6,149.1,705.6,149.2z"/>
		<path class="st11" d="M706.7,149.2c0-0.3,0.1-0.4,0.1-0.6c0.1-0.1,0.3-0.1,0.4-0.1c0.1,0,0.3,0,0.4,0.1c0.1,0.1,0.1,0.3,0.1,0.6
			c0,0.1,0,0.3-0.1,0.4c0,0.1-0.1,0.1-0.3,0.3c-0.1,0.1-0.1,0.1-0.3,0.1s-0.3,0-0.4-0.1C706.8,149.7,706.7,149.5,706.7,149.2z
			 M707,149.2c0,0.1,0,0.3,0.1,0.4c0.1,0.1,0.1,0.1,0.3,0.1c0.1,0,0.1,0,0.3-0.1c0.1-0.1,0.1-0.1,0.1-0.4c0-0.1,0-0.3-0.1-0.4
			c-0.1-0.1-0.1-0.1-0.3-0.1c-0.1,0-0.1,0-0.3,0.1C707,149,707,149.1,707,149.2z"/>
		<path class="st11" d="M709.1,149.8c-0.1,0.1-0.1,0.1-0.3,0.1s-0.1,0-0.3,0c-0.1,0-0.3,0-0.3-0.1c-0.1-0.1-0.1-0.1-0.1-0.3v-0.1
			l0.1-0.1c0,0,0.1,0,0.1-0.1h0.1c0.1,0,0.3,0,0.4-0.1l0,0c0-0.1,0-0.1,0-0.1s-0.1-0.1-0.3-0.1s-0.1,0-0.3,0l-0.1,0.1h-0.1
			c0-0.1,0-0.1,0.1-0.3l0.1-0.1c0,0,0.1,0,0.3,0s0.1,0,0.3,0c0.1,0,0.1,0,0.1,0.1c0,0,0,0.1,0.1,0.1v0.1v0.6c0,0.1,0,0.3,0,0.4
			s0,0.1,0,0.1H709C709.1,149.8,709.1,149.8,709.1,149.8z M709.1,149.2c-0.1,0-0.1,0-0.4,0.1c-0.1,0-0.1,0-0.1,0s-0.1,0-0.1,0.1v0.1
			c0,0,0,0.1,0.1,0.1h0.1c0.1,0,0.1,0,0.3,0s0.1-0.1,0.1-0.1C709.1,149.5,709.1,149.4,709.1,149.2L709.1,149.2L709.1,149.2z"/>
		<path class="st11" d="M709.7,150v-1.3h0.1v0.1c0-0.1,0.1-0.1,0.1-0.1h0.1c0.1,0,0.1,0,0.3,0.1l-0.1,0.1h-0.1H710l-0.1,0.1
			c0,0.1,0,0.1,0,0.3v0.7L709.7,150L709.7,150z"/>
		<path class="st11" d="M711.5,150v-0.1c-0.1,0.1-0.1,0.1-0.4,0.1c-0.1,0-0.1,0-0.3-0.1c-0.1,0-0.1-0.1-0.1-0.3
			c0-0.1-0.1-0.3-0.1-0.4c0-0.1,0-0.3,0.1-0.4c0-0.1,0.1-0.1,0.1-0.3c0.1,0,0.1-0.1,0.3-0.1s0.1,0,0.1,0l0.1,0.1v-0.7h0.3v1.9
			L711.5,150L711.5,150z M710.7,149.2c0,0.1,0,0.3,0.1,0.4c0.1,0.1,0.1,0.1,0.3,0.1s0.1,0,0.3-0.1c0.1-0.1,0.1-0.1,0.1-0.4
			c0-0.1,0-0.3-0.1-0.4c-0.1-0.1-0.1-0.1-0.3-0.1s-0.1,0-0.3,0.1C710.7,149,710.7,149.1,710.7,149.2z"/>
	</g>
	<g>
		<path class="st16" d="M729.9,151.7H726c-0.3,0-0.6-0.3-0.6-0.6v-4.4c0-0.3,0.3-0.6,0.6-0.6h3.9c0.3,0,0.6,0.3,0.6,0.6v4.4
			C730.3,151.6,730.2,151.7,729.9,151.7z"/>
	</g>
	<polygon class="st17" points="729.1,149 728,149 728,147.6 727.7,147.6 727.7,149 726.5,149 726.5,149.2 727.7,149.2 727.7,150.4 
		728,150.4 728,149.2 729.1,149.2 	"/>
	<g>
		<path class="st16" d="M817.5,151.7h-22.3c-0.3,0-0.6-0.3-0.6-0.6v-4.4c0-0.3,0.3-0.6,0.6-0.6h22.3c0.3,0,0.6,0.3,0.6,0.6v4.4
			C818.1,151.4,817.8,151.7,817.5,151.7z"/>
	</g>
	<polygon class="st17" points="799.1,149 797.8,149 797.8,147.6 797.6,147.6 797.6,149 796.3,149 796.3,149.2 797.6,149.2 
		797.6,150.4 797.8,150.4 797.8,149.2 799.1,149.2 	"/>
	<g>
		<g class="st15">
			<path class="st11" d="M801.2,150l0.7-1.9h0.3l0.7,1.9h-0.3l-0.1-0.6h-0.7l-0.1,0.6H801.2z M801.8,149.1h0.6l-0.1-0.6
				c0-0.1-0.1-0.3-0.1-0.4c0,0.1,0,0.3-0.1,0.3L801.8,149.1z"/>
			<path class="st11" d="M804,150v-0.1c-0.1,0.1-0.1,0.1-0.4,0.1c-0.1,0-0.1,0-0.3-0.1c-0.1,0-0.1-0.1-0.1-0.3
				c0-0.1-0.1-0.3-0.1-0.4c0-0.1,0-0.3,0.1-0.4c0-0.1,0.1-0.1,0.1-0.3c0.1,0,0.1-0.1,0.3-0.1s0.1,0,0.1,0l0.1,0.1v-0.7h0.3v1.9
				L804,150L804,150z M803.4,149.2c0,0.1,0,0.3,0.1,0.4c0.1,0.1,0.1,0.1,0.3,0.1s0.1,0,0.3-0.1c0.1-0.1,0.1-0.1,0.1-0.4
				c0-0.1,0-0.3-0.1-0.4c-0.1-0.1-0.1-0.1-0.3-0.1s-0.1,0-0.3,0.1C803.4,149,803.4,149.1,803.4,149.2z"/>
			<path class="st11" d="M805.5,150v-0.1c-0.1,0.1-0.1,0.1-0.4,0.1c-0.1,0-0.1,0-0.3-0.1c-0.1,0-0.1-0.1-0.1-0.3
				c0-0.1-0.1-0.3-0.1-0.4c0-0.1,0-0.3,0.1-0.4c0-0.1,0.1-0.1,0.1-0.3c0.1,0,0.1-0.1,0.3-0.1c0.1,0,0.1,0,0.1,0l0.1,0.1v-0.7h0.3
				v1.9L805.5,150L805.5,150z M804.7,149.2c0,0.1,0,0.3,0.1,0.4c0.1,0.1,0.1,0.1,0.3,0.1c0.1,0,0.1,0,0.3-0.1
				c0.1-0.1,0.1-0.1,0.1-0.4c0-0.1,0-0.3-0.1-0.4c-0.1-0.1-0.1-0.1-0.3-0.1c-0.1,0-0.1,0-0.3,0.1C804.9,149,804.7,149.1,804.7,149.2
				z"/>
			<path class="st11" d="M807.6,149.8c-0.1,0.1-0.1,0.1-0.3,0.1s-0.1,0-0.3,0s-0.3,0-0.3-0.1c-0.1-0.1-0.1-0.1-0.1-0.3v-0.1l0.1-0.1
				c0,0,0.1,0,0.1-0.1h0.1c0.1,0,0.3,0,0.4-0.1l0,0c0-0.1,0-0.1,0-0.1s-0.1-0.1-0.3-0.1s-0.1,0-0.3,0l-0.1,0.1h-0.1
				c0-0.1,0-0.1,0.1-0.3l0.1-0.1c0,0,0.1,0,0.3,0s0.1,0,0.3,0s0.1,0,0.1,0.1c0,0,0,0.1,0.1,0.1v0.1v0.6c0,0.1,0,0.3,0,0.4v0.1h-0.3
				C807.6,149.8,807.6,149.8,807.6,149.8z M807.6,149.2c-0.1,0-0.1,0-0.4,0.1c-0.1,0-0.1,0-0.1,0s-0.1,0-0.1,0.1v0.1
				c0,0,0,0.1,0.1,0.1h0.1c0.1,0,0.1,0,0.3,0c0.1,0,0.1-0.1,0.1-0.1C807.6,149.5,807.6,149.4,807.6,149.2L807.6,149.2L807.6,149.2z"
				/>
			<path class="st11" d="M809.8,149.4h0.1c0,0.1-0.1,0.3-0.1,0.4c-0.1,0.1-0.1,0.1-0.4,0.1c-0.1,0-0.3,0-0.4-0.1
				c-0.1-0.1-0.1-0.3-0.1-0.6c0-0.1,0-0.3,0.1-0.4c0-0.1,0.1-0.1,0.1-0.3c0.1,0,0.1-0.1,0.3-0.1c0.1,0,0.3,0,0.4,0.1
				c0.1,0.1,0.1,0.1,0.1,0.3h-0.1c0-0.1,0-0.1-0.1-0.1l-0.1-0.1c-0.1,0-0.1,0-0.3,0.1c-0.1,0.1-0.1,0.1-0.1,0.4c0,0.3,0,0.3,0.1,0.4
				c0.1,0.1,0.1,0.1,0.3,0.1c0.1,0,0.1,0,0.1-0.1C809.8,149.7,809.8,149.5,809.8,149.4z"/>
			<path class="st11" d="M810.2,150v-1.9h0.3v0.7c0.1-0.1,0.3-0.1,0.4-0.1c0.1,0,0.1,0,0.3,0s0.1,0.1,0.1,0.1c0,0.1,0,0.1,0,0.3v0.9
				h-0.3v-0.9c0-0.1,0-0.1-0.1-0.3l-0.1-0.1c-0.1,0-0.1,0-0.1,0l-0.1,0.1c0,0,0,0.1,0,0.3v0.7L810.2,150L810.2,150z"/>
			<path class="st11" d="M812.6,149.8c-0.1,0.1-0.1,0.1-0.3,0.1s-0.1,0-0.3,0c-0.1,0-0.3,0-0.3-0.1c-0.1-0.1-0.1-0.1-0.1-0.3v-0.1
				l0.1-0.1c0,0,0.1,0,0.1-0.1h0.1c0.1,0,0.3,0,0.4-0.1l0,0c0-0.1,0-0.1,0-0.1s-0.1-0.1-0.3-0.1s-0.1,0-0.3,0l-0.1,0.1h-0.1
				c0-0.1,0-0.1,0.1-0.3l0.1-0.1c0,0,0.1,0,0.3,0s0.1,0,0.3,0c0.1,0,0.1,0,0.1,0.1c0,0,0,0.1,0.1,0.1v0.1v0.6c0,0.1,0,0.3,0,0.4v0.1
				h-0.3C812.6,149.8,812.6,149.8,812.6,149.8z M812.6,149.2c-0.1,0-0.1,0-0.4,0.1c-0.1,0-0.1,0-0.1,0s-0.1,0-0.1,0.1v0.1
				c0,0,0,0.1,0.1,0.1h0.1c0.1,0,0.1,0,0.3,0s0.1-0.1,0.1-0.1C812.6,149.5,812.6,149.4,812.6,149.2L812.6,149.2L812.6,149.2z"/>
			<path class="st11" d="M813.1,150v-1.3h0.1v0.1c0-0.1,0.1-0.1,0.1-0.1h0.1c0.1,0,0.1,0,0.3,0.1l-0.1,0.1h-0.1h-0.1l-0.1,0.1
				c0,0.1,0,0.1,0,0.3v0.7L813.1,150L813.1,150z"/>
			<path class="st11" d="M814.4,149.7v0.1h-0.1c-0.1,0-0.1,0-0.1,0s-0.1,0-0.1-0.1c0,0,0-0.1,0-0.3v-0.9h-0.1v-0.1h0.1v-0.3l0.3-0.1
				v0.4h0.3v0.1h-0.3v0.9v0.1l0,0C814.3,149.8,814.3,149.8,814.4,149.7C814.4,149.8,814.4,149.7,814.4,149.7z"/>
		</g>
	</g>
	<g>
		<path class="st14" d="M915.3,151.7H906c-0.3,0-0.6-0.3-0.6-0.6v-4.4c0-0.3,0.3-0.6,0.6-0.6h9.3c0.3,0,0.6,0.3,0.6,0.6v4.4
			C915.8,151.4,915.6,151.7,915.3,151.7z"/>
	</g>
	<rect x="907.4" y="149.8" class="st18" width="0.6" height="0.6"/>
	<rect x="907.4" y="148.8" class="st18" width="0.6" height="0.6"/>
	<rect x="907.4" y="147.6" class="st18" width="0.6" height="0.6"/>
	<g>
		<path class="st19" d="M914,148.4c-0.1-0.1-0.1-0.1-0.3,0l-1,1l-1-1c-0.1-0.1-0.1-0.1-0.3,0c-0.1,0.1-0.1,0.1,0,0.3l1.2,1.2l0,0
			h0.1h0.1l0,0l1.2-1.2C914.1,148.7,914.1,148.5,914,148.4z"/>
	</g>
</g>
<g class="st15">
	<path class="st27" d="M699,281.2v-0.6c-0.3,0-0.6-0.1-0.7-0.1c-0.1-0.1-0.3-0.3-0.6-0.6c-0.1-0.3-0.3-0.6-0.3-0.7l0.6-0.1
		c0.1,0.3,0.1,0.6,0.3,0.7c0.1,0.3,0.3,0.3,0.6,0.3v-1.9c-0.3-0.1-0.6-0.1-0.7-0.3c-0.1-0.1-0.3-0.3-0.4-0.4
		c-0.1-0.1-0.1-0.4-0.1-0.7c0-0.4,0.1-0.7,0.4-1c0.1-0.1,0.6-0.3,0.9-0.3v-0.3h0.3v0.3c0.3,0,0.6,0.1,0.9,0.3
		c0.3,0.3,0.4,0.6,0.6,0.9l-0.6,0.1c0-0.3-0.1-0.4-0.3-0.6c-0.1-0.1-0.3-0.1-0.6-0.3v1.7c0.3,0.1,0.6,0.1,0.6,0.1
		c0.1,0.1,0.3,0.1,0.4,0.3c0.1,0.1,0.1,0.3,0.3,0.4c0.1,0.1,0.1,0.3,0.1,0.6c0,0.4-0.1,0.7-0.4,1c-0.3,0.3-0.6,0.4-1,0.4v0.6
		L699,281.2L699,281.2z M699,275.9c-0.3,0-0.4,0.1-0.6,0.3s-0.1,0.3-0.1,0.6c0,0.3,0.1,0.3,0.1,0.6c0.1,0.1,0.3,0.3,0.6,0.3V275.9z
		 M699.4,280.1c0.3,0,0.4-0.1,0.6-0.3s0.3-0.4,0.3-0.7c0-0.3-0.1-0.4-0.1-0.6c-0.1-0.1-0.3-0.3-0.7-0.3V280.1z"/>
	<path class="st27" d="M703.8,280.5h-0.6v-3.9c-0.1,0.1-0.3,0.3-0.6,0.4c-0.3,0.1-0.4,0.3-0.7,0.3v-0.6c0.3-0.1,0.6-0.3,0.9-0.6
		c0.3-0.3,0.4-0.4,0.6-0.7h0.4V280.5L703.8,280.5z"/>
	<path class="st27" d="M705.4,278.1c0-0.6,0.1-1,0.1-1.5c0.1-0.3,0.3-0.6,0.6-0.9c0.3-0.1,0.6-0.3,0.9-0.3c0.3,0,0.6,0.1,0.7,0.1
		s0.3,0.3,0.6,0.4c0.3,0.1,0.3,0.4,0.3,0.7c0.1,0.3,0.1,0.7,0.1,1.2c0,0.6-0.1,1-0.1,1.5c-0.1,0.3-0.3,0.6-0.6,0.9
		c-0.3,0.1-0.6,0.3-0.9,0.3c-0.6,0-0.9-0.1-1.2-0.6C705.5,279.7,705.4,279.1,705.4,278.1z M705.9,278.1c0,0.9,0.1,1.3,0.3,1.6
		c0.1,0.3,0.4,0.4,0.7,0.4c0.3,0,0.6-0.1,0.7-0.4c0.1-0.3,0.3-0.9,0.3-1.6c0-0.9-0.1-1.3-0.3-1.6s-0.4-0.4-0.7-0.4
		c-0.3,0-0.6,0.1-0.7,0.3C705.9,276.8,705.9,277.2,705.9,278.1z"/>
	<path class="st27" d="M709.1,278.1c0-0.6,0.1-1,0.1-1.5c0.1-0.3,0.3-0.6,0.6-0.9c0.3-0.1,0.6-0.3,0.9-0.3c0.3,0,0.6,0.1,0.7,0.1
		c0.1,0.1,0.3,0.3,0.6,0.4c0.3,0.1,0.3,0.4,0.3,0.7c0.1,0.3,0.1,0.7,0.1,1.2c0,0.6-0.1,1-0.1,1.5c-0.1,0.3-0.3,0.6-0.6,0.9
		c-0.3,0.1-0.6,0.3-0.9,0.3c-0.6,0-0.9-0.1-1.2-0.6C709.3,279.7,709.1,279.1,709.1,278.1z M709.7,278.1c0,0.9,0.1,1.3,0.3,1.6
		c0.1,0.3,0.4,0.4,0.7,0.4c0.3,0,0.6-0.1,0.7-0.4c0.1-0.3,0.3-0.9,0.3-1.6c0-0.9-0.1-1.3-0.3-1.6c-0.1-0.3-0.4-0.4-0.7-0.4
		c-0.3,0-0.6,0.1-0.7,0.3C709.9,276.8,709.7,277.2,709.7,278.1z"/>
	<path class="st27" d="M713,280.5v-4.9h0.6v2.8l1.5-1.5h0.7l-1.3,1.3l1.6,2.3h-0.7l-1.2-1.9l-0.4,0.4v1.5H713L713,280.5z"/>
</g>
<g class="st15">
	<path class="st27" d="M699,255.7v-0.6c-0.3,0-0.6-0.1-0.7-0.1c-0.1-0.1-0.3-0.3-0.6-0.6c-0.1-0.3-0.3-0.6-0.3-0.7l0.6-0.1
		c0.1,0.3,0.1,0.6,0.3,0.7c0.1,0.3,0.3,0.3,0.6,0.3v-1.9c-0.3-0.1-0.6-0.1-0.7-0.3c-0.1-0.1-0.3-0.3-0.4-0.4s-0.1-0.4-0.1-0.7
		c0-0.4,0.1-0.7,0.4-1c0.1-0.1,0.6-0.3,0.9-0.3v-0.3h0.3v0.3c0.3,0,0.6,0.1,0.9,0.3c0.3,0.3,0.4,0.6,0.6,0.9l-0.6,0.1
		c0-0.3-0.1-0.4-0.3-0.6c-0.1-0.1-0.3-0.1-0.6-0.3v1.7c0.3,0.1,0.6,0.1,0.6,0.1c0.1,0.1,0.3,0.1,0.4,0.3c0.1,0.1,0.1,0.3,0.3,0.4
		s0.1,0.3,0.1,0.6c0,0.4-0.1,0.7-0.4,1c-0.3,0.3-0.6,0.4-1,0.4v0.6L699,255.7L699,255.7z M699,250.4c-0.3,0-0.4,0.1-0.6,0.3
		c-0.1,0.1-0.1,0.3-0.1,0.6c0,0.3,0.1,0.3,0.1,0.6c0.1,0.1,0.3,0.3,0.6,0.3V250.4z M699.4,254.6c0.3,0,0.4-0.1,0.6-0.3
		c0.1-0.1,0.3-0.4,0.3-0.7s-0.1-0.4-0.1-0.6c-0.1-0.1-0.3-0.3-0.7-0.3V254.6z"/>
	<path class="st27" d="M704.6,254.3v0.6h-3.2c0-0.1,0-0.3,0.1-0.4c0.1-0.3,0.3-0.4,0.4-0.7c0.1-0.3,0.4-0.4,0.7-0.7
		c0.6-0.4,0.9-0.7,1.2-1c0.1-0.3,0.3-0.6,0.3-0.7c0-0.1-0.1-0.4-0.3-0.6c-0.1-0.1-0.4-0.3-0.7-0.3c-0.3,0-0.6,0.1-0.7,0.3
		c-0.1,0.1-0.3,0.4-0.3,0.7l-0.6-0.1c0.1-0.4,0.1-0.9,0.6-1.2c0.3-0.3,0.7-0.3,1.2-0.3c0.6,0,0.9,0.1,1.2,0.4c0.3,0.3,0.4,0.6,0.4,1
		c0,0.1,0,0.4-0.1,0.6c-0.1,0.1-0.3,0.4-0.4,0.6c-0.1,0.1-0.6,0.6-0.9,0.9c-0.3,0.3-0.6,0.6-0.7,0.6c-0.1,0.1-0.1,0.3-0.3,0.3
		L704.6,254.3L704.6,254.3z"/>
	<path class="st27" d="M705.4,252.5c0-0.6,0.1-1,0.1-1.5c0.1-0.3,0.3-0.6,0.6-0.9c0.3-0.1,0.6-0.3,0.9-0.3c0.3,0,0.6,0.1,0.7,0.1
		s0.3,0.3,0.6,0.4c0.3,0.1,0.3,0.4,0.3,0.7c0.1,0.3,0.1,0.7,0.1,1.2c0,0.6-0.1,1-0.1,1.5c-0.1,0.3-0.3,0.6-0.6,0.9
		c-0.3,0.1-0.6,0.3-0.9,0.3c-0.6,0-0.9-0.1-1.2-0.6C705.5,254.1,705.4,253.4,705.4,252.5z M705.9,252.5c0,0.9,0.1,1.3,0.3,1.6
		c0.1,0.3,0.4,0.4,0.7,0.4c0.3,0,0.6-0.1,0.7-0.4c0.1-0.3,0.3-0.9,0.3-1.6c0-0.9-0.1-1.3-0.3-1.6c-0.1-0.3-0.4-0.4-0.7-0.4
		c-0.3,0-0.6,0.1-0.7,0.3C705.9,251.1,705.9,251.7,705.9,252.5z"/>
	<path class="st27" d="M709.1,252.5c0-0.6,0.1-1,0.1-1.5c0.1-0.3,0.3-0.6,0.6-0.9c0.3-0.1,0.6-0.3,0.9-0.3c0.3,0,0.6,0.1,0.7,0.1
		c0.1,0.1,0.3,0.3,0.6,0.4s0.3,0.4,0.3,0.7c0.1,0.3,0.1,0.7,0.1,1.2c0,0.6-0.1,1-0.1,1.5c-0.1,0.3-0.3,0.6-0.6,0.9
		c-0.3,0.1-0.6,0.3-0.9,0.3c-0.6,0-0.9-0.1-1.2-0.6C709.3,254.1,709.1,253.4,709.1,252.5z M709.7,252.5c0,0.9,0.1,1.3,0.3,1.6
		s0.4,0.4,0.7,0.4c0.3,0,0.6-0.1,0.7-0.4c0.1-0.3,0.3-0.9,0.3-1.6c0-0.9-0.1-1.3-0.3-1.6c-0.1-0.3-0.4-0.4-0.7-0.4
		c-0.3,0-0.6,0.1-0.7,0.3C709.9,251.1,709.7,251.7,709.7,252.5z"/>
	<path class="st27" d="M713,254.8v-4.9h0.6v2.8l1.5-1.5h0.7l-1.3,1.3l1.6,2.3h-0.7l-1.2-1.9l-0.4,0.4v1.5H713L713,254.8z"/>
</g>
<g class="st15">
	<path class="st27" d="M699,230v-0.6c-0.3,0-0.6-0.1-0.7-0.1c-0.1-0.1-0.3-0.3-0.6-0.6c-0.1-0.3-0.3-0.6-0.3-0.7l0.6-0.1
		c0.1,0.3,0.1,0.6,0.3,0.7c0.1,0.3,0.3,0.3,0.6,0.3V227c-0.3-0.1-0.6-0.1-0.7-0.3c-0.1-0.1-0.3-0.3-0.4-0.4s-0.1-0.4-0.1-0.7
		c0-0.4,0.1-0.7,0.4-1c0.1-0.1,0.6-0.3,0.9-0.3v-0.3h0.3v0.3c0.3,0,0.6,0.1,0.9,0.3c0.3,0.3,0.4,0.6,0.6,0.9l-0.6,0.1
		c0-0.3-0.1-0.4-0.3-0.6c-0.1-0.1-0.3-0.1-0.6-0.3v1.7c0.3,0.1,0.6,0.1,0.6,0.1c0.1,0.1,0.3,0.1,0.4,0.3c0.1,0.1,0.1,0.3,0.3,0.4
		c0.1,0.1,0.1,0.3,0.1,0.6c0,0.4-0.1,0.7-0.4,1c-0.3,0.3-0.6,0.4-1,0.4v0.6H699V230z M699,224.8c-0.3,0-0.4,0.1-0.6,0.3
		c-0.1,0.1-0.1,0.3-0.1,0.6c0,0.1,0.1,0.3,0.1,0.6c0.1,0.1,0.3,0.3,0.6,0.3V224.8z M699.4,228.9c0.3,0,0.4-0.1,0.6-0.3
		c0.1-0.1,0.3-0.4,0.3-0.7s-0.1-0.4-0.1-0.6c-0.1-0.1-0.3-0.3-0.7-0.3V228.9z"/>
	<path class="st27" d="M701.4,228l0.6-0.1c0.1,0.3,0.1,0.6,0.3,0.7c0.1,0.1,0.3,0.3,0.6,0.3s0.6-0.1,0.7-0.3
		c0.1-0.1,0.3-0.4,0.3-0.7s-0.1-0.6-0.3-0.7c-0.1-0.1-0.4-0.3-0.7-0.3c-0.1,0-0.3,0-0.4,0.1l0.1-0.6h0.1c0.3,0,0.6-0.1,0.7-0.1
		s0.3-0.3,0.3-0.6c0-0.3-0.1-0.4-0.3-0.6c-0.1-0.1-0.3-0.3-0.6-0.3s-0.4,0.1-0.6,0.3s-0.3,0.3-0.3,0.7l-0.6-0.1
		c0.1-0.4,0.3-0.7,0.6-0.9c0.3-0.3,0.6-0.3,1-0.3c0.3,0,0.6,0.1,0.7,0.1c0.3,0.1,0.4,0.3,0.6,0.6c0.1,0.3,0.1,0.4,0.1,0.7
		c0,0.3-0.1,0.4-0.1,0.6c-0.1,0.1-0.3,0.3-0.6,0.4c0.3,0.1,0.6,0.1,0.7,0.4c0.1,0.3,0.3,0.6,0.3,0.7c0,0.4-0.1,0.7-0.6,1.2
		c-0.4,0.4-0.7,0.4-1.2,0.4s-0.7-0.1-1.2-0.4C701.6,228.7,701.4,228.4,701.4,228z"/>
	<path class="st27" d="M705.4,226.9c0-0.6,0.1-1,0.1-1.5c0.1-0.3,0.3-0.6,0.6-0.9c0.3-0.1,0.6-0.3,0.9-0.3c0.3,0,0.6,0.1,0.7,0.1
		s0.3,0.3,0.6,0.4c0.1,0.1,0.3,0.4,0.3,0.7c0.1,0.3,0.1,0.7,0.1,1.2c0,0.6-0.1,1-0.1,1.5c-0.1,0.3-0.3,0.6-0.6,0.9
		c-0.3,0.1-0.6,0.3-0.9,0.3c-0.6,0-0.9-0.1-1.2-0.6C705.5,228.4,705.4,227.9,705.4,226.9z M705.9,226.9c0,0.9,0.1,1.3,0.3,1.6
		c0.1,0.3,0.4,0.4,0.7,0.4c0.3,0,0.6-0.1,0.7-0.4c0.1-0.3,0.3-0.9,0.3-1.6c0-0.9-0.1-1.3-0.3-1.6c-0.1-0.3-0.4-0.4-0.7-0.4
		c-0.3,0-0.6,0.1-0.7,0.3C705.9,225.5,705.9,226.1,705.9,226.9z"/>
	<path class="st27" d="M709.1,226.9c0-0.6,0.1-1,0.1-1.5c0.1-0.3,0.3-0.6,0.6-0.9c0.3-0.1,0.6-0.3,0.9-0.3c0.3,0,0.6,0.1,0.7,0.1
		c0.1,0.1,0.3,0.3,0.6,0.4c0.1,0.1,0.3,0.4,0.3,0.7c0.1,0.3,0.1,0.7,0.1,1.2c0,0.6-0.1,1-0.1,1.5c-0.1,0.3-0.3,0.6-0.6,0.9
		c-0.3,0.1-0.6,0.3-0.9,0.3c-0.6,0-0.9-0.1-1.2-0.6C709.3,228.4,709.1,227.9,709.1,226.9z M709.7,226.9c0,0.9,0.1,1.3,0.3,1.6
		s0.4,0.4,0.7,0.4c0.3,0,0.6-0.1,0.7-0.4c0.1-0.3,0.3-0.9,0.3-1.6c0-0.9-0.1-1.3-0.3-1.6c-0.1-0.3-0.4-0.4-0.7-0.4
		c-0.3,0-0.6,0.1-0.7,0.3C709.9,225.5,709.7,226.1,709.7,226.9z"/>
	<path class="st27" d="M713,229.3v-4.9h0.6v2.8l1.5-1.5h0.7l-1.3,1.3l1.6,2.3h-0.7l-1.2-1.9l-0.4,0.4v1.5H713L713,229.3z"/>
</g>
<g class="st15">
	<path class="st27" d="M699,204.5v-0.6c-0.3,0-0.6-0.1-0.7-0.1c-0.1-0.1-0.3-0.3-0.6-0.6c-0.1-0.3-0.3-0.6-0.3-0.7l0.6-0.1
		c0.1,0.3,0.1,0.6,0.3,0.7c0.1,0.3,0.3,0.3,0.6,0.3v-1.9c-0.3-0.1-0.6-0.1-0.7-0.3c-0.1-0.1-0.3-0.3-0.4-0.4
		c-0.1-0.1-0.1-0.4-0.1-0.7c0-0.4,0.1-0.7,0.4-1c0.1-0.1,0.6-0.3,0.9-0.3v-0.3h0.3v0.3c0.3,0,0.6,0.1,0.9,0.3
		c0.3,0.3,0.4,0.6,0.6,0.9L700,200c0-0.3-0.1-0.4-0.3-0.6c-0.1-0.1-0.3-0.1-0.6-0.3v1.7c0.3,0.1,0.6,0.1,0.6,0.1
		c0.1,0.1,0.3,0.1,0.4,0.3c0.1,0.1,0.1,0.3,0.3,0.4c0.1,0.1,0.1,0.3,0.1,0.6c0,0.4-0.1,0.7-0.4,1c-0.3,0.3-0.6,0.4-1,0.4v0.7H699
		L699,204.5z M699,199.1c-0.3,0-0.4,0.1-0.6,0.3c-0.1,0.1-0.1,0.3-0.1,0.6c0,0.3,0.1,0.3,0.1,0.6c0.1,0.1,0.3,0.3,0.6,0.3V199.1z
		 M699.4,203.4c0.3,0,0.4-0.1,0.6-0.3c0.1-0.1,0.3-0.4,0.3-0.7c0-0.3-0.1-0.4-0.1-0.6c-0.1-0.1-0.3-0.3-0.7-0.3V203.4z"/>
	<path class="st27" d="M703.5,203.8v-1.2h-2.2V202l2.3-3.3h0.6v3.2h0.7v0.6h-0.7v1.2h-0.7V203.8z M703.5,202v-2.2l-1.6,2.2H703.5z"
		/>
	<path class="st27" d="M705.4,201.3c0-0.6,0.1-1,0.1-1.5c0.1-0.3,0.3-0.6,0.6-0.9c0.3-0.1,0.6-0.3,0.9-0.3c0.3,0,0.6,0.1,0.7,0.1
		c0.1,0.1,0.3,0.3,0.6,0.4c0.1,0.1,0.3,0.4,0.3,0.7c0.1,0.3,0.1,0.7,0.1,1.2c0,0.6-0.1,1-0.1,1.5c-0.1,0.3-0.3,0.6-0.6,0.9
		c-0.3,0.1-0.6,0.3-0.9,0.3c-0.6,0-0.9-0.1-1.2-0.6C705.5,202.9,705.4,202.2,705.4,201.3z M705.9,201.3c0,0.9,0.1,1.3,0.3,1.6
		c0.1,0.3,0.4,0.4,0.7,0.4c0.3,0,0.6-0.1,0.7-0.4c0.1-0.3,0.3-0.9,0.3-1.6c0-0.9-0.1-1.3-0.3-1.6c-0.1-0.3-0.4-0.4-0.7-0.4
		c-0.3,0-0.6,0.1-0.7,0.3C705.9,200,705.9,200.6,705.9,201.3z"/>
	<path class="st27" d="M709.1,201.3c0-0.6,0.1-1,0.1-1.5c0.1-0.3,0.3-0.6,0.6-0.9c0.3-0.1,0.6-0.3,0.9-0.3c0.3,0,0.6,0.1,0.7,0.1
		c0.1,0.1,0.3,0.3,0.6,0.4c0.1,0.1,0.3,0.4,0.3,0.7c0.1,0.3,0.1,0.7,0.1,1.2c0,0.6-0.1,1-0.1,1.5c-0.1,0.3-0.3,0.6-0.6,0.9
		c-0.3,0.1-0.6,0.3-0.9,0.3c-0.6,0-0.9-0.1-1.2-0.6C709.3,202.9,709.1,202.2,709.1,201.3z M709.7,201.3c0,0.9,0.1,1.3,0.3,1.6
		c0.1,0.3,0.4,0.4,0.7,0.4c0.3,0,0.6-0.1,0.7-0.4c0.1-0.3,0.3-0.9,0.3-1.6c0-0.9-0.1-1.3-0.3-1.6c-0.1-0.3-0.4-0.4-0.7-0.4
		c-0.3,0-0.6,0.1-0.7,0.3C709.9,200,709.7,200.6,709.7,201.3z"/>
	<path class="st27" d="M713,203.8v-4.9h0.6v2.8l1.5-1.5h0.7l-1.3,1.3l1.6,2.3h-0.7l-1.2-1.9l-0.4,0.4v1.5H713L713,203.8z"/>
</g>
<rect x="719.3" y="285.9" class="st25" width="4.6" height="4.6"/>
<rect x="749.2" y="262.8" class="st25" width="4.6" height="4.6"/>
<rect x="781.4" y="276.6" class="st25" width="4.6" height="4.6"/>
<rect x="811.4" y="241.4" class="st25" width="4.6" height="4.6"/>
<rect x="842.2" y="255.1" class="st25" width="4.6" height="4.6"/>
<rect x="871.3" y="238.2" class="st25" width="4.6" height="4.6"/>
<rect x="898.1" y="209" class="st25" width="4.6" height="4.6"/>
<line class="st28" x1="721.5" y1="288.1" x2="751.5" y2="265.1"/>
<line class="st28" x1="783.8" y1="278.9" x2="751.5" y2="265.1"/>
<line class="st28" x1="813.7" y1="243.7" x2="783.8" y2="278.9"/>
<line class="st28" x1="813.7" y1="243.7" x2="844.5" y2="257.3"/>
<line class="st28" x1="844.5" y1="257.3" x2="873.6" y2="240.6"/>
<line class="st28" x1="873.6" y1="240.6" x2="900.5" y2="211.3"/>
<rect x="720.6" y="262.1" class="st23" width="4.6" height="4.6"/>
<rect x="750.6" y="277.3" class="st23" width="4.6" height="4.6"/>
<rect x="782.8" y="252.8" class="st23" width="4.6" height="4.6"/>
<rect x="812.7" y="263.6" class="st23" width="4.6" height="4.6"/>
<rect x="843.5" y="269.6" class="st23" width="4.6" height="4.6"/>
<rect x="872.6" y="214.4" class="st23" width="4.6" height="4.6"/>
<rect x="899.6" y="238.9" class="st23" width="4.6" height="4.6"/>
<line class="st29" x1="722.9" y1="264.3" x2="752.9" y2="279.7"/>
<line class="st29" x1="785.1" y1="255.1" x2="752.9" y2="279.7"/>
<line class="st29" x1="815" y1="265.9" x2="785.1" y2="255.1"/>
<line class="st29" x1="815" y1="265.9" x2="845.8" y2="272"/>
<line class="st29" x1="845.8" y1="272" x2="874.9" y2="216.7"/>
<line class="st29" x1="874.9" y1="216.7" x2="901.8" y2="241.4"/>
<rect x="721" y="209.7" class="st21" width="4.6" height="4.6"/>
<rect x="751.1" y="225.1" class="st21" width="4.6" height="4.6"/>
<rect x="783.3" y="215.8" class="st21" width="4.6" height="4.6"/>
<rect x="813.1" y="203.6" class="st21" width="4.6" height="4.6"/>
<rect x="843.9" y="217.4" class="st21" width="4.6" height="4.6"/>
<rect x="873" y="200.6" class="st21" width="4.6" height="4.6"/>
<rect x="898.3" y="202" class="st21" width="4.6" height="4.6"/>
<line class="st30" x1="723.3" y1="212.1" x2="753.2" y2="227.4"/>
<line class="st30" x1="785.4" y1="218.1" x2="753.2" y2="227.4"/>
<line class="st30" x1="815.5" y1="206" x2="785.4" y2="218.1"/>
<line class="st30" x1="815.5" y1="206" x2="846.1" y2="219.7"/>
<line class="st30" x1="846.1" y1="219.7" x2="875.4" y2="202.9"/>
<line class="st30" x1="875.4" y1="202.9" x2="900.6" y2="204.4"/>
<path class="st26" d="M1209.6,325.1H967.5c-1.7,0-3.2-1.5-3.2-3.2V142.4c0-1.7,1.5-3.2,3.2-3.2h242.1c1.7,0,3.2,1.5,3.2,3.2v179.4
	C1212.8,323.6,1211.3,325.1,1209.6,325.1z"/>
<path class="st6" d="M1204.7,318.7H972.4c-0.9,0-1.6-0.7-1.6-1.6V155.5c0-0.9,0.7-1.6,1.6-1.6h232.4c0.9,0,1.6,0.7,1.6,1.6v161.6
	C1206.3,317.9,1205.5,318.7,1204.7,318.7z"/>
<g>
	<g>
		<path class="st7" d="M1207.8,153v-7.5c0-0.3-0.3-0.6-0.6-0.6h-236c-0.3,0-0.6,0.3-0.6,0.6v7.5H1207.8z"/>
	</g>
	<g>
		<polyline class="st8" points="975.9,149.1 976.8,147.2 975.9,146.6 973.6,147.9 		"/>
		<polyline class="st9" points="975.9,149.2 975.9,146.6 978.1,147.9 		"/>
		<path class="st10" d="M977.8,149.1c0,1-0.9,1.9-1.9,1.9s-1.9-0.9-1.9-1.9c0-1,0.9-1.9,1.9-1.9S977.8,148.1,977.8,149.1z"/>
		<path class="st11" d="M977.2,149.1c0,0.7-0.6,1.3-1.3,1.3c-0.7,0-1.3-0.6-1.3-1.3c0-0.7,0.6-1.3,1.3-1.3S977.2,148.4,977.2,149.1z
			"/>
		<ellipse class="st12" cx="975.9" cy="149.1" rx="0.7" ry="0.7"/>
		<polygon class="st11" points="975.9,149.1 977.1,149.8 975.9,151.7 973.6,150.5 973.6,147.9 		"/>
		<polygon class="st13" points="975.9,149.1 975.9,151.7 978.1,150.5 978.1,147.9 		"/>
	</g>
	<path class="st14" d="M1012.9,151.7h-30.8c-0.3,0-0.6-0.3-0.6-0.6v-4.4c0-0.3,0.3-0.6,0.6-0.6h30.9c0.3,0,0.6,0.3,0.6,0.6v4.4
		C1013.5,151.4,1013.2,151.7,1012.9,151.7z"/>
	<g class="st15">
		<path class="st11" d="M983.6,150v-1.9h0.3v0.9l0.9-0.9h0.3l-0.7,0.7l0.9,1.2h-0.3l-0.7-0.9l-0.3,0.3v0.6
			C983.9,150,983.6,150,983.6,150z"/>
		<path class="st11" d="M985.3,150v-1.9h0.7c0.1,0,0.1,0,0.3,0c0.1,0,0.1,0,0.3,0.1l0.1,0.1c0,0.1,0,0.1,0,0.3c0,0.1,0,0.3-0.1,0.4
			c-0.1,0.1-0.3,0.1-0.6,0.1h-0.4v0.7C985.6,150,985.3,150,985.3,150z M985.6,149h0.4c0.1,0,0.3,0,0.3-0.1c0.1,0,0.1-0.1,0.1-0.3
			s0-0.1,0-0.1l-0.1-0.1c0,0-0.1,0-0.3,0h-0.4V149z"/>
		<path class="st11" d="M987.2,150v-1.9h0.3v1.9H987.2z"/>
		<path class="st11" d="M988.5,150v-1.9h0.6c0.1,0,0.3,0,0.3,0c0.1,0,0.1,0.1,0.3,0.1c0.1,0.1,0.1,0.1,0.1,0.3s0.1,0.3,0.1,0.4
			s0,0.3,0,0.4s-0.1,0.1-0.1,0.3c0,0.1-0.1,0.1-0.1,0.1l-0.1,0.1c-0.1,0-0.1,0-0.3,0C989.2,150,988.5,150,988.5,150z M988.8,149.7
			h0.4c0.1,0,0.1,0,0.3,0c0.1,0,0.1,0,0.1-0.1c0,0,0.1-0.1,0.1-0.3c0-0.1,0-0.1,0-0.3s0-0.3-0.1-0.4c0-0.1-0.1-0.1-0.3-0.1
			c0,0-0.1,0-0.3,0h-0.4L988.8,149.7L988.8,149.7z"/>
		<path class="st11" d="M991.3,149.8c-0.1,0.1-0.1,0.1-0.3,0.1c-0.1,0-0.1,0-0.3,0c-0.1,0-0.3,0-0.3-0.1c-0.1-0.1-0.1-0.1-0.1-0.3
			v-0.1l0.1-0.1c0,0,0.1,0,0.1-0.1h0.1c0.1,0,0.3,0,0.4-0.1l0,0c0-0.1,0-0.1,0-0.1s-0.1-0.1-0.3-0.1c-0.1,0-0.1,0-0.3,0l-0.1,0.1
			h-0.1c0-0.1,0-0.1,0.1-0.3l0.1-0.1c0.1,0,0.1,0,0.3,0c0.1,0,0.1,0,0.3,0c0.1,0,0.1,0,0.1,0.1c0,0,0,0.1,0.1,0.1v0.1v0.6
			c0,0.1,0,0.3,0,0.4v0.1h-0.3C991.3,149.8,991.3,149.8,991.3,149.8z M991.3,149.2c-0.1,0-0.1,0-0.4,0.1c-0.1,0-0.1,0-0.1,0
			s-0.1,0-0.1,0.1v0.1c0,0,0,0.1,0.1,0.1c0.1,0,0.1,0,0.1,0c0.1,0,0.1,0,0.3,0c0.1,0,0.1-0.1,0.1-0.1
			C991.3,149.5,991.3,149.4,991.3,149.2L991.3,149.2L991.3,149.2z"/>
		<path class="st11" d="M991.7,149.5h0.1c0,0.1,0,0.1,0.1,0.1c0,0,0.1,0.1,0.3,0.1c0.1,0,0.1,0,0.3,0l0.1-0.1c0,0,0-0.1-0.1-0.1
			c0,0-0.1,0-0.3-0.1c-0.1,0-0.3-0.1-0.3-0.1l-0.1-0.1V149v-0.1c0,0,0-0.1,0.1-0.1c0,0,0.1,0,0.1-0.1c0-0.1,0.1,0,0.1,0
			c0.1,0,0.1,0,0.3,0c0.1,0,0.1,0.1,0.1,0.1s0,0.1,0.1,0.1h-0.1c0-0.1,0-0.1-0.1-0.1h-0.1c-0.1,0-0.1,0-0.1,0l-0.1,0.1
			c0,0,0,0,0,0.1c0,0,0,0,0.1,0h0.1c0.1,0,0.3,0.1,0.3,0.1l0.1,0.1v0.1c0,0,0,0.1-0.1,0.1c0,0.1-0.1,0.1-0.1,0.1c-0.1,0-0.1,0-0.3,0
			c-0.1,0-0.3,0-0.4-0.1C991.7,149.8,991.7,149.7,991.7,149.5z"/>
		<path class="st11" d="M993,150v-1.9h0.3v0.7c0.1-0.1,0.3-0.1,0.4-0.1s0.1,0,0.3,0s0.1,0.1,0.1,0.1c0,0.1,0,0.1,0,0.3v0.9h-0.3
			v-0.9c0-0.1,0-0.1-0.1-0.3l-0.1-0.1c-0.1,0-0.1,0-0.1,0l-0.1,0.1c0,0,0,0.1,0,0.3v0.7L993,150L993,150z"/>
		<path class="st11" d="M994.8,150h-0.1v-1.9h0.3v0.7c0.1-0.1,0.1-0.1,0.4-0.1c0.1,0,0.1,0,0.3,0c0.1,0,0.1,0.1,0.1,0.1l0.1,0.1
			c0,0.1,0,0.1,0,0.3c0,0.3,0,0.4-0.1,0.6s-0.3,0.1-0.4,0.1s-0.3,0-0.4-0.1L994.8,150L994.8,150z M994.8,149.2c0,0.1,0,0.3,0,0.3
			c0.1,0.1,0.1,0.1,0.3,0.1s0.1,0,0.3-0.1c0.1-0.1,0.1-0.1,0.1-0.4c0-0.1,0-0.3-0.1-0.4c-0.1-0.1-0.1-0.1-0.3-0.1
			c-0.1,0-0.1,0-0.3,0.1C994.8,149,994.8,149.1,994.8,149.2z"/>
		<path class="st11" d="M995.9,149.2c0-0.3,0.1-0.4,0.1-0.6c0.1-0.1,0.3-0.1,0.4-0.1s0.3,0,0.4,0.1c0.1,0.1,0.1,0.3,0.1,0.6
			c0,0.1,0,0.3-0.1,0.4c0,0.1-0.1,0.1-0.3,0.3c-0.1,0-0.1,0.1-0.3,0.1c-0.1,0-0.3,0-0.4-0.1C995.9,149.7,995.9,149.5,995.9,149.2z
			 M996.1,149.2c0,0.1,0,0.3,0.1,0.4c0.1,0.1,0.1,0.1,0.3,0.1c0.1,0,0.1,0,0.3-0.1c0.1-0.1,0.1-0.1,0.1-0.4c0-0.1,0-0.3-0.1-0.4
			c-0.1-0.1-0.1-0.1-0.3-0.1c-0.1,0-0.1,0-0.3,0.1C996.2,149,996.1,149.1,996.1,149.2z"/>
		<path class="st11" d="M998.2,149.8c-0.1,0.1-0.1,0.1-0.3,0.1c-0.1,0-0.1,0-0.3,0c-0.1,0-0.3,0-0.3-0.1c-0.1-0.1-0.1-0.1-0.1-0.3
			v-0.1l0.1-0.1c0,0,0.1,0,0.1-0.1h0.1c0.1,0,0.3,0,0.4-0.1l0,0c0-0.1,0-0.1,0-0.1s-0.1-0.1-0.3-0.1c-0.1,0-0.1,0-0.3,0l-0.1,0.1
			h-0.1c0-0.1,0-0.1,0.1-0.3l0.1-0.1c0.1,0,0.1,0,0.3,0c0.1,0,0.1,0,0.3,0c0.1,0,0.1,0,0.1,0.1c0,0,0,0.1,0.1,0.1v0.1v0.6
			c0,0.1,0,0.3,0,0.4v0.1h-0.3C998.2,149.8,998.2,149.8,998.2,149.8z M998.2,149.2c-0.1,0-0.1,0-0.4,0.1c-0.1,0-0.1,0-0.1,0
			s-0.1,0-0.1,0.1v0.1c0,0,0,0.1,0.1,0.1s0.1,0,0.1,0c0.1,0,0.1,0,0.3,0c0.1,0,0.1-0.1,0.1-0.1C998.2,149.5,998.2,149.4,998.2,149.2
			L998.2,149.2L998.2,149.2z"/>
		<path class="st11" d="M998.8,150v-1.3h0.1v0.1c0-0.1,0.1-0.1,0.1-0.1h0.1c0.1,0,0.1,0,0.3,0.1l-0.1,0.1h-0.1h-0.1l-0.1,0.1
			c0,0.1,0,0.1,0,0.3v0.7L998.8,150L998.8,150z"/>
		<path class="st11" d="M1000.6,150v-0.1c-0.1,0.1-0.1,0.1-0.4,0.1c-0.1,0-0.1,0-0.3-0.1c-0.1,0-0.1-0.1-0.1-0.3
			c0-0.1-0.1-0.3-0.1-0.4c0-0.1,0-0.3,0.1-0.4c0-0.1,0.1-0.1,0.1-0.3c0.1,0,0.1-0.1,0.3-0.1c0.1,0,0.1,0,0.1,0l0.1,0.1v-0.7h0.3v1.9
			L1000.6,150L1000.6,150z M999.8,149.2c0,0.1,0,0.3,0.1,0.4c0.1,0.1,0.1,0.1,0.3,0.1c0.1,0,0.1,0,0.3-0.1c0.1-0.1,0.1-0.1,0.1-0.4
			c0-0.1,0-0.3-0.1-0.4c-0.1-0.1-0.1-0.1-0.3-0.1c-0.1,0-0.1,0-0.3,0.1C999.8,149,999.8,149.1,999.8,149.2z"/>
	</g>
	<g>
		<path class="st16" d="M1019,151.7h-3.9c-0.3,0-0.6-0.3-0.6-0.6v-4.4c0-0.3,0.3-0.6,0.6-0.6h3.9c0.3,0,0.6,0.3,0.6,0.6v4.4
			C1019.6,151.6,1019.3,151.7,1019,151.7z"/>
	</g>
	<polygon class="st17" points="1018.4,149 1017.1,149 1017.1,147.6 1016.9,147.6 1016.9,149 1015.6,149 1015.6,149.2 1016.9,149.2 
		1016.9,150.4 1017.1,150.4 1017.1,149.2 1018.4,149.2 	"/>
	<g>
		<path class="st16" d="M1106.7,151.7h-22.3c-0.3,0-0.6-0.3-0.6-0.6v-4.4c0-0.3,0.3-0.6,0.6-0.6h22.3c0.3,0,0.6,0.3,0.6,0.6v4.4
			C1107.2,151.4,1107,151.7,1106.7,151.7z"/>
	</g>
	<polygon class="st17" points="1088.2,149 1087,149 1087,147.6 1086.7,147.6 1086.7,149 1085.6,149 1085.6,149.2 1086.7,149.2 
		1086.7,150.4 1087,150.4 1087,149.2 1088.2,149.2 	"/>
	<g>
		<g class="st15">
			<path class="st11" d="M1090.5,150l0.7-1.9h0.3l0.7,1.9h-0.3l-0.1-0.6h-0.9l-0.1,0.6H1090.5z M1090.9,149.1h0.6l-0.1-0.6
				c0-0.1-0.1-0.3-0.1-0.4c0,0.1,0,0.3-0.1,0.3L1090.9,149.1z"/>
			<path class="st11" d="M1093.3,150v-0.1c-0.1,0.1-0.1,0.1-0.4,0.1c-0.1,0-0.1,0-0.3-0.1c-0.1,0-0.1-0.1-0.1-0.3
				c0-0.1-0.1-0.3-0.1-0.4c0-0.1,0-0.3,0.1-0.4c0-0.1,0.1-0.1,0.1-0.3c0.1,0,0.1-0.1,0.3-0.1c0.1,0,0.1,0,0.1,0l0.1,0.1v-0.7h0.3
				v1.9L1093.3,150L1093.3,150z M1092.5,149.2c0,0.1,0,0.3,0.1,0.4c0.1,0.1,0.1,0.1,0.3,0.1c0.1,0,0.1,0,0.3-0.1
				c0.1-0.1,0.1-0.1,0.1-0.4c0-0.1,0-0.3-0.1-0.4c-0.1-0.1-0.1-0.1-0.3-0.1c-0.1,0-0.1,0-0.3,0.1
				C1092.5,149,1092.5,149.1,1092.5,149.2z"/>
			<path class="st11" d="M1094.7,150v-0.1c-0.1,0.1-0.1,0.1-0.4,0.1c-0.1,0-0.1,0-0.3-0.1c-0.1,0-0.1-0.1-0.1-0.3
				c0-0.1-0.1-0.3-0.1-0.4c0-0.1,0-0.3,0.1-0.4c0-0.1,0.1-0.1,0.1-0.3c0.1,0,0.1-0.1,0.3-0.1s0.1,0,0.1,0l0.1,0.1v-0.7h0.3v1.9
				L1094.7,150L1094.7,150z M1094,149.2c0,0.1,0,0.3,0.1,0.4c0.1,0.1,0.1,0.1,0.3,0.1s0.1,0,0.3-0.1c0.1-0.1,0.1-0.1,0.1-0.4
				c0-0.1,0-0.3-0.1-0.4c-0.1-0.1-0.1-0.1-0.3-0.1c-0.1,0-0.1,0-0.3,0.1C1094,149,1094,149.1,1094,149.2z"/>
			<path class="st11" d="M1096.9,149.8c-0.1,0.1-0.1,0.1-0.3,0.1c-0.1,0-0.1,0-0.3,0s-0.3,0-0.3-0.1c-0.1-0.1-0.1-0.1-0.1-0.3v-0.1
				l0.1-0.1c0,0,0.1,0,0.1-0.1h0.1c0.1,0,0.3,0,0.4-0.1l0,0c0-0.1,0-0.1,0-0.1s-0.1-0.1-0.3-0.1c-0.1,0-0.1,0-0.3,0l-0.1,0.1h-0.1
				c0-0.1,0-0.1,0.1-0.3l0.1-0.1c0.1,0,0.1,0,0.3,0c0.1,0,0.1,0,0.3,0s0.1,0,0.1,0.1c0,0,0,0.1,0.1,0.1v0.1v0.6c0,0.1,0,0.3,0,0.4
				v0.1h-0.3C1096.9,149.8,1096.9,149.8,1096.9,149.8z M1096.7,149.2c-0.1,0-0.1,0-0.4,0.1c-0.1,0-0.1,0-0.1,0s-0.1,0-0.1,0.1v0.1
				c0,0,0,0.1,0.1,0.1s0.1,0,0.1,0c0.1,0,0.1,0,0.3,0s0.1-0.1,0.1-0.1C1096.9,149.5,1096.9,149.4,1096.7,149.2L1096.7,149.2
				L1096.7,149.2z"/>
			<path class="st11" d="M1098.9,149.4h0.1c0,0.1-0.1,0.3-0.1,0.4c-0.1,0.1-0.1,0.1-0.4,0.1c-0.1,0-0.3,0-0.4-0.1
				c-0.1-0.1-0.1-0.3-0.1-0.6c0-0.1,0-0.3,0.1-0.4c0-0.1,0.1-0.1,0.1-0.3c0.1,0,0.1-0.1,0.3-0.1s0.3,0,0.4,0.1s0.1,0.1,0.1,0.3h-0.1
				c0-0.1,0-0.1-0.1-0.1l-0.1-0.1c-0.1,0-0.1,0-0.3,0.1c-0.1,0.1-0.1,0.1-0.1,0.4c0,0.3,0,0.3,0.1,0.4c0.1,0.1,0.1,0.1,0.3,0.1
				c0.1,0,0.1,0,0.1-0.1C1098.9,149.7,1098.9,149.5,1098.9,149.4z"/>
			<path class="st11" d="M1099.3,150v-1.9h0.3v0.7c0.1-0.1,0.3-0.1,0.4-0.1s0.1,0,0.3,0c0.1,0,0.1,0.1,0.1,0.1c0,0.1,0,0.1,0,0.3
				v0.9h-0.3v-0.9c0-0.1,0-0.1-0.1-0.3l-0.1-0.1c-0.1,0-0.1,0-0.1,0l-0.1,0.1c0,0,0,0.1,0,0.3v0.7L1099.3,150L1099.3,150z"/>
			<path class="st11" d="M1101.7,149.8c-0.1,0.1-0.1,0.1-0.3,0.1s-0.1,0-0.3,0c-0.1,0-0.3,0-0.3-0.1c-0.1-0.1-0.1-0.1-0.1-0.3v-0.1
				l0.1-0.1c0,0,0.1,0,0.1-0.1h0.1c0.1,0,0.3,0,0.4-0.1l0,0c0-0.1,0-0.1,0-0.1s-0.1-0.1-0.3-0.1c-0.1,0-0.1,0-0.3,0l-0.1,0.1h-0.1
				c0-0.1,0-0.1,0.1-0.3l0.1-0.1c0.1,0,0.1,0,0.3,0c0.1,0,0.1,0,0.3,0c0.1,0,0.1,0,0.1,0.1c0,0,0,0.1,0.1,0.1v0.1v0.6
				c0,0.1,0,0.3,0,0.4v0.1h-0.3C1101.7,149.8,1101.7,149.8,1101.7,149.8z M1101.7,149.2c-0.1,0-0.1,0-0.4,0.1c-0.1,0-0.1,0-0.1,0
				s-0.1,0-0.1,0.1v0.1c0,0,0,0.1,0.1,0.1s0.1,0,0.1,0c0.1,0,0.1,0,0.3,0c0.1,0,0.1-0.1,0.1-0.1
				C1101.7,149.5,1101.7,149.4,1101.7,149.2L1101.7,149.2L1101.7,149.2z"/>
			<path class="st11" d="M1102.2,150v-1.3h0.1v0.1c0-0.1,0.1-0.1,0.1-0.1h0.1c0.1,0,0.1,0,0.3,0.1l-0.1,0.1h-0.1h-0.1l-0.1,0.1
				c0,0.1,0,0.1,0,0.3v0.7L1102.2,150L1102.2,150z"/>
			<path class="st11" d="M1103.5,149.7v0.1h-0.1c-0.1,0-0.1,0-0.1,0s-0.1,0-0.1-0.1c0,0,0-0.1,0-0.3v-0.9h-0.1v-0.1h0.1v-0.3
				l0.3-0.1v0.4h0.3v0.1h-0.3v0.9v0.1l0,0C1103.4,149.8,1103.4,149.8,1103.5,149.7C1103.5,149.8,1103.5,149.7,1103.5,149.7z"/>
		</g>
	</g>
	<g>
		<path class="st14" d="M1204.5,151.7h-9.3c-0.3,0-0.6-0.3-0.6-0.6v-4.4c0-0.3,0.3-0.6,0.6-0.6h9.3c0.3,0,0.6,0.3,0.6,0.6v4.4
			C1204.9,151.4,1204.8,151.7,1204.5,151.7z"/>
	</g>
	<rect x="1196.5" y="149.8" class="st18" width="0.6" height="0.6"/>
	<rect x="1196.5" y="148.8" class="st18" width="0.6" height="0.6"/>
	<rect x="1196.5" y="147.6" class="st18" width="0.6" height="0.6"/>
	<g>
		<path class="st19" d="M1203.1,148.4c-0.1-0.1-0.1-0.1-0.3,0l-1,1l-1-1c-0.1-0.1-0.1-0.1-0.3,0c-0.1,0.1-0.1,0.1,0,0.3l1.2,1.2l0,0
			h0.1h0.1l0,0l1.2-1.2C1203.2,148.7,1203.2,148.5,1203.1,148.4z"/>
	</g>
</g>
<rect x="568.7" y="475.8" class="st31" width="452.6" height="7.7"/>
<rect x="591.9" y="483.6" class="st32" width="25.8" height="193.8"/>
<rect x="646.3" y="483.6" class="st32" width="16.8" height="153.9"/>
<rect x="965.7" y="483.6" class="st32" width="25.8" height="193.8"/>
<rect x="920.5" y="483.6" class="st32" width="16.8" height="153.9"/>
<polygon class="st33" points="568.7,475.8 637.2,437 954,437 1021.3,475.8 "/>
<polygon class="st11" points="643.3,466.1 662.6,451.8 683.3,451.8 680.7,455.8 684.6,455.8 669.1,466.1 "/>
<path class="st2" d="M778.2,398.2l12.9,3.9h22l5.2-3.9l-3.9-20.7l9-6.5c0,0,2.6,5.2,5.2,2.6c0,0,10.3-14.2,0-15.5h-59.5
	c0,0-3.9-1.3-3.9,7.7c0,0,1.3,9,7.7,9h7.7l5.2,5.2l-5.2,1.3L778.2,398.2z"/>
<path class="st11" d="M779.5,390.5l-10.3,10.3l11.6,11.6h36.3l7.7-11.6l-6.5-10.3C818.2,390.5,793.7,394.4,779.5,390.5z"/>
<path class="st4" d="M770.5,398.2l-22,3.9c0,0-10.3,5.2-18.1,12.9c0,0-32.3,31-38.7,36.3c0,0-6.5,7.7-2.6,14.2c0,0,2.6,7.7,15.5,2.6
	l31-11.6h124.2c0,0,33.7,16.8,42.6,12.9c0,0,9-6.5,0-15.5c0,0-18.1-18.1-22-23.2c0,0-15.5-22-38.7-28.4c0,0-15.5-3.9-19.4-3.9
	C822.1,398.2,797.6,413.7,770.5,398.2z"/>
<path class="st34" d="M793.7,305c20.7-3.9,32.3,10.3,32.3,10.3c14.2,16.8-1.3,52.9-1.3,52.9c-3.9,12.9-23.2,16.8-23.2,16.8
	c-15.5,1.3-25.8-7.7-25.8-7.7c-11.6-22-6.5-50.5-6.5-50.5c2.6-16.8,16.8-15.5,16.8-15.5C787.3,307.6,793.7,305,793.7,305z"/>
<rect x="783.5" y="531" class="st35" width="16.8" height="53.1"/>
<rect x="786" y="583" class="st36" width="12" height="65.7"/>
<path class="st35" d="M862.6,590.8H721.3c-1.6,0-2.9-1.3-2.9-2.9v-13.5c0-1.6,1.3-2.9,2.9-2.9h141.3c1.6,0,2.9,1.3,2.9,2.9v13.5
	C865.5,589.5,864.2,590.8,862.6,590.8z"/>
<path class="st37" d="M858.3,526.3H728.1c-4.1,0-7.3-3.3-7.3-7.3v-74.7c0-4.1,3.3-7.3,7.3-7.3h130.1c4.1,0,7.3,3.3,7.3,7.3V519
	C865.5,522.9,862.3,526.3,858.3,526.3z"/>
<path class="st35" d="M800.4,538.3h-16.8c-4.1,0-7.3-3.3-7.3-7.3v-55.4c0-4.1,3.3-7.3,7.3-7.3h16.8c4.1,0,7.3,3.3,7.3,7.3V531
	C807.6,535,804.4,538.3,800.4,538.3z"/>
<rect x="778.8" y="625.6" class="st32" width="24.1" height="57.9"/>
<polygon class="st32" points="779.9,677.6 710,699.2 710,718.5 714.9,718.5 714.9,706.4 784.7,691.9 784.7,711.2 794.4,711.2 
	794.4,691.9 864.3,708.9 864.3,713.7 869.1,713.7 869.1,701.6 799.2,677.6 "/>
<circle class="st38" cx="713.6" cy="719.6" r="9.6"/>
<circle class="st38" cx="865.5" cy="719.6" r="9.6"/>
<circle class="st38" cx="790.8" cy="724.6" r="9.6"/>
<rect x="788.3" y="707.6" class="st38" width="2.5" height="16.8"/>
<g class="st15">
	<path class="st27" d="M984.9,268.3v-0.6c-0.3,0-0.6-0.1-0.7-0.1c-0.1-0.1-0.3-0.3-0.6-0.4c-0.3-0.1-0.1-0.4-0.3-0.9l0.6-0.1
		c0.1,0.3,0.1,0.6,0.3,0.7c0.1,0.1,0.3,0.3,0.6,0.3v-2c-0.3-0.1-0.6-0.1-0.9-0.3c-0.1-0.1-0.3-0.3-0.4-0.4c-0.1-0.1-0.1-0.4-0.1-0.6
		c0-0.4,0.1-0.9,0.4-1c0.1-0.1,0.6-0.3,0.9-0.3v-0.3h0.3v0.3c0.3,0,0.6,0.1,0.9,0.3c0.3,0.1,0.4,0.6,0.4,0.9l-0.6,0.1
		c0-0.3-0.1-0.4-0.3-0.6c-0.1-0.1-0.3-0.1-0.4-0.3v1.7c0.3,0.1,0.6,0.1,0.6,0.1c0.1,0.1,0.3,0.1,0.4,0.3c0.1,0.1,0.1,0.3,0.3,0.4
		c0.1,0.1,0.1,0.3,0.1,0.6c0,0.4-0.1,0.9-0.4,1c-0.3,0.3-0.6,0.4-1,0.4V268.3L984.9,268.3L984.9,268.3z M984.9,263
		c-0.3,0-0.4,0.1-0.6,0.3c-0.1,0.1-0.1,0.3-0.1,0.6s0.1,0.3,0.1,0.6c0,0.3,0.3,0.3,0.6,0.3V263L984.9,263z M985.2,267.2
		c0.3,0,0.4-0.1,0.6-0.3c0.1-0.1,0.3-0.3,0.3-0.6c0-0.1-0.1-0.3-0.1-0.6c-0.1-0.1-0.3-0.3-0.6-0.3L985.2,267.2L985.2,267.2z"/>
	<path class="st27" d="M989.5,267.6H989v-3.9c-0.1,0.1-0.3,0.3-0.6,0.4c-0.1,0.1-0.4,0.3-0.6,0.3v-0.6c0.3-0.1,0.6-0.3,0.9-0.6
		s0.4-0.4,0.6-0.6h0.3L989.5,267.6L989.5,267.6z"/>
	<path class="st27" d="M991.1,265.1c0-0.6,0.1-1,0.1-1.5s0.3-0.6,0.6-0.9c0.3-0.1,0.6-0.3,0.9-0.3c0.3,0,0.6,0.1,0.7,0.1
		s0.3,0.3,0.6,0.4c0.1,0.1,0.3,0.4,0.3,0.7c0.1,0.3,0.1,0.7,0.1,1.2c0,0.6-0.1,1-0.1,1.5c0,0.4-0.3,0.6-0.6,0.9
		c-0.3,0.1-0.6,0.3-0.9,0.3c-0.4,0-0.9-0.1-1.2-0.6C991.4,266.6,991.1,266,991.1,265.1z M991.7,265.1c0,0.9,0.1,1.3,0.3,1.6
		c0.1,0.3,0.4,0.4,0.7,0.4s0.6-0.1,0.7-0.4s0.3-0.9,0.3-1.6s-0.1-1.3-0.3-1.6c-0.1-0.3-0.4-0.4-0.7-0.4s-0.6,0.1-0.7,0.3
		C991.9,263.7,991.7,264.3,991.7,265.1z"/>
	<path class="st27" d="M994.9,265.1c0-0.6,0.1-1,0.1-1.5s0.3-0.6,0.6-0.9c0.3-0.1,0.6-0.3,0.9-0.3s0.6,0.1,0.7,0.1
		c0.1,0.1,0.3,0.3,0.6,0.4c0.1,0.1,0.3,0.4,0.3,0.7c0.1,0.3,0.1,0.7,0.1,1.2c0,0.6-0.1,1-0.1,1.5c0,0.4-0.3,0.6-0.6,0.9
		c-0.3,0.1-0.6,0.3-0.9,0.3c-0.4,0-0.9-0.1-1.2-0.6C995.2,266.7,994.9,266,994.9,265.1z M995.6,265.1c0,0.9,0.1,1.3,0.3,1.6
		c0.1,0.3,0.4,0.4,0.7,0.4c0.3,0,0.6-0.1,0.7-0.4c0.1-0.3,0.3-0.9,0.3-1.6s-0.1-1.3-0.3-1.6c-0.1-0.3-0.4-0.4-0.7-0.4
		c-0.3,0-0.6,0.1-0.7,0.3C995.8,263.7,995.6,264.3,995.6,265.1z"/>
	<path class="st27" d="M999.1,267.6v-5.1h0.6v2.9l1.5-1.5h0.9l-1.3,1.3l1.6,2.2h-0.7l-1.2-1.9l-0.4,0.4v1.5h-0.9V267.6z"/>
</g>
<line class="st39" x1="1005.2" y1="289.1" x2="1005.2" y2="293.7"/>
<line class="st39" x1="1189.1" y1="289.7" x2="1005.2" y2="289.7"/>
<line class="st39" x1="1189.4" y1="289.1" x2="1189.4" y2="293.7"/>
<line class="st39" x1="1160" y1="289.1" x2="1160" y2="293.7"/>
<line class="st39" x1="1118.1" y1="289.1" x2="1118.1" y2="293.7"/>
<g class="st15">
	<path class="st27" d="M996.1,292.9v-0.6c-0.3,0-0.6-0.1-0.7-0.1c-0.1-0.1-0.3-0.1-0.6-0.3c-0.1-0.1-0.1-0.3-0.3-0.6l0.6-0.1
		c0.1,0.3,0.1,0.4,0.3,0.6c0.1,0.1,0.3,0.3,0.6,0.3v-1.6c-0.3,0-0.6-0.1-0.9-0.3c-0.1-0.1-0.3-0.1-0.4-0.3c-0.1-0.1-0.1-0.3-0.1-0.6
		s0.1-0.6,0.4-0.9c0.1-0.1,0.6-0.3,0.9-0.3v-0.3h0.3v0.3c0.3,0,0.6,0.1,0.9,0.3c0.3,0.1,0.4,0.4,0.4,0.7l-0.6,0.1
		c0-0.1-0.1-0.3-0.3-0.4c-0.1-0.1-0.3-0.1-0.4-0.1v1.5c0.3,0.1,0.6,0.1,0.6,0.1c0.1,0.1,0.3,0.1,0.4,0.3c0.1,0.1,0.1,0.1,0.3,0.3
		c0.1,0.1,0.1,0.3,0.1,0.4c0,0.3-0.1,0.6-0.4,0.9c-0.3,0.3-0.6,0.3-1,0.3V292.9L996.1,292.9L996.1,292.9z M996.1,288.5
		c-0.3,0-0.4,0.1-0.6,0.3c-0.1,0.1-0.1,0.3-0.1,0.4c0,0.1,0.1,0.3,0.1,0.4c0.1,0.1,0.3,0.1,0.6,0.3V288.5L996.1,288.5z M996.3,292
		c0.3,0,0.4-0.1,0.6-0.3c0.1-0.1,0.3-0.3,0.3-0.6c0-0.1-0.1-0.3-0.1-0.4c-0.1-0.1-0.3-0.1-0.6-0.3L996.3,292L996.3,292z"/>
	<path class="st27" d="M998.5,290.4c0-0.4,0.1-0.9,0.1-1.2s0.3-0.6,0.6-0.7c0.3-0.1,0.6-0.3,0.9-0.3c0.3,0,0.6,0,0.7,0.1
		s0.3,0.1,0.6,0.3c0.1,0.1,0.3,0.3,0.3,0.6c0.1,0.3,0.1,0.6,0.1,1c0,0.4-0.1,0.9-0.1,1.2s-0.3,0.6-0.6,0.7c-0.3,0.1-0.6,0.3-0.9,0.3
		c-0.4,0-0.9-0.1-1.2-0.4C998.7,291.7,998.5,291.1,998.5,290.4z M999.1,290.4c0,0.6,0.1,1,0.3,1.3s0.4,0.3,0.7,0.3
		c0.3,0,0.6-0.1,0.7-0.3s0.3-0.6,0.3-1.3s-0.1-1-0.3-1.3c-0.1-0.1-0.4-0.3-0.7-0.3c-0.3,0-0.6,0.1-0.7,0.3
		C999.3,289.2,999.1,289.7,999.1,290.4z"/>
</g>
<g class="st15">
	<path class="st27" d="M984.9,242.4v-0.6c-0.3,0-0.6-0.1-0.7-0.1c-0.1-0.1-0.3-0.3-0.6-0.4c-0.3-0.1-0.1-0.4-0.3-0.9l0.6-0.1
		c0.1,0.3,0.1,0.6,0.3,0.7c0.1,0.1,0.3,0.3,0.6,0.3v-1.9c-0.3-0.1-0.6-0.1-0.9-0.3c-0.1-0.1-0.3-0.3-0.4-0.4
		c-0.1-0.1-0.1-0.4-0.1-0.6c0-0.4,0.1-0.9,0.4-1c0.1-0.1,0.6-0.3,0.9-0.3v-0.3h0.3v0.3c0.3,0,0.6,0.1,0.9,0.3
		c0.3,0.1,0.4,0.6,0.4,0.9l-0.6,0.1c0-0.3-0.1-0.4-0.3-0.6c-0.1-0.1-0.3-0.1-0.4-0.3v1.7c0.3,0.1,0.6,0.1,0.6,0.1
		c0.1,0.1,0.3,0.1,0.4,0.3c0.1,0.1,0.1,0.3,0.3,0.4c0.1,0.1,0.1,0.3,0.1,0.6c0,0.4-0.1,0.9-0.4,1c-0.3,0.3-0.6,0.4-1,0.4V242.4
		L984.9,242.4L984.9,242.4z M984.9,237c-0.3,0-0.4,0.1-0.6,0.3c-0.1,0.1-0.1,0.3-0.1,0.6c0,0.3,0.1,0.3,0.1,0.6s0.3,0.3,0.6,0.3V237
		L984.9,237z M985.2,241.4c0.3,0,0.4-0.1,0.6-0.3c0.1-0.1,0.3-0.3,0.3-0.6c0-0.1-0.1-0.3-0.1-0.6c-0.1-0.1-0.3-0.3-0.6-0.3
		L985.2,241.4L985.2,241.4z"/>
	<path class="st27" d="M990.5,241.1v0.6h-3.3c0-0.1,0-0.3,0.1-0.4c0.1-0.3,0.1-0.4,0.4-0.6c0.1-0.1,0.4-0.4,0.9-0.7
		c0.6-0.4,0.9-0.9,1-1c0.1-0.3,0.3-0.6,0.3-0.7c0-0.3-0.1-0.4-0.3-0.6c-0.1-0.1-0.3-0.3-0.7-0.3c-0.3,0-0.6,0.1-0.7,0.3
		c-0.1,0.1-0.3,0.4-0.3,0.7l-0.6-0.1c0-0.4,0.1-0.9,0.4-1c0.3-0.3,0.6-0.3,1.2-0.3c0.4,0,0.9,0.1,1.2,0.3c0.3,0.3,0.4,0.6,0.4,1
		c0,0.1,0,0.3-0.1,0.6c-0.1,0.1-0.1,0.3-0.4,0.6c-0.1,0.1-0.6,0.6-1,0.9c-0.3,0.3-0.6,0.6-0.7,0.6c-0.1,0.1-0.1,0.1-0.3,0.3H990.5
		L990.5,241.1z"/>
	<path class="st27" d="M991.1,239.2c0-0.6,0.1-1,0.1-1.5s0.3-0.6,0.6-0.9c0.3-0.1,0.6-0.3,0.9-0.3c0.3,0,0.6,0.1,0.7,0.1
		s0.3,0.3,0.6,0.4c0.1,0.1,0.3,0.4,0.3,0.7c0.1,0.3,0.1,0.7,0.1,1.2c0,0.6-0.1,1-0.1,1.5c-0.1,0.3-0.3,0.6-0.6,0.9
		c-0.3,0.1-0.6,0.3-0.9,0.3c-0.4,0-0.9-0.1-1.2-0.6C991.4,240.6,991.1,240.2,991.1,239.2z M991.7,239.2c0,0.9,0.1,1.3,0.3,1.6
		c0.1,0.3,0.4,0.4,0.7,0.4s0.6-0.1,0.7-0.4c0.1-0.3,0.3-0.9,0.3-1.6c0-0.9-0.1-1.3-0.3-1.6c-0.1-0.3-0.4-0.4-0.7-0.4
		s-0.6,0.1-0.7,0.3C991.9,237.6,991.7,238.5,991.7,239.2z"/>
	<path class="st27" d="M994.9,239.2c0-0.6,0.1-1,0.1-1.5s0.3-0.6,0.6-0.9c0.3-0.3,0.6-0.3,0.9-0.3s0.6,0.1,0.7,0.1
		c0.1,0.1,0.3,0.3,0.6,0.4c0.1,0.1,0.3,0.4,0.3,0.7c0.1,0.3,0.1,0.7,0.1,1.2c0,0.6-0.1,1-0.1,1.5c-0.1,0.3-0.3,0.6-0.6,0.9
		c-0.3,0.1-0.6,0.3-0.9,0.3c-0.4,0-0.9-0.1-1.2-0.6C995.2,240.9,994.9,240.2,994.9,239.2z M995.6,239.2c0,0.9,0.1,1.3,0.3,1.6
		c0.1,0.3,0.4,0.4,0.7,0.4c0.3,0,0.6-0.1,0.7-0.4c0.1-0.3,0.3-0.9,0.3-1.6c0-0.9-0.1-1.3-0.3-1.6c-0.1-0.3-0.4-0.4-0.7-0.4
		c-0.3,0-0.6,0.1-0.7,0.3C995.8,237.9,995.6,238.5,995.6,239.2z"/>
	<path class="st27" d="M999.1,241.6v-5.1h0.6v2.9l1.5-1.5h0.9l-1.3,1.3l1.6,2.2h-0.7l-1.2-1.9l-0.4,0.4v1.5h-0.9V241.6z"/>
</g>
<g class="st15">
	<path class="st27" d="M984.9,216.6V216c-0.3,0-0.6-0.1-0.7-0.1c-0.1-0.1-0.3-0.3-0.6-0.4c-0.3-0.1-0.1-0.4-0.3-0.9l0.6-0.1
		c0.1,0.3,0.1,0.6,0.3,0.7c0.1,0.1,0.3,0.3,0.6,0.3v-2c-0.3-0.1-0.6-0.1-0.9-0.3c-0.1-0.1-0.3-0.3-0.4-0.4c-0.1-0.1-0.1-0.4-0.1-0.6
		c0-0.4,0.1-0.9,0.4-1c0.1-0.1,0.6-0.3,0.9-0.3v-0.4h0.3v0.3c0.3,0,0.6,0.1,0.9,0.3s0.4,0.6,0.4,0.9l-0.6,0.1c0-0.3-0.1-0.4-0.3-0.6
		c-0.1-0.1-0.3-0.1-0.4-0.3v1.7c0.3,0.1,0.6,0.1,0.6,0.1c0.1,0.1,0.3,0.1,0.4,0.3c0.1,0.1,0.1,0.3,0.3,0.4c0.1,0.1,0.1,0.3,0.1,0.6
		c0,0.4-0.1,0.9-0.4,1c-0.3,0.3-0.6,0.4-1,0.4V216.6L984.9,216.6L984.9,216.6z M984.9,211.2c-0.3,0-0.4,0.1-0.6,0.3
		c-0.1,0.1-0.1,0.3-0.1,0.6c0,0.1,0.1,0.3,0.1,0.6c0.1,0.1,0.3,0.3,0.6,0.3V211.2L984.9,211.2z M985.2,215.4c0.3,0,0.4-0.1,0.6-0.3
		c0.1-0.1,0.3-0.3,0.3-0.6c0-0.1-0.1-0.3-0.1-0.6c-0.1-0.1-0.3-0.3-0.6-0.3L985.2,215.4L985.2,215.4z"/>
	<path class="st27" d="M987.2,214.5l0.6-0.1c0.1,0.3,0.1,0.6,0.3,0.7c0.1,0.1,0.3,0.3,0.6,0.3s0.6-0.1,0.7-0.3s0.3-0.4,0.3-0.7
		c0-0.3-0.1-0.6-0.3-0.7c-0.1-0.1-0.4-0.3-0.7-0.3c-0.1,0-0.3,0-0.4,0.1l0.1-0.6h0.1c0.3,0,0.6-0.1,0.7-0.1c0.1-0.1,0.3-0.3,0.3-0.6
		c0-0.3-0.1-0.4-0.3-0.6c-0.1-0.1-0.3-0.1-0.6-0.1c-0.3,0-0.4,0.1-0.6,0.3c-0.1,0.1-0.3,0.3-0.3,0.7l-0.6-0.1c0.1-0.4,0.3-0.7,0.6-1
		c0.3-0.3,0.6-0.3,1-0.3c0.3,0,0.6,0.1,0.7,0.1c0.3,0.1,0.4,0.3,0.6,0.4c0.1,0.1,0.1,0.4,0.1,0.6s-0.1,0.4-0.1,0.6
		c-0.1,0.1-0.3,0.3-0.6,0.4c0.3,0.1,0.6,0.1,0.7,0.4c0.1,0.1,0.3,0.4,0.3,0.9s-0.1,0.9-0.4,1c-0.3,0.3-0.7,0.4-1.2,0.4
		s-0.9-0.1-1-0.3C987.4,215.2,987.2,215,987.2,214.5z"/>
	<path class="st27" d="M991.1,213.4c0-0.6,0.1-1,0.1-1.5c0.1-0.3,0.3-0.6,0.6-0.9c0.3-0.1,0.6-0.3,0.9-0.3c0.3,0,0.6,0.1,0.7,0.1
		s0.3,0.3,0.6,0.4c0.1,0.1,0.3,0.4,0.3,0.7c0.1,0.3,0.1,0.7,0.1,1.2c0,0.6-0.1,1-0.1,1.5s-0.3,0.6-0.6,0.9c-0.3,0.1-0.6,0.3-0.9,0.3
		c-0.4,0-0.9-0.1-1.2-0.6C991.3,215,991.1,214.2,991.1,213.4z M991.7,213.4c0,0.9,0.1,1.3,0.3,1.6c0.1,0.3,0.4,0.4,0.7,0.4
		s0.6-0.1,0.7-0.4c0.1-0.3,0.3-0.9,0.3-1.6c0-0.9-0.1-1.3-0.3-1.6c-0.1-0.3-0.4-0.4-0.7-0.4s-0.6,0.1-0.7,0.3
		C991.9,211.9,991.7,212.5,991.7,213.4z"/>
	<path class="st27" d="M994.9,213.4c0-0.6,0.1-1,0.1-1.5c0.1-0.3,0.3-0.6,0.6-0.9c0.3-0.3,0.6-0.3,0.9-0.3s0.6,0.1,0.7,0.1
		c0.1,0.1,0.3,0.3,0.6,0.4c0.1,0.1,0.3,0.4,0.3,0.7c0.1,0.3,0.1,0.7,0.1,1.2c0,0.6-0.1,1-0.1,1.5s-0.3,0.6-0.6,0.9
		c-0.3,0.1-0.6,0.3-0.9,0.3c-0.4,0-0.9-0.1-1.2-0.6C995.2,215,994.9,214.2,994.9,213.4z M995.6,213.4c0,0.9,0.1,1.3,0.3,1.6
		c0.1,0.3,0.4,0.4,0.7,0.4c0.3,0,0.6-0.1,0.7-0.4c0.1-0.3,0.3-0.9,0.3-1.6c0-0.9-0.1-1.3-0.3-1.6s-0.4-0.4-0.7-0.4
		c-0.3,0-0.6,0.1-0.7,0.3C995.8,211.9,995.6,212.5,995.6,213.4z"/>
	<path class="st27" d="M999.1,215.8v-5.1h0.6v2.9l1.5-1.5h0.9l-1.3,1.3l1.6,2.2h-0.7l-1.2-1.9l-0.4,0.4v1.5h-0.9V215.8z"/>
</g>
<g class="st15">
	<path class="st27" d="M984.9,190.6V190c-0.3,0-0.6-0.1-0.7-0.1c-0.1-0.1-0.3-0.3-0.6-0.4c-0.1-0.1-0.1-0.4-0.3-0.9l0.6-0.1
		c0.1,0.3,0.1,0.6,0.3,0.7c0.1,0.1,0.3,0.3,0.6,0.3v-2c-0.3-0.1-0.6-0.1-0.9-0.3c-0.1-0.1-0.3-0.3-0.4-0.4c-0.1-0.1-0.1-0.4-0.1-0.6
		c0-0.4,0.1-0.9,0.4-1c0.1-0.1,0.6-0.3,0.9-0.3v-0.3h0.3v0.3c0.3,0,0.6,0.1,0.9,0.3c0.3,0.1,0.4,0.6,0.4,0.9l-0.6,0.1
		c0-0.3-0.1-0.4-0.3-0.6c-0.1-0.1-0.3-0.1-0.4-0.3v1.9c0.3,0.1,0.6,0.1,0.6,0.1c0.1,0.1,0.3,0.1,0.4,0.3c0.1,0.1,0.1,0.3,0.3,0.4
		c0.1,0.1,0.1,0.3,0.1,0.6c0,0.4-0.1,0.9-0.4,1c-0.3,0.3-0.6,0.4-1,0.4V190.6L984.9,190.6L984.9,190.6z M984.9,185.2
		c-0.3,0-0.4,0.1-0.6,0.3c-0.1,0.1-0.1,0.3-0.1,0.6c0,0.3,0.1,0.3,0.1,0.6s0.3,0.3,0.6,0.3V185.2L984.9,185.2z M985.2,189.6
		c0.3,0,0.4-0.1,0.6-0.3c0.1-0.1,0.3-0.3,0.3-0.6c0-0.1-0.1-0.3-0.1-0.6c-0.1-0.1-0.3-0.3-0.6-0.3L985.2,189.6L985.2,189.6z"/>
	<path class="st27" d="M989.2,189.9v-1.2h-2.2v-0.6l2.2-3.2h0.6v3.2h0.7v0.6h-0.7v1.2H989.2z M989.2,188.1v-2.2l-1.6,2.2H989.2z"/>
	<path class="st27" d="M991.1,187.4c0-0.6,0.1-1,0.1-1.5s0.3-0.6,0.6-0.9c0.3-0.1,0.6-0.3,0.9-0.3c0.3,0,0.6,0.1,0.7,0.1
		s0.3,0.3,0.6,0.4c0.1,0.1,0.3,0.4,0.3,0.7c0.1,0.3,0.1,0.7,0.1,1.2c0,0.6-0.1,1-0.1,1.5c-0.1,0.3-0.3,0.6-0.6,0.9
		c-0.3,0.1-0.6,0.3-0.9,0.3c-0.4,0-0.9-0.1-1.2-0.6C991.3,189.1,991.1,188.4,991.1,187.4z M991.7,187.4c0,0.9,0.1,1.3,0.3,1.6
		c0.1,0.3,0.4,0.4,0.7,0.4s0.6-0.1,0.7-0.4c0.1-0.3,0.3-0.9,0.3-1.6c0-0.9-0.1-1.3-0.3-1.6c-0.1-0.3-0.4-0.4-0.7-0.4
		s-0.6,0.1-0.7,0.3C991.9,186.1,991.7,186.7,991.7,187.4z"/>
	<path class="st27" d="M994.9,187.4c0-0.6,0.1-1,0.1-1.5s0.3-0.6,0.6-0.9c0.3-0.1,0.6-0.3,0.9-0.3s0.6,0.1,0.7,0.1
		c0.1,0.1,0.3,0.3,0.6,0.4c0.1,0.1,0.3,0.4,0.3,0.7c0.1,0.3,0.1,0.7,0.1,1.2c0,0.6-0.1,1-0.1,1.5c-0.1,0.3-0.3,0.6-0.6,0.9
		c-0.3,0.1-0.6,0.3-0.9,0.3c-0.4,0-0.9-0.1-1.2-0.6C995.2,189.1,994.9,188.4,994.9,187.4z M995.6,187.4c0,0.9,0.1,1.3,0.3,1.6
		c0.1,0.3,0.4,0.4,0.7,0.4c0.3,0,0.6-0.1,0.7-0.4c0.1-0.3,0.3-0.9,0.3-1.6c0-0.9-0.1-1.3-0.3-1.6c-0.1-0.3-0.4-0.4-0.7-0.4
		c-0.3,0-0.6,0.1-0.7,0.3C995.8,186.1,995.6,186.7,995.6,187.4z"/>
	<path class="st27" d="M999.1,189.9v-5.1h0.6v2.9l1.5-1.5h0.9l-1.3,1.3l1.6,2.2h-0.7l-1.2-1.9l-0.4,0.4v1.5h-0.9V189.9z"/>
</g>
<rect x="1035.1" y="249" class="st25" width="11.5" height="40.9"/>
<rect x="1035.1" y="227.6" class="st23" width="11.5" height="21.6"/>
<rect x="1035.1" y="205.8" class="st40" width="11.5" height="21.6"/>
<rect x="1071.8" y="279.2" class="st25" width="11.5" height="9.9"/>
<rect x="1071.8" y="273.4" class="st23" width="11.5" height="5.9"/>
<rect x="1071.8" y="244" class="st40" width="11.5" height="29.3"/>
<rect x="1112.1" y="279.7" class="st25" width="11.5" height="9.9"/>
<rect x="1112.1" y="250.4" class="st23" width="11.5" height="29.3"/>
<rect x="1112.1" y="228.6" class="st40" width="11.5" height="21.6"/>
<rect x="1154.8" y="264.1" class="st25" width="11.5" height="25.4"/>
<rect x="1154.8" y="234.8" class="st23" width="11.5" height="29.3"/>
<rect x="1154.8" y="220.9" class="st40" width="11.5" height="13.8"/>
<line class="st39" x1="1077.6" y1="289.1" x2="1077.6" y2="293.7"/>
<line class="st39" x1="1040.3" y1="290" x2="1040.3" y2="294.4"/>
<ellipse class="st41" cx="944.4" cy="456.2" rx="14.5" ry="3.6"/>
<path class="st42" d="M957.2,429.4l0.1-1c0-1.5-1.2-2.8-2.8-2.8h-19c-1.5,0-2.8,1.2-2.8,2.8l4.1,25.8c0,1.5,1.2,2.8,2.8,2.8h10.9
	c1.5,0,2.8-1.2,2.8-2.8l0.3-2c0.3,0,0.7,0,1,0c6.4,0,11.6-5.2,11.6-11.6C966.2,435,962.3,430.5,957.2,429.4z M954.6,448.1
	c-0.1,0-0.3,0-0.4,0l2.3-14.7c3.2,0.9,5.5,3.8,5.5,7.3C962.1,444.7,958.8,448.1,954.6,448.1z"/>
<ellipse class="st41" cx="657.9" cy="445.3" rx="23.9" ry="4.4"/>
<path class="st43" d="M657.2,404.7c0,0-17.4-16-8.7-29c8.7-13.1,11.6,4.4,17.4-7.3"/>
<ellipse transform="matrix(0.7071 -0.7071 0.7071 0.7071 -77.6587 560.9824)" class="st44" cx="638.3" cy="374.2" rx="2.9" ry="11.6"/>
<ellipse transform="matrix(6.507785e-02 -0.9979 0.9979 6.507785e-02 234.4989 990.0301)" class="st44" cx="645.6" cy="369.9" rx="11.6" ry="2.9"/>
<ellipse transform="matrix(0.36 -0.933 0.933 0.36 90.3037 853.6875)" class="st44" cx="667.4" cy="361" rx="11.6" ry="2.9"/>
<ellipse transform="matrix(0.9387 -0.3448 0.3448 0.9387 -84.8224 254.9497)" class="st44" cx="674.3" cy="365.9" rx="11.6" ry="2.9"/>
<path class="st45" d="M668.8,446.8h-23.2c-1.6,0-2.9-1.5-2.9-3.3l-2.9-39.7c0-1.9,1.3-3.3,2.9-3.3h29c1.6,0,2.9,1.5,2.9,3.3
	l-2.9,39.7C671.7,445.3,670.4,446.8,668.8,446.8z"/>
</svg>
