<svg width="420" height="420" viewBox="0 0 420 420" fill="none" xmlns="http://www.w3.org/2000/svg">
<path d="M420 321.216H0V321.426H420V321.216Z" fill="#E6E6E6"/>
<path d="M65.7048 330.59H43.386V330.8H65.7048V330.59Z" fill="#E6E6E6"/>
<path d="M73.7773 326.39H54.5413V326.6H73.7773V326.39Z" fill="#E6E6E6"/>
<path d="M273.344 327.012H221.726V327.222H273.344V327.012Z" fill="#E6E6E6"/>
<path d="M290.564 327.012H278.183V327.222H290.564V327.012Z" fill="#E6E6E6"/>
<path d="M360.965 328.448H320.09V328.658H360.965V328.448Z" fill="#E6E6E6"/>
<path d="M162.263 331.8H89.4937V332.01H162.263V331.8Z" fill="#E6E6E6"/>
<path d="M374.296 328.448H368.34V328.658H374.296V328.448Z" fill="#E6E6E6"/>
<path d="M199.08 283.752H36.8844C35.6138 283.75 34.396 283.243 33.4983 282.344C32.6006 281.445 32.0964 280.226 32.0964 278.956V50.9544C32.1075 49.691 32.6166 48.4831 33.513 47.5929C34.4095 46.7027 35.6211 46.2021 36.8844 46.2H199.08C200.352 46.2 201.572 46.7053 202.472 47.6048C203.371 48.5043 203.876 49.7243 203.876 50.9964V278.956C203.876 280.228 203.371 281.448 202.472 282.347C201.572 283.247 200.352 283.752 199.08 283.752ZM36.8844 46.368C35.6695 46.3702 34.5051 46.8544 33.6468 47.7142C32.7885 48.5741 32.3064 49.7394 32.3064 50.9544V278.956C32.3064 280.17 32.7885 281.336 33.6468 282.196C34.5051 283.056 35.6695 283.54 36.8844 283.542H199.08C200.296 283.54 201.461 283.056 202.321 282.196C203.18 281.337 203.664 280.171 203.666 278.956V50.9544C203.664 49.7386 203.18 48.5734 202.321 47.7137C201.461 46.8541 200.296 46.3702 199.08 46.368H36.8844Z" fill="#E6E6E6"/>
<path d="M380.78 283.752H218.576C217.305 283.75 216.086 283.244 215.187 282.345C214.288 281.446 213.782 280.227 213.78 278.956V50.9544C213.793 49.6902 214.304 48.4823 215.202 47.5923C216.1 46.7024 217.312 46.2021 218.576 46.2H380.78C382.042 46.2043 383.252 46.7058 384.146 47.5958C385.041 48.4858 385.549 49.6925 385.56 50.9544V278.956C385.56 280.225 385.057 281.442 384.161 282.341C383.265 283.24 382.05 283.747 380.78 283.752ZM218.576 46.368C217.361 46.3702 216.195 46.8541 215.336 47.7137C214.476 48.5734 213.992 49.7386 213.99 50.9544V278.956C213.992 280.171 214.476 281.337 215.336 282.196C216.195 283.056 217.361 283.54 218.576 283.542H380.78C381.996 283.54 383.161 283.056 384.021 282.196C384.881 281.337 385.365 280.171 385.367 278.956V50.9544C385.365 49.7386 384.881 48.5734 384.021 47.7137C383.161 46.8541 381.996 46.3702 380.78 46.368H218.576Z" fill="#E6E6E6"/>
<path d="M128.88 176.755C131.218 166.61 124.89 156.491 114.746 154.153C104.602 151.815 94.4824 158.143 92.1441 168.287C89.8058 178.431 96.1339 188.551 106.278 190.889C116.423 193.227 126.542 186.899 128.88 176.755Z" fill="#F0F0F0"/>
<path d="M239.047 168.622C236.704 163.582 238.568 159.928 244.314 159.928C247.909 159.928 252.378 161.356 256.729 163.666C257.225 162.347 258.602 161.557 260.828 161.557C264.751 161.557 270.152 164.002 274.386 167.437C275.693 166.563 277.232 166.103 278.804 166.118C282.559 165.967 287.095 167.37 291.043 169.655C291.275 169.435 291.548 169.264 291.846 169.152C292.145 169.039 292.463 168.987 292.782 169C294.033 169.042 295.262 169.345 296.389 169.89C297.516 170.436 298.516 171.211 299.326 172.166C299.418 172.276 299.494 172.393 299.578 172.502H236.132C234.125 170.713 236.342 168.714 239.047 168.622Z" fill="#F5F5F5"/>
<path d="M115.45 207.623L167.429 195.72V321.216H115.45V207.623Z" fill="#FAFAFA"/>
<path d="M194.401 195.72H167.429V321.216H194.401V195.72Z" fill="#EBEBEB"/>
<path d="M185.589 321.216H229.832L229.832 165.707H185.589L185.589 321.216Z" fill="#FAFAFA"/>
<path d="M252.789 165.707H229.832V321.216H252.789V165.707Z" fill="#EBEBEB"/>
<path d="M191.545 165.707H229.833V154.148H191.545V165.707Z" fill="#FAFAFA"/>
<path d="M191.545 165.707H229.833V163.111H191.545V165.707Z" fill="#EBEBEB"/>
<path d="M246.842 154.148H229.832V165.707H246.842V154.148Z" fill="#EBEBEB"/>
<path d="M197.492 154.148H229.824V142.59H197.492V154.148Z" fill="#FAFAFA"/>
<path d="M197.492 154.148H229.824V151.553H197.492V154.148Z" fill="#EBEBEB"/>
<path d="M240.887 142.598H229.832V154.157H240.887V142.598Z" fill="#EBEBEB"/>
<path d="M220.265 126.454H218.115V142.598H220.265V126.454Z" fill="#EBEBEB"/>
<path d="M245.456 321.216H277.763V185.917H245.456V321.216Z" fill="#FAFAFA"/>
<path d="M294.538 185.917H277.771V321.216H294.538V185.917Z" fill="#EBEBEB"/>
<path d="M286.154 213.36L310.649 234.36V321.216H286.154V213.36Z" fill="#FAFAFA"/>
<path d="M323.367 234.36H310.649V321.216H323.367V234.36Z" fill="#EBEBEB"/>
<path d="M323.366 234.36H310.649L286.154 213.36H298.864L323.366 234.36Z" fill="#EBEBEB"/>
<path d="M369.516 321.216C369.876 319.198 370.734 317.302 372.012 315.699C373.289 314.096 374.946 312.836 376.833 312.035C375.176 314.796 374.424 318.006 374.682 321.216H369.516Z" fill="#EBEBEB"/>
<path d="M156.492 321.216C156.132 319.198 155.274 317.302 153.996 315.699C152.719 314.096 151.062 312.836 149.176 312.035C150.832 314.796 151.584 318.006 151.326 321.216H156.492Z" fill="#EBEBEB"/>
<path d="M49.4508 321.216C49.4508 321.216 49.0392 310.464 44.5452 307.339C46.3848 311.732 45.99 321.216 45.99 321.216H49.4508Z" fill="#EBEBEB"/>
<path d="M47.7625 321.216C47.7625 321.216 48.1824 315.042 52.6764 313.253C50.8284 315.773 51.2317 321.216 51.2317 321.216H47.7625Z" fill="#EBEBEB"/>
<path d="M160.339 321.216C160.339 321.216 159.886 311.035 151.738 307.339C155.383 312.564 155.173 321.216 155.173 321.216H160.339Z" fill="#EBEBEB"/>
<path d="M78.6912 252.68L84.6216 294.512L85.2096 298.696H89.0148L88.4184 294.512L82.488 252.68H78.6912Z" fill="#E0E0E0"/>
<path d="M241.643 252.68L247.573 294.512L248.161 298.696H251.966L251.37 294.512L245.44 252.68H241.643Z" fill="#E0E0E0"/>
<path d="M103.043 294.512L103.639 298.696L106.84 321.25H110.645L107.444 298.696L106.856 294.512H103.043Z" fill="#E6E6E6"/>
<path d="M266.003 294.512L266.599 298.696L269.791 321.25H273.588L270.396 298.696L269.808 294.512H266.003Z" fill="#E6E6E6"/>
<path d="M246.8 294.512L246.204 298.696L243.004 321.25H239.198L242.399 298.696L242.987 294.512H246.8Z" fill="#E6E6E6"/>
<path d="M83.8404 294.512L83.244 298.696L80.0521 321.25H76.2552L79.4473 298.696L80.0437 294.512H83.8404Z" fill="#E6E6E6"/>
<path d="M73.2228 258.502H247.38L244.146 246.851H69.9888L73.2228 258.502Z" fill="#F5F5F5"/>
<path d="M77.196 258.502H251.362L248.128 246.851H73.962L77.196 258.502Z" fill="#E6E6E6"/>
<path d="M75.6504 273.025H249.808L246.574 261.383H72.408L75.6504 273.025Z" fill="#F5F5F5"/>
<path d="M79.6236 273.025H253.781L250.547 261.383H76.3896L79.6236 273.025Z" fill="#E6E6E6"/>
<path d="M78.0696 287.574H252.235L249.001 275.932H74.8356L78.0696 287.574Z" fill="#F5F5F5"/>
<path d="M82.0513 287.574H256.208L252.974 275.932H78.8173L82.0513 287.574Z" fill="#E6E6E6"/>
<path d="M272.059 294.512H98.6665V298.696H272.059V294.512Z" fill="#E6E6E6"/>
<path d="M98.6664 294.512H74.8356V298.696H98.6664V294.512Z" fill="#F5F5F5"/>
<path d="M61.7401 123.875C58.4893 116.852 61.0765 111.854 69.0229 111.854C74.0041 111.854 80.1781 113.82 86.2009 117.02C86.8813 115.198 88.7965 114.106 91.8709 114.106C97.2973 114.106 104.765 117.466 110.628 122.262C112.433 121.051 114.562 120.416 116.735 120.439C121.926 120.221 128.209 122.17 133.669 125.328C134.318 124.719 135.182 124.393 136.072 124.421C139.062 124.295 143.111 126.26 145.118 128.797C145.244 128.957 145.354 129.108 145.463 129.268H57.7081C54.9361 126.773 58.0021 124.001 61.7401 123.875Z" fill="#F5F5F5"/>
<path d="M292.244 138.356C292.465 138.344 292.687 138.344 292.908 138.356C292.706 136.063 293.891 134.593 296.436 134.593C298.698 134.746 300.887 135.453 302.811 136.651C302.156 132.199 304.265 129.301 309.019 129.301C312.858 129.301 317.721 131.183 322.526 134.257C322.946 132.51 324.357 131.46 326.726 131.46C330.926 131.46 336.806 134.702 341.594 139.272C342.852 138.128 344.497 137.504 346.197 137.525C350.171 137.315 355.11 139.205 359.486 142.212C359.697 141.936 359.971 141.716 360.286 141.569C360.6 141.423 360.946 141.355 361.292 141.372C363.468 141.263 366.458 142.934 368.205 145.169H288.75C286.877 141.708 288.363 138.743 292.244 138.356Z" fill="#F5F5F5"/>
<path d="M158.575 87.5531C158.793 87.5403 159.012 87.5403 159.23 87.5531C159.029 85.2515 160.222 83.7899 162.758 83.7899C165.023 83.9415 167.216 84.6483 169.142 85.8479C168.487 81.3875 170.587 78.4895 175.342 78.4895C179.189 78.4895 184.044 80.3795 188.849 83.4539C189.269 81.7067 190.68 80.6567 193.049 80.6567C197.249 80.6567 203.129 83.8907 207.917 88.4687C209.178 87.3283 210.82 86.7019 212.52 86.7131C216.493 86.5115 221.432 88.3931 225.809 91.4003C226.02 91.125 226.294 90.9049 226.609 90.7586C226.923 90.6123 227.268 90.5443 227.615 90.5603C229.79 90.4427 232.789 92.1143 234.528 94.3571H155.072C153.208 90.9047 154.694 87.9395 158.575 87.5531Z" fill="#F5F5F5"/>
<path d="M356.807 306.684L341.88 291.757H330.254L343.157 304.66H339.612V321.216H353.262V306.684H356.807Z" fill="#EBEBEB"/>
<path d="M345.181 306.684L330.254 291.757L315.328 306.684H320.897V321.216H339.612V306.684H345.181Z" fill="#FAFAFA"/>
<path d="M210 359.15C299.949 359.15 372.868 354.893 372.868 349.642C372.868 344.39 299.949 340.133 210 340.133C120.051 340.133 47.1324 344.39 47.1324 349.642C47.1324 354.893 120.051 359.15 210 359.15Z" fill="#F5F5F5"/>
<path d="M336.974 90.4848L314.588 68.0988H297.15L316.504 87.4524H311.178V112.274H331.649V90.4848H336.974Z" fill="#8F8E2A"/>
<path opacity="0.4" d="M336.974 90.4848L314.588 68.0988H297.15L316.504 87.4524H311.178V112.274H331.649V90.4848H336.974Z" fill="white"/>
<path d="M319.536 90.4848L297.15 68.0988L274.764 90.4848H283.122V112.274H311.178V90.4848H319.536Z" fill="#8F8E2A"/>
<path opacity="0.7" d="M319.536 90.4848L297.15 68.0988L274.764 90.4848H283.122V112.274H311.178V90.4848H319.536Z" fill="white"/>
<path d="M351.389 179.844L329.003 157.45H311.564L330.918 176.803H325.592V201.625H346.063V179.844H351.389Z" fill="#8F8E2A"/>
<path opacity="0.4" d="M351.389 179.844L329.003 157.45H311.564L330.918 176.803H325.592V201.625H346.063V179.844H351.389Z" fill="white"/>
<path d="M333.95 179.844L311.564 157.45L289.178 179.844H297.528V201.625H325.592V179.844H333.95Z" fill="#8F8E2A"/>
<path opacity="0.7" d="M333.95 179.844L311.564 157.45L289.178 179.844H297.528V201.625H325.592V179.844H333.95Z" fill="white"/>
<path d="M250.639 203.12L228.245 180.734H210.815L230.168 200.08H224.843V224.91H245.314V203.12H250.639Z" fill="#8F8E2A"/>
<path opacity="0.4" d="M250.639 203.12L228.245 180.734H210.815L230.168 200.08H224.843V224.91H245.314V203.12H250.639Z" fill="white"/>
<path d="M233.201 203.12L210.815 180.734L188.429 203.12H196.778V224.902H224.843V203.12H233.201Z" fill="#8F8E2A"/>
<path opacity="0.7" d="M233.201 203.12L210.815 180.734L188.429 203.12H196.778V224.902H224.843V203.12H233.201Z" fill="white"/>
<path d="M249.303 127.898H237.258L235.536 126.185L221.55 100.145L249.303 127.898Z" fill="#2F54C6"/>
<path d="M237.216 153.191H262.592V122.413H237.216V153.191Z" fill="#8F8E2A"/>
<path opacity="0.3" d="M237.216 153.191H262.592V122.413H237.216V153.191Z" fill="black"/>
<path d="M247.581 126.185H269.203L241.441 98.4227H219.828L247.581 126.185Z" fill="#8F8E2A"/>
<path opacity="0.3" d="M247.581 126.185H269.203L241.441 98.4227H219.828L247.581 126.185Z" fill="black"/>
<path d="M237.216 118.398V153.191H202.431V118.398L219.828 101.506L220.004 101.682L221.55 103.177L237.216 118.398Z" fill="#8F8E2A"/>
<path opacity="0.3" d="M221.55 100.145V112.19L205.833 127.898H202.431V119.263L220.004 101.682L221.55 100.145Z" fill="black"/>
<path d="M247.581 126.185H235.536L219.828 110.468V98.4227L247.581 126.185Z" fill="#8F8E2A"/>
<path d="M192.066 126.185H204.112L219.828 110.468V98.4227L192.066 126.185Z" fill="#8F8E2A"/>
<path d="M188.16 161.599C180.995 167.412 173.603 172.88 166.169 178.256C158.735 183.632 151.2 188.857 143.64 194.04C136.08 199.223 128.394 204.212 120.674 209.16C116.836 211.68 112.938 214.066 109.066 216.518C107.156 217.835 105.045 218.833 102.816 219.475C101.608 219.801 100.369 220.004 99.12 220.08C97.7162 220.196 96.3031 220.12 94.92 219.853C93.8371 219.633 92.8084 219.201 91.8927 218.583C90.977 217.964 90.1923 217.171 89.5837 216.248C88.975 215.326 88.5543 214.293 88.3457 213.208C88.1371 212.122 88.1447 211.007 88.368 209.924C88.368 209.798 88.4268 209.639 88.4604 209.504C88.8373 208.144 89.4028 206.844 90.1404 205.64C90.761 204.569 91.49 203.564 92.316 202.642C93.872 200.921 95.6959 199.463 97.7172 198.324C101.623 195.922 105.496 193.477 109.418 191.125C117.239 186.346 125.135 181.7 133.073 177.114C141.011 172.528 149.033 168.084 157.122 163.75C165.211 159.415 173.368 155.19 181.734 151.292C183.084 150.707 184.599 150.626 186.004 151.064C187.408 151.501 188.609 152.429 189.387 153.677C190.166 154.926 190.47 156.412 190.245 157.866C190.02 159.32 189.28 160.645 188.16 161.599Z" fill="#8F8E2A"/>
<path d="M188.16 161.599C180.995 167.412 173.603 172.88 166.169 178.256C158.735 183.632 151.2 188.857 143.64 194.04C136.08 199.223 128.394 204.212 120.674 209.16C116.836 211.68 112.938 214.066 109.066 216.518C107.156 217.835 105.045 218.833 102.816 219.475C101.608 219.801 100.369 220.004 99.12 220.08C97.7162 220.196 96.3031 220.12 94.92 219.853C93.8371 219.633 92.8084 219.201 91.8927 218.583C90.977 217.964 90.1923 217.171 89.5837 216.248C88.975 215.326 88.5543 214.293 88.3457 213.208C88.1371 212.122 88.1447 211.007 88.368 209.924C88.368 209.798 88.4268 209.639 88.4604 209.504C88.8373 208.144 89.4028 206.844 90.1404 205.64C90.761 204.569 91.49 203.564 92.316 202.642C93.872 200.921 95.6959 199.463 97.7172 198.324C101.623 195.922 105.496 193.477 109.418 191.125C117.239 186.346 125.135 181.7 133.073 177.114C141.011 172.528 149.033 168.084 157.122 163.75C165.211 159.415 173.368 155.19 181.734 151.292C183.084 150.707 184.599 150.626 186.004 151.064C187.408 151.501 188.609 152.429 189.387 153.677C190.166 154.926 190.47 156.412 190.245 157.866C190.02 159.32 189.28 160.645 188.16 161.599Z" fill="#8F8E2A"/>
<path opacity="0.5" d="M188.16 161.599C180.995 167.412 173.603 172.88 166.169 178.256C158.735 183.632 151.2 188.857 143.64 194.04C136.08 199.223 128.394 204.212 120.674 209.16C116.836 211.68 112.938 214.066 109.066 216.518C107.156 217.835 105.045 218.833 102.816 219.475C101.608 219.801 100.369 220.004 99.12 220.08C97.7162 220.196 96.3031 220.12 94.92 219.853C93.8371 219.633 92.8084 219.201 91.8927 218.583C90.977 217.964 90.1923 217.171 89.5837 216.248C88.975 215.326 88.5543 214.293 88.3457 213.208C88.1371 212.122 88.1447 211.007 88.368 209.924C88.368 209.798 88.4268 209.639 88.4604 209.504C88.8373 208.144 89.4028 206.844 90.1404 205.64C90.761 204.569 91.49 203.564 92.316 202.642C93.872 200.921 95.6959 199.463 97.7172 198.324C101.623 195.922 105.496 193.477 109.418 191.125C117.239 186.346 125.135 181.7 133.073 177.114C141.011 172.528 149.033 168.084 157.122 163.75C165.211 159.415 173.368 155.19 181.734 151.292C183.084 150.707 184.599 150.626 186.004 151.064C187.408 151.501 188.609 152.429 189.387 153.677C190.166 154.926 190.47 156.412 190.245 157.866C190.02 159.32 189.28 160.645 188.16 161.599Z" fill="white"/>
<path d="M157.164 342.409L164.018 340.822L160.809 324.836L153.955 326.424L157.164 342.409Z" fill="#EBB376"/>
<path d="M110.947 151.393C109.998 154.753 109.082 158.29 108.209 161.75C107.335 165.211 106.529 168.722 105.857 172.217C105.487 173.956 105.168 175.736 104.891 177.374C104.614 179.012 104.454 180.734 104.353 182.456C104.265 184.169 104.265 185.885 104.353 187.597C104.353 188.437 104.462 189.277 104.546 190.168C104.63 191.058 104.782 191.906 104.899 192.637L101.539 193.906C101.098 193.003 100.719 192.071 100.405 191.117C100.077 190.2 99.7962 189.266 99.5652 188.32C99.1056 186.431 98.7911 184.51 98.6245 182.574C98.4689 180.618 98.4409 178.654 98.5404 176.694C98.6748 174.712 98.91 172.889 99.1704 171.041C99.6996 167.353 100.38 163.699 101.186 160.121C101.993 156.542 102.866 152.939 104 149.318L110.947 151.393Z" fill="#EBB376"/>
<path d="M101.06 152.552L108.125 158.18L112.367 161.54C112.367 161.54 112.812 160.356 113.35 158.659C114.374 155.383 115.71 150.192 114.786 147.806C113.333 144.026 110.586 140.616 107.108 141.372C104.16 142.036 101.06 152.552 101.06 152.552Z" fill="#263238"/>
<path d="M110.821 342.46H117.852L117.306 326.164H110.267L110.821 342.46Z" fill="#EBB376"/>
<path d="M160.81 324.845L162.532 333.404L155.61 334.664L153.947 326.432L160.81 324.845Z" fill="#DA9D62"/>
<path d="M110.267 326.164H117.306L117.583 334.564H110.544L110.267 326.164Z" fill="#DA9D62"/>
<path d="M133.199 184.061C133.199 184.061 129.117 232.352 124.883 259.568C121.464 281.551 118.759 332.942 118.759 332.942H109.2C109.2 332.942 104.631 283.315 106.369 261.542C110.763 206.531 103.009 196.787 112.207 184.036L133.199 184.061Z" fill="#8F8E2A"/>
<path opacity="0.6" d="M133.199 184.061C133.199 184.061 129.117 232.352 124.883 259.568C121.464 281.551 118.759 332.942 118.759 332.942H109.2C109.2 332.942 104.631 283.315 106.369 261.542C110.763 206.531 103.009 196.787 112.207 184.036L133.199 184.061Z" fill="black"/>
<path d="M102.001 193.36L97.8516 196.182L98.4396 198.593C98.4396 198.593 107.083 194.107 104.773 192.31L102.001 193.36Z" fill="#EBB376"/>
<path d="M120.817 342.871C120.191 342.855 119.569 342.771 118.961 342.619C118.93 342.61 118.902 342.592 118.88 342.569C118.858 342.545 118.842 342.516 118.835 342.485C118.83 342.452 118.834 342.419 118.848 342.39C118.861 342.36 118.883 342.334 118.91 342.317C119.154 342.157 121.279 340.78 122.102 341.149C122.196 341.19 122.276 341.255 122.335 341.338C122.395 341.421 122.43 341.518 122.438 341.62C122.471 341.778 122.463 341.942 122.414 342.097C122.366 342.251 122.279 342.39 122.161 342.502C121.772 342.782 121.295 342.913 120.817 342.871ZM119.431 342.376C120.658 342.628 121.582 342.577 121.951 342.258C122.028 342.181 122.085 342.087 122.116 341.982C122.147 341.878 122.151 341.768 122.128 341.662C122.125 341.617 122.11 341.574 122.085 341.537C122.06 341.5 122.025 341.471 121.985 341.452C121.54 341.258 120.305 341.88 119.431 342.376Z" fill="#8F8E2A"/>
<path d="M119.003 342.619C118.975 342.628 118.946 342.628 118.919 342.619C118.894 342.604 118.874 342.583 118.859 342.558C118.844 342.533 118.836 342.505 118.835 342.476C118.835 342.384 118.835 340.36 119.608 339.679C119.701 339.591 119.813 339.526 119.935 339.488C120.057 339.45 120.187 339.441 120.313 339.461C120.446 339.462 120.574 339.508 120.676 339.592C120.779 339.676 120.849 339.793 120.876 339.923C121.036 340.763 119.75 342.241 119.087 342.619C119.059 342.627 119.03 342.627 119.003 342.619ZM120.196 339.772C120.06 339.775 119.929 339.825 119.826 339.914C119.385 340.568 119.159 341.344 119.179 342.132C119.843 341.594 120.649 340.452 120.548 339.973C120.548 339.898 120.49 339.797 120.271 339.772H120.196Z" fill="#8F8E2A"/>
<path d="M164.64 339.763C164.609 339.761 164.578 339.751 164.552 339.734C164.526 339.716 164.505 339.692 164.491 339.664C164.478 339.636 164.472 339.604 164.474 339.573C164.477 339.542 164.487 339.512 164.505 339.486C164.732 339.217 166.689 336.916 167.689 336.916H167.756C167.847 336.922 167.935 336.953 168.011 337.004C168.086 337.056 168.146 337.127 168.185 337.21C168.252 337.339 168.288 337.483 168.288 337.63C168.288 337.776 168.252 337.92 168.185 338.05C167.748 338.974 165.774 339.494 164.631 339.73L164.64 339.763ZM167.681 337.243C167.135 337.243 165.925 338.386 165.093 339.318C166.631 338.957 167.672 338.478 167.916 337.932C167.965 337.846 167.991 337.749 167.991 337.651C167.991 337.552 167.965 337.455 167.916 337.369C167.901 337.335 167.878 337.306 167.849 337.284C167.819 337.262 167.784 337.248 167.748 337.243H167.681Z" fill="#8F8E2A"/>
<path d="M164.64 339.763C164.612 339.759 164.585 339.746 164.564 339.727C164.543 339.707 164.529 339.682 164.522 339.654C164.522 339.578 163.917 337.764 164.455 336.748C164.529 336.599 164.633 336.467 164.76 336.36C164.887 336.253 165.035 336.173 165.194 336.126C165.64 335.992 165.858 336.126 165.95 336.319C166.379 337.008 165.429 339.041 164.799 339.679C164.783 339.706 164.759 339.728 164.731 339.743C164.703 339.758 164.672 339.765 164.64 339.763ZM165.48 336.403C165.416 336.393 165.351 336.393 165.287 336.403C165.169 336.437 165.06 336.495 164.966 336.573C164.872 336.651 164.795 336.747 164.741 336.857C164.497 337.622 164.497 338.444 164.741 339.209C165.337 338.369 165.917 336.865 165.665 336.454C165.637 336.42 165.599 336.396 165.556 336.387C165.513 336.378 165.469 336.384 165.429 336.403H165.48Z" fill="#8F8E2A"/>
<path d="M119.616 124.379C120.456 128.579 122.136 136.979 119.238 139.793C119.238 139.793 120.38 143.993 128.142 143.993C136.668 143.993 132.216 139.793 132.216 139.793C127.562 138.684 127.68 135.232 128.495 131.981L119.616 124.379Z" fill="#EBB376"/>
<path d="M136.567 115.424C136.498 115.426 136.431 115.405 136.374 115.366C136.338 115.34 136.308 115.307 136.284 115.269C136.261 115.232 136.245 115.19 136.238 115.146C136.231 115.102 136.233 115.058 136.243 115.015C136.254 114.972 136.272 114.931 136.298 114.895C136.602 114.464 137.002 114.109 137.468 113.861C137.933 113.613 138.451 113.478 138.978 113.467C139.057 113.48 139.129 113.52 139.181 113.581C139.233 113.642 139.261 113.719 139.261 113.799C139.261 113.879 139.233 113.956 139.181 114.017C139.129 114.078 139.057 114.118 138.978 114.131C138.559 114.142 138.148 114.253 137.78 114.455C137.412 114.657 137.097 114.943 136.861 115.29C136.828 115.336 136.783 115.372 136.732 115.396C136.68 115.42 136.624 115.429 136.567 115.424Z" fill="#263238"/>
<path d="M138.432 119.431C138.885 120.747 139.518 121.994 140.314 123.136C140.015 123.329 139.678 123.456 139.325 123.507C138.973 123.557 138.614 123.531 138.272 123.43L138.432 119.431Z" fill="#DE5753"/>
<path d="M137.962 118.44C137.962 119.011 138.222 119.482 138.592 119.49C138.961 119.498 139.28 119.062 139.306 118.49C139.331 117.919 139.045 117.457 138.676 117.44C138.306 117.424 137.987 117.877 137.962 118.44Z" fill="#263238"/>
<path d="M138.508 117.466L139.885 117.13C139.885 117.13 139.146 118.163 138.508 117.466Z" fill="#263238"/>
<path d="M118.44 341.645H110.536C110.399 341.64 110.265 341.686 110.161 341.775C110.057 341.863 109.99 341.988 109.973 342.124L109.074 348.373C109.055 348.532 109.07 348.692 109.118 348.844C109.166 348.996 109.246 349.136 109.352 349.255C109.459 349.373 109.59 349.468 109.736 349.532C109.882 349.595 110.04 349.627 110.2 349.625C112.955 349.583 114.282 349.415 117.76 349.415C119.902 349.415 123.018 349.642 125.975 349.642C128.932 349.642 129.083 346.718 127.856 346.458C122.346 345.265 121.472 343.636 119.616 342.073C119.285 341.799 118.87 341.647 118.44 341.645Z" fill="#263238"/>
<path d="M163.884 339.016L156.584 342.048C156.458 342.097 156.354 342.191 156.292 342.312C156.23 342.433 156.214 342.572 156.248 342.703L157.811 348.827C157.855 348.98 157.931 349.121 158.034 349.242C158.137 349.363 158.265 349.461 158.409 349.53C158.552 349.598 158.709 349.635 158.868 349.638C159.027 349.642 159.185 349.611 159.331 349.549C161.851 348.449 163.027 347.794 166.236 346.458C168.21 345.618 172.385 344.148 175.115 343.014C177.845 341.88 176.862 339.125 175.627 339.352C170.083 340.376 167.445 339.696 165.135 338.965C164.725 338.834 164.282 338.852 163.884 339.016Z" fill="#263238"/>
<path d="M147.991 148.504C149.36 151.729 150.839 155.03 152.334 158.239C153.09 159.852 153.877 161.437 154.694 162.994C155.534 164.556 156.374 166.085 157.214 167.546C157.66 168.269 158.105 168.991 158.567 169.655L159.256 170.612C159.397 170.812 159.557 170.998 159.734 171.167C160.651 171.963 161.794 172.45 163.002 172.561C165.866 172.973 169.462 172.393 172.679 171.528L174.174 174.762C173.324 175.273 172.443 175.73 171.536 176.131C170.644 176.547 169.727 176.906 168.79 177.206C166.814 177.879 164.744 178.233 162.658 178.256C161.494 178.267 160.335 178.114 159.214 177.803C157.969 177.46 156.799 176.891 155.761 176.123C155.23 175.719 154.738 175.266 154.291 174.77C153.913 174.342 153.636 173.981 153.3 173.578C152.67 172.788 152.107 171.99 151.544 171.192C149.451 168.042 147.566 164.759 145.9 161.364C144.22 158.004 142.708 154.644 141.313 151.166L147.991 148.504Z" fill="#EBB376"/>
<path d="M171.956 175.157L179.634 173.947L177.593 169.596C177.593 169.596 171.646 170.629 170.503 173.317L171.956 175.157Z" fill="#EBB376"/>
<path d="M179.626 170.554L178.786 168.697L177.593 169.596L179.626 173.947V170.554Z" fill="#EBB376"/>
<path d="M118.978 115.744C119.129 122.724 119.045 125.681 122.422 129.394C127.462 134.98 136.046 133.266 137.978 126.378C139.717 120.179 139.171 109.805 132.468 106.764C130.992 106.087 129.368 105.799 127.749 105.927C126.13 106.054 124.571 106.594 123.22 107.493C121.868 108.393 120.769 109.623 120.026 111.067C119.284 112.511 118.923 114.121 118.978 115.744Z" fill="#EBB376"/>
<path d="M113.35 103.135C120.523 97.9356 128.537 100.884 132.922 104.479C137.508 108.242 136.777 115.475 133.972 118.465C134.263 118.908 134.455 119.407 134.536 119.93C134.618 120.453 134.585 120.988 134.442 121.498C134.796 123.735 134.304 126.025 133.062 127.92C131.819 129.814 129.916 131.178 127.722 131.746L127.327 131.846C118.364 133.98 108.007 127.915 106.445 118.843C105.496 113.308 107.008 107.722 113.35 103.135Z" fill="#263238"/>
<path d="M132.367 118.978C132.482 120.294 133.045 121.53 133.963 122.48C135.206 123.766 136.483 123.026 136.71 121.506C136.903 120.137 136.492 117.818 134.98 117.088C133.468 116.357 132.258 117.424 132.367 118.978Z" fill="#EBB376"/>
<path opacity="0.3" d="M123.48 206.64C122.682 221.071 126.16 231.966 127.747 238.342C128.873 228.917 129.906 219.08 130.771 210.403C127.806 200.575 124.06 195.779 123.48 206.64Z" fill="black"/>
<path d="M120.078 333.127H107.856L107.209 328.843L120.145 328.406L120.078 333.127Z" fill="#8F8E2A"/>
<path opacity="0.3" d="M108.125 158.18L112.367 161.54C112.367 161.54 112.812 160.356 113.35 158.659L110.83 146.185L108.125 158.18Z" fill="black"/>
<path d="M117.348 104.303C119.54 101.875 126.991 98.1708 133.383 101.077C135.207 101.908 136.752 103.247 137.834 104.933C138.915 106.62 139.488 108.582 139.482 110.586L133.72 114.45L117.348 104.303Z" fill="#263238"/>
<path d="M111.468 110.678C114.635 108.083 118.188 98.6748 111.468 101.951C104.748 105.227 102.707 117.86 111.468 110.678Z" fill="#8F8E2A"/>
<path d="M112.182 104.647C113.551 100.649 104.521 92.694 98.4312 100.254C92.3412 107.814 108.242 116.155 112.182 104.647Z" fill="#263238"/>
<path d="M126.311 110.225C121.061 107.99 118.448 99.5232 127.462 99.7668C136.475 100.01 136.214 114.45 126.311 110.225Z" fill="#8F8E2A"/>
<path d="M124.614 105.84C121.43 101.867 124.95 91.6524 134.081 94.92C143.212 98.1876 131.922 114.92 124.614 105.84Z" fill="#263238"/>
<path d="M140.75 184.061C140.75 184.061 148.68 238.241 151.469 259.56C154.367 281.694 162.834 331.321 162.834 331.321L153.426 332.758C153.426 332.758 138.558 285.424 134.417 263.878C129.898 240.4 120.977 184.078 120.977 184.078L140.75 184.061Z" fill="#8F8E2A"/>
<path opacity="0.6" d="M140.75 184.061C140.75 184.061 148.68 238.241 151.469 259.56C154.367 281.694 162.834 331.321 162.834 331.321L153.426 332.758C153.426 332.758 138.558 285.424 134.417 263.878C129.898 240.4 120.977 184.078 120.977 184.078L140.75 184.061Z" fill="black"/>
<path d="M144.11 141.599C147.605 142.439 151.914 152.048 151.914 152.048L143.589 162.716C143.589 162.716 134.988 150.545 136.139 146.832C137.331 142.96 139.868 140.566 144.11 141.599Z" fill="#263238"/>
<path d="M132.72 141.162C133.871 141.33 132.804 138.701 132.325 138.424C131.225 137.768 117.205 136.45 117.365 137.928C117.45 138.81 117.828 139.639 118.44 140.28C119.07 140.7 122.64 139.541 132.72 141.162Z" fill="#8F8E2A"/>
<path opacity="0.6" d="M132.72 141.162C133.871 141.33 132.804 138.701 132.325 138.424C131.225 137.768 117.205 136.45 117.365 137.928C117.45 138.81 117.828 139.639 118.44 140.28C119.07 140.7 122.64 139.541 132.72 141.162Z" fill="white"/>
<path d="M144.11 141.599C144.11 141.599 147.47 142.775 140.75 184.061H112.19C112.669 172.435 112.686 165.262 107.15 141.389C111.15 140.563 115.203 140.03 119.28 139.793C123.6 139.482 127.938 139.482 132.258 139.793C137.76 140.28 144.11 141.599 144.11 141.599Z" fill="#263238"/>
<path d="M111.72 182.389L110.435 184.909C110.334 185.111 110.569 185.312 110.897 185.312H140.868C141.12 185.312 141.338 185.186 141.355 185.018L141.607 182.498C141.607 182.322 141.406 182.171 141.12 182.171H112.207C112.114 182.158 112.018 182.172 111.932 182.21C111.846 182.249 111.773 182.311 111.72 182.389Z" fill="#8F8E2A"/>
<path opacity="0.6" d="M111.72 182.389L110.435 184.909C110.334 185.111 110.569 185.312 110.897 185.312H140.868C141.12 185.312 141.338 185.186 141.355 185.018L141.607 182.498C141.607 182.322 141.406 182.171 141.12 182.171H112.207C112.114 182.158 112.018 182.172 111.932 182.21C111.846 182.249 111.773 182.311 111.72 182.389Z" fill="white"/>
<path d="M115.634 185.64H114.853C114.702 185.64 114.584 185.556 114.593 185.464L114.962 182.104C114.962 182.003 115.105 181.927 115.256 181.927H116.038C116.189 181.927 116.306 182.003 116.298 182.104L115.928 185.464C115.92 185.539 115.786 185.64 115.634 185.64Z" fill="#8F8E2A"/>
<path d="M134.4 185.64H133.627C133.468 185.64 133.35 185.556 133.367 185.464L133.728 182.104C133.728 182.003 133.871 181.927 134.03 181.927H134.803C134.954 181.927 135.072 182.003 135.064 182.104L134.702 185.464C134.702 185.539 134.568 185.64 134.4 185.64Z" fill="#8F8E2A"/>
<path opacity="0.6" d="M115.634 185.64H114.853C114.702 185.64 114.584 185.556 114.593 185.464L114.962 182.104C114.962 182.003 115.105 181.927 115.256 181.927H116.038C116.189 181.927 116.306 182.003 116.298 182.104L115.928 185.464C115.92 185.539 115.786 185.64 115.634 185.64Z" fill="black"/>
<path opacity="0.6" d="M134.4 185.64H133.627C133.468 185.64 133.35 185.556 133.367 185.464L133.728 182.104C133.728 182.003 133.871 181.927 134.03 181.927H134.803C134.954 181.927 135.072 182.003 135.064 182.104L134.702 185.464C134.702 185.539 134.568 185.64 134.4 185.64Z" fill="black"/>
<path d="M164.22 331.321L152.174 333.371L150.805 328.826L163.699 326.617L164.22 331.321Z" fill="#8F8E2A"/>
<path d="M284.264 96.8184C277.857 86.5588 268.552 78.4294 257.524 73.4581C246.497 68.4869 234.244 66.8972 222.313 68.8899C210.382 70.8826 199.31 76.3683 190.497 84.6534C181.684 92.9384 175.526 103.651 172.801 115.436C170.076 127.221 170.906 139.549 175.187 150.862C179.469 162.175 187.008 171.964 196.853 178.992C206.698 186.02 218.406 189.971 230.496 190.346C242.586 190.72 254.516 187.501 264.776 181.096C271.59 176.842 277.499 171.288 282.166 164.75C286.834 158.213 290.167 150.82 291.977 142.994C293.786 135.168 294.037 127.062 292.713 119.139C291.39 111.216 288.519 103.632 284.264 96.8184ZM191.453 154.778C186.399 146.682 183.859 137.269 184.155 127.729C184.45 118.189 187.568 108.951 193.114 101.184C198.66 93.4158 206.385 87.4669 215.311 84.0892C224.238 80.7115 233.966 80.0567 243.265 82.2076C252.563 84.3584 261.016 89.2184 267.552 96.1728C274.089 103.127 278.417 111.864 279.989 121.278C281.56 130.692 280.305 140.361 276.382 149.061C272.458 157.762 266.043 165.104 257.947 170.159C252.571 173.515 246.586 175.779 240.334 176.822C234.083 177.865 227.687 177.666 221.512 176.237C215.338 174.808 209.505 172.177 204.347 168.494C199.19 164.81 194.808 160.147 191.453 154.77V154.778Z" fill="#8F8E2A"/>
<path d="M284.264 96.8184C277.857 86.5588 268.552 78.4294 257.524 73.4581C246.497 68.4869 234.244 66.8972 222.313 68.8899C210.382 70.8826 199.31 76.3683 190.497 84.6534C181.684 92.9384 175.526 103.651 172.801 115.436C170.076 127.221 170.906 139.549 175.187 150.862C179.469 162.175 187.008 171.964 196.853 178.992C206.698 186.02 218.406 189.971 230.496 190.346C242.586 190.72 254.516 187.501 264.776 181.096C271.59 176.842 277.499 171.288 282.166 164.75C286.834 158.213 290.167 150.82 291.977 142.994C293.786 135.168 294.037 127.062 292.713 119.139C291.39 111.216 288.519 103.632 284.264 96.8184ZM191.453 154.778C186.399 146.682 183.859 137.269 184.155 127.729C184.45 118.189 187.568 108.951 193.114 101.184C198.66 93.4158 206.385 87.4669 215.311 84.0892C224.238 80.7115 233.966 80.0567 243.265 82.2076C252.563 84.3584 261.016 89.2184 267.552 96.1728C274.089 103.127 278.417 111.864 279.989 121.278C281.56 130.692 280.305 140.361 276.382 149.061C272.458 157.762 266.043 165.104 257.947 170.159C252.571 173.515 246.586 175.779 240.334 176.822C234.083 177.865 227.687 177.666 221.512 176.237C215.338 174.808 209.505 172.177 204.347 168.494C199.19 164.81 194.808 160.147 191.453 154.77V154.778Z" fill="#8F8E2A"/>
<path opacity="0.5" d="M284.264 96.8184C277.857 86.5588 268.552 78.4294 257.524 73.4581C246.497 68.4869 234.244 66.8972 222.313 68.8899C210.382 70.8826 199.31 76.3683 190.497 84.6534C181.684 92.9384 175.526 103.651 172.801 115.436C170.076 127.221 170.906 139.549 175.187 150.862C179.469 162.175 187.008 171.964 196.853 178.992C206.698 186.02 218.406 189.971 230.496 190.346C242.586 190.72 254.516 187.501 264.776 181.096C271.59 176.842 277.499 171.288 282.166 164.75C286.834 158.213 290.167 150.82 291.977 142.994C293.786 135.168 294.037 127.062 292.713 119.139C291.39 111.216 288.519 103.632 284.264 96.8184ZM191.453 154.778C186.399 146.682 183.859 137.269 184.155 127.729C184.45 118.189 187.568 108.951 193.114 101.184C198.66 93.4158 206.385 87.4669 215.311 84.0892C224.238 80.7115 233.966 80.0567 243.265 82.2076C252.563 84.3584 261.016 89.2184 267.552 96.1728C274.089 103.127 278.417 111.864 279.989 121.278C281.56 130.692 280.305 140.361 276.382 149.061C272.458 157.762 266.043 165.104 257.947 170.159C252.571 173.515 246.586 175.779 240.334 176.822C234.083 177.865 227.687 177.666 221.512 176.237C215.338 174.808 209.505 172.177 204.347 168.494C199.19 164.81 194.808 160.147 191.453 154.77V154.778Z" fill="white"/>
<path opacity="0.2" d="M277.368 101.128C282.92 110.025 285.71 120.368 285.384 130.85C285.059 141.333 281.632 151.483 275.538 160.018C269.444 168.553 260.956 175.089 251.148 178.801C241.339 182.512 230.65 183.232 220.432 180.869C210.215 178.506 200.927 173.166 193.744 165.525C186.561 157.884 181.804 148.285 180.076 137.941C178.348 127.597 179.726 116.973 184.036 107.412C188.345 97.851 195.393 89.7826 204.288 84.2268C210.196 80.5367 216.773 78.0467 223.643 76.899C230.514 75.7513 237.543 75.9684 244.329 77.5378C251.116 79.1073 257.526 81.9984 263.195 86.046C268.864 90.0936 273.68 95.2184 277.368 101.128Z" fill="#FAFAFA"/>
<path opacity="0.1" d="M284.903 121.708L202.583 173.099C195.87 168.544 190.292 162.509 186.278 155.459L276.158 99.3384C280.745 106.028 283.736 113.681 284.903 121.708Z" fill="#E6E6E6"/>
</svg>
