<svg width="48" height="48" viewBox="0 0 48 48" fill="none" xmlns="http://www.w3.org/2000/svg">
<path fill-rule="evenodd" clip-rule="evenodd" d="M9 4.5C8.17157 4.5 7.5 5.17157 7.5 6C7.5 6.82843 8.17157 7.5 9 7.5V40.5H7.5C6.67157 40.5 6 41.1716 6 42C6 42.8284 6.67157 43.5 7.5 43.5H40.5C41.3284 43.5 42 42.8284 42 42C42 41.1716 41.3284 40.5 40.5 40.5H39V7.5C39.8284 7.5 40.5 6.82843 40.5 6C40.5 5.17157 39.8284 4.5 39 4.5H9ZM18 12C17.1716 12 16.5 12.6716 16.5 13.5C16.5 14.3284 17.1716 15 18 15H21C21.8284 15 22.5 14.3284 22.5 13.5C22.5 12.6716 21.8284 12 21 12H18ZM16.5 19.5C16.5 18.6716 17.1716 18 18 18H21C21.8284 18 22.5 18.6716 22.5 19.5C22.5 20.3284 21.8284 21 21 21H18C17.1716 21 16.5 20.3284 16.5 19.5ZM18 24C17.1716 24 16.5 24.6716 16.5 25.5C16.5 26.3284 17.1716 27 18 27H21C21.8284 27 22.5 26.3284 22.5 25.5C22.5 24.6716 21.8284 24 21 24H18ZM25.5 13.5C25.5 12.6716 26.1716 12 27 12H30C30.8284 12 31.5 12.6716 31.5 13.5C31.5 14.3284 30.8284 15 30 15H27C26.1716 15 25.5 14.3284 25.5 13.5ZM27 18C26.1716 18 25.5 18.6716 25.5 19.5C25.5 20.3284 26.1716 21 27 21H30C30.8284 21 31.5 20.3284 31.5 19.5C31.5 18.6716 30.8284 18 30 18H27ZM25.5 25.5C25.5 24.6716 26.1716 24 27 24H30C30.8284 24 31.5 24.6716 31.5 25.5C31.5 26.3284 30.8284 27 30 27H27C26.1716 27 25.5 26.3284 25.5 25.5ZM18 39V34.5C18 33.6716 18.6716 33 19.5 33H28.5C29.3284 33 30 33.6716 30 34.5V39C30 39.8284 29.3284 40.5 28.5 40.5H19.5C18.6716 40.5 18 39.8284 18 39Z" fill="currentColor"/>
</svg>
