<svg width="48" height="48" viewBox="0 0 48 48" fill="none" xmlns="http://www.w3.org/2000/svg">
<path fill-rule="evenodd" clip-rule="evenodd" d="M6 4.5C5.17157 4.5 4.5 5.17157 4.5 6C4.5 6.82843 5.17157 7.5 6 7.5V40.5H4.5C3.67157 40.5 3 41.1716 3 42C3 42.8284 3.67157 43.5 4.5 43.5H30V7.5C30.8284 7.5 31.5 6.82843 31.5 6C31.5 5.17157 30.8284 4.5 30 4.5H6ZM13.5 39V34.5C13.5 33.6716 14.1716 33 15 33H21C21.8284 33 22.5 33.6716 22.5 34.5V39C22.5 39.8284 21.8284 40.5 21 40.5H15C14.1716 40.5 13.5 39.8284 13.5 39ZM12 13.5C12 12.6716 12.6716 12 13.5 12H15C15.8284 12 16.5 12.6716 16.5 13.5C16.5 14.3284 15.8284 15 15 15H13.5C12.6716 15 12 14.3284 12 13.5ZM13.5 18C12.6716 18 12 18.6716 12 19.5C12 20.3284 12.6716 21 13.5 21H15C15.8284 21 16.5 20.3284 16.5 19.5C16.5 18.6716 15.8284 18 15 18H13.5ZM12 25.5C12 24.6716 12.6716 24 13.5 24H15C15.8284 24 16.5 24.6716 16.5 25.5C16.5 26.3284 15.8284 27 15 27H13.5C12.6716 27 12 26.3284 12 25.5ZM21 12C20.1716 12 19.5 12.6716 19.5 13.5C19.5 14.3284 20.1716 15 21 15H22.5C23.3284 15 24 14.3284 24 13.5C24 12.6716 23.3284 12 22.5 12H21ZM19.5 19.5C19.5 18.6716 20.1716 18 21 18H22.5C23.3284 18 24 18.6716 24 19.5C24 20.3284 23.3284 21 22.5 21H21C20.1716 21 19.5 20.3284 19.5 19.5ZM21 24C20.1716 24 19.5 24.6716 19.5 25.5C19.5 26.3284 20.1716 27 21 27H22.5C23.3284 27 24 26.3284 24 25.5C24 24.6716 23.3284 24 22.5 24H21Z" fill="#AEADAD"/>
<path fill-rule="evenodd" clip-rule="evenodd" d="M33 13.5V43.5H43.5C44.3284 43.5 45 42.8284 45 42C45 41.1716 44.3284 40.5 43.5 40.5H42V16.5C42.8284 16.5 43.5 15.8284 43.5 15C43.5 14.1716 42.8284 13.5 42 13.5H33ZM36 22.5C36 21.6716 36.6716 21 37.5 21H37.515C38.3434 21 39.015 21.6716 39.015 22.5V22.515C39.015 23.3434 38.3434 24.015 37.515 24.015H37.5C36.6716 24.015 36 23.3434 36 22.515V22.5ZM37.5 27C36.6716 27 36 27.6716 36 28.5V28.515C36 29.3434 36.6716 30.015 37.5 30.015H37.515C38.3434 30.015 39.015 29.3434 39.015 28.515V28.5C39.015 27.6716 38.3434 27 37.515 27H37.5ZM36 34.5C36 33.6716 36.6716 33 37.5 33H37.515C38.3434 33 39.015 33.6716 39.015 34.5V34.515C39.015 35.3434 38.3434 36.015 37.515 36.015H37.5C36.6716 36.015 36 35.3434 36 34.515V34.5Z" fill="#AEADAD"/>
</svg>
