<svg width="48" height="48" viewBox="0 0 48 48" fill="none" xmlns="http://www.w3.org/2000/svg">
<path d="M38.0123 7.40967C38.7908 7.12656 39.1925 6.26592 38.9094 5.48737C38.6263 4.70882 37.7656 4.30718 36.9871 4.59029L12 13.6765V5.99998C12 5.17156 11.3284 4.49998 10.5 4.49998H7.5C6.67157 4.49998 6 5.17156 6 5.99998V15.8583L3.98706 16.5903C3.20851 16.8734 2.80688 17.734 3.08999 18.5126C3.37309 19.2911 4.23374 19.6928 5.01229 19.4097L38.0123 7.40967Z" fill="#AEADAD"/>
<path fill-rule="evenodd" clip-rule="evenodd" d="M6.03791 22.229L36 11.3337V18.1767L44.0123 21.0903C44.7908 21.3734 45.1925 22.234 44.9094 23.0126C44.6263 23.7911 43.7656 24.1928 42.9871 23.9097L41.9997 23.5506V40.5H43.5C44.3284 40.5 45 41.1716 45 42C45 42.8284 44.3284 43.5 43.5 43.5H4.5C3.67157 43.5 3 42.8284 3 42C3 41.1716 3.67157 40.5 4.5 40.5H6V22.2426L6.03791 22.229ZM36 40.5V21.3689L38.9997 22.4597V40.5H36ZM18 28.5C17.1716 28.5 16.5 29.1716 16.5 30V39C16.5 39.8284 17.1716 40.5 18 40.5H24C24.8284 40.5 25.5 39.8284 25.5 39V30C25.5 29.1716 24.8284 28.5 24 28.5H18Z" fill="#AEADAD"/>
</svg>
