<?xml version="1.0" encoding="utf-8"?>
<!-- Generator: Adobe Illustrator 28.1.0, SVG Export Plug-In . SVG Version: 6.00 Build 0)  -->
<svg version="1.1" id="Capa_1" xmlns="http://www.w3.org/2000/svg" xmlns:xlink="http://www.w3.org/1999/xlink" x="0px" y="0px"
	 viewBox="0 0 670.5 454.4" style="enable-background:new 0 0 670.5 454.4;" xml:space="preserve">
<style type="text/css">
	.st0{fill:#263238;}
	.st1{fill:#FFFFFF;}
	.st2{fill:#E0E0E0;}
	.st3{fill:#F5F5F5;}
	.st4{fill:#EBEBEB;}
	.st5{fill:#C93B3B;}
	.st6{fill:#932424;}
	.st7{clip-path:url(#SVGID_00000005261834601288835970000005926592690363100070_);}
	.st8{fill:none;}
	.st9{fill:#FAFAFA;}
	.st10{fill:#FFBE9D;}
	.st11{fill:#EB996E;}
	.st12{fill:#455A64;}
	.st13{fill:#B78876;}
	.st14{fill:#AA6550;}
	.st15{fill:#5792C4;}
</style>
<g id="Grupo_35845" transform="translate(0 -2.18)">
	<g id="freepik--Device--inject-6">
		<path id="Trazado_35830" class="st0" d="M543,346l-101-0.1c-12.1,0-22-10.4-22-23.1v-266c0-12.8,9.9-23.1,22-23.1l101,0.1
			c12.2,0,22,10.4,22,23.1l0,266C565,335.6,555.1,346,543,346L543,346z"/>
		<path id="Trazado_35831" class="st1" d="M542.9,43.2h-19.6c-2.8,0.1-4.9,2.5-4.8,5.2v3.7c0.1,2.8-2,5.1-4.8,5.2h-38.1
			c-2.8-0.1-4.9-2.5-4.8-5.2v-3.7c0.1-2.8-2-5.1-4.8-5.2h-24c-8.5,0-15.4,7.2-15.4,16.2V319c0,8.9,6.9,16.2,15.4,16.2l100.8,0.1
			c8.5,0,15.4-7.2,15.4-16.2l0-259.7C558.3,50.4,551.4,43.2,542.9,43.2L542.9,43.2z"/>
		<path id="Trazado_35832" class="st2" d="M454.2,310.6v6.4c0,0.4-0.3,0.7-0.7,0.7c-0.1,0-0.3,0-0.4-0.1l-5-3.2
			c-0.3-0.2-0.4-0.6-0.2-1c0,0,0,0,0,0c0.1-0.1,0.1-0.2,0.2-0.2l5-3.2c0.3-0.2,0.8-0.1,1,0.2C454.2,310.4,454.3,310.5,454.2,310.6
			L454.2,310.6z"/>
		<path id="Trazado_35833" class="st2" d="M495.3,313.8c0,2.4-2,4.4-4.4,4.4c-2.4,0-4.4-2-4.4-4.4c0-2.4,2-4.4,4.4-4.4
			C493.3,309.4,495.3,311.3,495.3,313.8C495.3,313.7,495.3,313.8,495.3,313.8z"/>
		<path id="Rectángulo_28779" class="st2" d="M528.6,309.9h4.3c1,0,1.9,0.8,1.9,1.9v4.4c0,1-0.8,1.9-1.9,1.9h-4.3
			c-1,0-1.9-0.8-1.9-1.9v-4.4C526.8,310.8,527.6,309.9,528.6,309.9z"/>
		<circle id="Elipse_1412" class="st3" cx="492.9" cy="153.7" r="45.6"/>
		<path id="Trazado_35834" class="st2" d="M489.6,70.9c0.6-0.4,1.3-0.7,2-0.9l0.4-2l3.3-0.1l0.5,2c0.7,0.2,1.4,0.4,2,0.8l1.7-1.1
			l2.4,2.3l-1,1.7c0.4,0.6,0.7,1.3,0.9,2l2,0.4l0.1,3.3l-2,0.5c-0.2,0.7-0.4,1.4-0.8,2l1.1,1.7l-2.3,2.4l-1.7-1
			c-0.6,0.4-1.3,0.7-2,0.9l-0.4,2l-3.3,0.1l-0.5-2c-0.7-0.2-1.4-0.4-2-0.8l-1.7,1.1l-2.4-2.3l1-1.7c-0.4-0.6-0.7-1.3-0.9-2l-2-0.4
			l-0.1-3.3l2-0.5c0.2-0.7,0.4-1.4,0.8-2l-1.1-1.7l2.3-2.4L489.6,70.9L489.6,70.9L489.6,70.9z M491.3,75.4c-1.4,1.4-1.3,3.7,0.1,5.1
			c1.4,1.4,3.7,1.3,5.1-0.1c1.4-1.4,1.3-3.7-0.1-5.1c0,0,0,0,0,0l0,0C495,73.9,492.7,74,491.3,75.4z"/>
		<path id="Trazado_35835" class="st0" d="M447.3,78.4h-8c-0.3,0-0.5-0.2-0.5-0.5c0-0.3,0.2-0.5,0.5-0.5h4.3c1.6,0,3.2,0.1,4.3,0
			l0,0c0.3,0,0.5,0.2,0.5,0.5v0c0,0.3-0.2,0.5-0.5,0.5c0,0,0,0,0,0C447.9,78.4,447.3,78.4,447.3,78.4z"/>
		<path id="Trazado_35836" class="st0" d="M442.3,81.7c-0.1,0-0.3-0.1-0.4-0.2l-3-3.4c-0.2-0.2-0.2-0.5,0-0.7l3-3.1
			c0.2-0.2,0.5-0.2,0.7,0c0.2,0.2,0.2,0.4,0.1,0.6c0,0,0,0,0,0.1l-2.6,2.8l2.7,3.1c0.2,0.2,0.2,0.5,0,0.7
			C442.6,81.7,442.5,81.7,442.3,81.7L442.3,81.7L442.3,81.7z"/>
		<circle id="Elipse_1413" class="st0" cx="545.4" cy="73.9" r="1.5"/>
		<path id="Trazado_35837" class="st0" d="M546.9,78.8c0,0.9-0.7,1.6-1.5,1.6c-0.9,0-1.6-0.7-1.6-1.6c0-0.9,0.7-1.6,1.5-1.6h0
			C546.2,77.3,546.9,78,546.9,78.8C546.9,78.8,546.9,78.8,546.9,78.8z"/>
		<circle id="Elipse_1414" class="st0" cx="545.4" cy="83.7" r="1.5"/>
		<path id="Trazado_35838" class="st0" d="M484.7,259.4c0,0.1-8.7,0.3-19.5,0.3s-19.5-0.1-19.5-0.3s8.7-0.3,19.5-0.3
			S484.7,259.2,484.7,259.4z"/>
		<path id="Trazado_35839" class="st4" d="M536.2,265.6h-14.2c-3.4,0-6.2-2.8-6.2-6.2l0,0c0-3.4,2.8-6.2,6.2-6.2h14.2
			c3.4,0,6.2,2.8,6.2,6.2l0,0C542.4,262.8,539.6,265.6,536.2,265.6z"/>
		<circle id="Elipse_1415" class="st2" cx="521.8" cy="259.4" r="5.2"/>
		<path id="Trazado_35840" class="st0" d="M484.7,276c0,0.1-8.7,0.3-19.5,0.3s-19.5-0.1-19.5-0.3s8.7-0.3,19.5-0.3
			S484.7,275.8,484.7,276z"/>
		<path id="Trazado_35841" class="st4" d="M536.2,284h-14.2c-3.4,0-6.2-2.8-6.2-6.2l0,0c0-3.4,2.8-6.2,6.2-6.2c0,0,0,0,0,0h14.2
			c3.4,0,6.2,2.8,6.2,6.2l0,0C542.4,281.2,539.6,284,536.2,284C536.2,284,536.2,284,536.2,284L536.2,284L536.2,284z"/>
		<circle id="Elipse_1416" class="st2" cx="521.8" cy="277.8" r="5.2"/>
	</g>
	<path id="Trazado_35639" class="st2" d="M670.3,211.7v-4.1c0-2.7,0-6.6-0.1-11.5l0.2,0.2l-58.2,0.1l0.3-0.3v15.7l-0.2-0.3l41.5,0.1
		l12.2,0.1h0.1l-12.1,0.1l-41.7,0.1h-0.2v-15.9l0.3-0.3l58.2,0.1h0.2v0.2c0,5-0.1,8.9-0.1,11.6v3.8
		C670.4,211.5,670.3,211.6,670.3,211.7"/>
	<rect id="Rectángulo_28757" x="332.4" y="2.2" class="st4" width="58.2" height="15.7"/>
	<path id="Trazado_35640" class="st2" d="M415,34v-4.1c0-2.7,0-6.6-0.1-11.5l0.2,0.2l-58.2,0.1l0.3-0.3V34l-0.2-0.2l41.5,0.1
		l12.2,0.1L415,34c0,0-0.1,0-0.2,0h-4.1L398.5,34l-41.7,0.1h-0.3V18.3l0.3-0.3l58.2,0.1h0.2v0.2c0,5-0.1,8.9-0.1,11.6v3.8
		C415.1,33.8,415.1,33.9,415,34"/>
	<path id="Trazado_35641" class="st2" d="M98.7,276.3v-4.2c0-2.7-0.1-6.6-0.1-11.5l0.2,0.2l-58.2,0.1l0.3-0.3v15.7l-0.2-0.3
		l41.5,0.1l12.2,0.1h0.1l-12.1,0.1l-41.7,0.1h-0.3v-15.8l0.3-0.3l58.2,0.1h0.2v0.2c0,5-0.1,8.9-0.1,11.6v3.8
		C98.9,276.2,98.8,276.3,98.7,276.3"/>
	<path id="Trazado_35642" class="st2" d="M105.2,292v-1.1c0-0.8,0-1.8-0.1-3.1c0-2.8-0.1-6.6-0.1-11.4l0.2,0.2l-29.1,0.1
		c-0.2,0.2,0.3-0.3,0.2-0.3V292l-0.2-0.2l20.9,0.1l6.1,0.1L105.2,292c-0.1-0.1-0.3-0.1-0.5-0.1h-1.6l-6,0.1l-21,0.1h-0.2v-15.9
		c0,0,0.5-0.5,0.3-0.3l29.1,0.1h0.2v0.2c0,4.8-0.1,8.7-0.1,11.5c0,1.3,0,2.4-0.1,3.1v0.8C105.3,291.8,105.2,291.9,105.2,292"/>
	<path id="Trazado_35643" class="st2" d="M648.8,46.2v-4.1c0-2.7,0-6.6-0.1-11.5l0.2,0.2l-58.2,0.1c0.1-0.1-0.3,0.3,0.2-0.3v15.6
		l-0.3-0.2l41.5,0.1l12.2,0.1h0.1l-12.1,0.1l-41.7,0.1h-0.3V30.5c0.5-0.5,0.2-0.1,0.3-0.3l58.2,0.1h0.2v0.2c0,5-0.1,8.9-0.1,11.6
		v3.8C648.9,46,648.9,46.1,648.8,46.2"/>
	<path id="Trazado_35644" class="st2" d="M655.3,61.9c0-0.1,0-0.2,0-0.3v-0.8c0-0.8,0-1.8,0-3.2c0-2.8-0.1-6.6-0.1-11.4l0.2,0.2
		l-29.1,0.1l0.3-0.3v15.7l-0.2-0.2l20.9,0.1l6.1,0.1L655.3,61.9c-0.1-0.1-0.3-0.1-0.4-0.1h-1.6l-6,0.1l-21,0.1H626V46.1l0.3-0.3
		l29.1,0.1h0.2v0.2c0,4.8-0.1,8.7-0.1,11.5c0,1.3,0,2.3,0,3.1v0.8C655.5,61.7,655.4,61.8,655.3,61.9"/>
	<rect id="Rectángulo_28758" y="118.7" class="st4" width="58.2" height="15.7"/>
	<path id="Trazado_35645" class="st2" d="M82.6,150.5v-4.1c0-2.7-0.1-6.6-0.1-11.5l0.2,0.1l-58.2,0.1c0.1-0.1-0.3,0.3,0.2-0.3v15.7
		l-0.3-0.3l41.5,0.1l12.2,0.1h4.2C82.4,150.4,82.5,150.4,82.6,150.5l-4.3,0l-12.1,0.1l-41.8,0.2h-0.3v-15.9l0.3-0.3l58.2,0.1h0.2
		v0.2c0,4.9-0.1,8.9-0.1,11.6v3.8C82.6,150.3,82.6,150.4,82.6,150.5"/>
	<path id="Trazado_35647" class="st2" d="M240.4,333.3v-4.2c0-2.7-0.1-6.6-0.1-11.5l0.2,0.1l-58.2,0.1l0.3-0.3v15.7l-0.2-0.3
		l41.5,0.1l12.2,0.1h4.2C240.2,333.2,240.3,333.2,240.4,333.3l-4.3-0.1l-12.1,0.1l-41.7,0.1H182v-15.8l0.3-0.3l58.2,0.1h0.2v0.2
		c0,5-0.1,8.9-0.1,11.6v3.8C240.5,333.2,240.4,333.2,240.4,333.3"/>
	<path id="Trazado_35648" class="st2" d="M193.3,56.6v-4.1c0-2.7-0.1-6.6-0.1-11.5l0.2,0.2L135,41.3l0.3-0.3v15.7l-0.2-0.2l41.5,0.1
		l12.2,0.1L193.3,56.6c-0.1,0-0.2,0-0.3,0h-4.1l-12.1,0.1L135,57h-0.3V41l0.3-0.3l58.2,0.1h0.2V41c0,5-0.1,8.9-0.1,11.6v3.8
		C193.3,56.5,193.3,56.6,193.3,56.6"/>
	<path id="Trazado_35649" class="st3" d="M574.2,436.9c-16.2-12.8-18.7-34.9-16.9-54.5c0.3-3.3,0.1-6.8,1.9-9.5s5.5-4.5,8.3-3
		c2.4,1.3,3.3,4.2,4.5,6.6c1.6,3.2,4.2,5.9,7.3,7.8c2,1.2,4.6,2,6.7,1c2.9-1.4,3.5-5.3,3.7-8.5l0.9-18.2c0.2-3.3,0.3-6.6,1.5-9.6
		s3.6-5.8,6.8-6.5s6.9,1.3,7.4,4.5c0,1.4,0,2.7-0.1,4c0,1.4,0.6,2.9,1.8,3.4s2.6-0.4,3.7-1.3c3.6-3.1,6.1-7.2,8.5-11.3
		s4.7-8.3,8-11.7s7.7-6.1,12.3-6s9.5,3.2,10.4,7.8s-2,9.2-5.2,12.7c-4.7,5.2-10,9.8-16,13.5c-1.1,0.6-2.1,1.5-2.7,2.6
		c-0.8,2.1,1.1,4.4,3.2,5.2c2.4,1,5.1,0.9,7.6,1.3s5.2,1.7,6.1,4.2c1.1,3.4-1.8,6.8-4.7,8.9c-5.8,4.3-12.2,7.5-19.1,9.6
		c-2.5,0.7-5.1,1.4-7.1,2.9s-3.4,4.4-2.3,6.8s4,3.3,6.5,3s4.9-1.6,7.3-2.3c4.6-1.4,10.3-0.8,13,3.3c1.7,2.7,1.7,6.2,0.6,9.2
		c-1.3,2.9-3.1,5.6-5.4,7.8c-7.6,8.1-17.2,14.1-27.9,17.3C594.1,440.9,584.4,441.2,574.2,436.9"/>
	<path id="Trazado_35650" class="st2" d="M580,424.9c3.9-10.5,8.4-20.8,13.4-30.8l3.9-7.9c1.3-2.6,2.6-5.1,4-7.6
		c2.7-4.7,5.7-9.2,8.9-13.5c3-4.2,6.1-8,9-11.6s5.6-6.8,8.3-9.7c4.1-4.6,8.6-8.8,13.3-12.6c1.7-1.4,3-2.4,4-3l1-0.8
		c0.1-0.1,0.2-0.2,0.4-0.2c-0.1,0.1-0.2,0.2-0.3,0.3l-1,0.8c-0.9,0.7-2.2,1.7-3.9,3.1c-4.7,3.9-9.1,8.2-13.2,12.7
		c-2.6,2.9-5.3,6.1-8.2,9.7s-5.9,7.4-8.9,11.6c-3.2,4.3-6.2,8.8-8.9,13.5c-1.4,2.4-2.7,5-4,7.6s-2.6,5.2-3.9,7.9
		c-5.1,10-9.5,20.2-13.4,30.7"/>
	<path id="Trazado_35651" class="st2" d="M601.6,378.6c-0.1-0.5-0.2-0.9-0.2-1.4c-0.1-0.9-0.2-2.2-0.4-3.9
		c-0.3-3.3-0.5-7.8-0.7-12.8s-0.5-9.5-0.8-12.8c-0.2-1.6-0.3-3-0.4-3.9c-0.1-0.5-0.1-1-0.1-1.4c0.2,0.4,0.3,0.9,0.3,1.4
		c0.2,0.9,0.4,2.2,0.6,3.9c0.4,3.3,0.8,7.8,1,12.8s0.4,9.4,0.5,12.8c0.1,1.5,0.1,2.8,0.2,3.9C601.6,377.6,601.6,378.1,601.6,378.6"
		/>
	<path id="Trazado_35652" class="st2" d="M644,373.2c-0.6,0.1-1.1,0.1-1.7,0.1c-1.1,0-2.7,0.1-4.6,0.2c-3.9,0.2-9.2,0.6-15,1.4
		s-11.1,1.7-14.9,2.5c-1.9,0.4-3.4,0.7-4.5,1c-0.5,0.1-1.1,0.3-1.7,0.3c0.5-0.2,1.1-0.4,1.6-0.5c1-0.3,2.6-0.7,4.5-1.1
		c3.8-0.9,9.1-1.9,14.9-2.6c5-0.7,10.1-1.1,15.1-1.2c1.9-0.1,3.5,0,4.6,0C642.9,373,643.4,373.1,644,373.2"/>
	<path id="Trazado_35653" class="st2" d="M580.6,424.1c-0.1-0.2-0.2-0.3-0.3-0.5l-0.6-1.6c-0.5-1.4-1.3-3.3-2.2-5.8
		c-1.7-4.9-3.9-11.8-6.3-19.4s-4.5-14.5-6.1-19.5c-0.8-2.4-1.5-4.4-2-5.9c-0.2-0.6-0.4-1.2-0.5-1.6c-0.1-0.2-0.1-0.4-0.2-0.6
		c0.1,0.2,0.2,0.3,0.3,0.5c0.2,0.4,0.4,0.9,0.6,1.6c0.5,1.4,1.3,3.3,2.2,5.8c1.7,4.9,3.9,11.8,6.3,19.4s4.5,14.5,6.1,19.5
		c0.8,2.4,1.5,4.4,2,5.9c0.2,0.6,0.4,1.2,0.5,1.6C580.5,423.7,580.6,423.9,580.6,424.1"/>
	<path id="Trazado_35654" class="st2" d="M637.4,409.4c-0.2,0.1-0.4,0.2-0.6,0.2l-1.7,0.5l-6.1,1.6c-5.1,1.4-12.2,3.3-20,5.4
		s-14.9,4-20.1,5.2c-2.6,0.6-4.7,1.1-6.1,1.4l-1.7,0.3c-0.2,0.1-0.4,0.1-0.6,0.1c0.2-0.1,0.4-0.2,0.6-0.2l1.7-0.5l6.1-1.6
		c5.1-1.4,12.2-3.3,20-5.4s14.9-4,20.1-5.3c2.6-0.6,4.7-1.1,6.1-1.4l1.7-0.3C637,409.4,637.2,409.4,637.4,409.4"/>
	<path id="Trazado_35655" class="st4" d="M77.3,303.7c0,0-8.2,2.8,0.2,20.2S91.6,350,91.6,350s1.5,4-1.9,4.6s-10.8-0.9-12.3,3.2
		s1.3,8.3,7.5,12s19.4,12.3,20.6,13.1s2.3,2.7,0.1,3.4s-18.9,2-17.8,9.9s20,15.4,22,16.2s2.5,1.7,2.3,2.9s-5.8,1-10.6,1.6
		s-10.1,2-9.1,6.5s12.1,14.2,39.5,17.6l12.8,0.8l7.3-10.6c14.2-23.7,13.4-38.5,10.4-42s-7.4-0.2-10.8,3.2s-6.8,7.9-7.8,7.4
		s-1.4-1.5-0.8-3.6s6.3-21.7,0.8-27.3s-16.8,6.7-18.8,8s-2.7-0.8-2.6-2.1s1.5-17.2,2.4-24.3s-0.5-12-4.9-13.3
		c-4.2-1.2-7.6,5.4-10.1,7.8s-4.8-1.3-4.8-1.3s-3.2-10-11.9-27.2s-16-12.4-16-12.4"/>
	<path id="Trazado_35656" class="st2" d="M145.3,444.9c-6.3-12.7-17.1-35.5-26.4-55s-17.9-37.2-24.1-49.9l-7.4-15.1l-2-4.1
		c-0.2-0.5-0.4-0.8-0.5-1.1c-0.1-0.1-0.1-0.2-0.2-0.4c0,0,0.1,0.1,0.2,0.4l0.6,1c0.5,1,1.2,2.3,2,4c1.8,3.5,4.3,8.7,7.5,15
		c6.3,12.7,14.8,30.4,24.2,49.9s20.1,42.3,26.3,55"/>
	<path id="Trazado_35657" class="st2" d="M87.5,360.2c0.3,0.1,0.6,0.2,0.9,0.3c0.6,0.2,1.4,0.5,2.4,0.9c2,0.8,4.7,2,7.7,3.3l7.6,3.4
		l2.3,1c0.3,0.1,0.6,0.2,0.8,0.4c-0.3-0.1-0.6-0.1-0.9-0.3c-0.6-0.2-1.4-0.5-2.4-0.9c-2-0.8-4.7-2-7.6-3.3l-7.6-3.4l-2.3-1
		C88.1,360.5,87.8,360.3,87.5,360.2"/>
	<path id="Trazado_35658" class="st2" d="M110.1,368.7c-0.1,0,2-5.7,4.8-12.7s5.1-12.6,5.2-12.6s-2,5.7-4.8,12.7
		S110.2,368.7,110.1,368.7"/>
	<path id="Trazado_35659" class="st2" d="M123.1,399.3c0.1-0.3,0.3-0.5,0.5-0.8l1.6-2c1.3-1.7,3.2-4.1,5.1-6.8s3.6-5.2,4.8-7.1
		l1.4-2.1c0.2-0.3,0.3-0.5,0.6-0.8c-0.1,0.3-0.3,0.6-0.4,0.9c-0.3,0.5-0.7,1.3-1.3,2.2c-1.1,1.9-2.7,4.4-4.7,7.1s-3.8,5.1-5.2,6.8
		c-0.7,0.8-1.3,1.5-1.7,2C123.5,398.8,123.3,399.1,123.1,399.3"/>
	<path id="Trazado_35660" class="st2" d="M101,396.1c0.3,0,0.6,0,0.9,0l2.4,0.2c2,0.2,4.8,0.6,7.8,1s5.8,0.8,7.8,1.1l2.3,0.4
		c0.3,0,0.6,0.1,0.8,0.2c-0.3,0-0.6,0-0.9,0l-2.4-0.2c-2-0.2-4.8-0.6-7.8-1s-5.8-0.8-7.8-1.1l-2.3-0.4
		C101.6,396.2,101.3,396.2,101,396.1"/>
	<path id="Trazado_35661" class="st2" d="M109.1,424.6c0.4,0,0.7,0,1.1,0.1l3,0.3c2.6,0.3,6.1,0.7,10,1.2s7.4,1,10,1.3l3,0.5
		c0.4,0,0.7,0.1,1.1,0.2c-0.4,0-0.7,0-1.1-0.1l-3-0.3c-2.6-0.3-6.1-0.7-10-1.2s-7.4-0.9-10-1.3l-3-0.5
		C109.8,424.7,109.5,424.7,109.1,424.6"/>
	<path id="Trazado_35662" class="st2" d="M136.7,427.8c0.2-0.4,0.4-0.7,0.7-1l1.9-2.7c1.6-2.2,3.8-5.3,6.1-8.8s4.4-6.7,5.8-9
		l1.7-2.8c0.2-0.4,0.4-0.7,0.7-1c-0.1,0.4-0.3,0.7-0.5,1.1c-0.4,0.7-0.9,1.6-1.6,2.8c-1.4,2.4-3.4,5.6-5.8,9.1s-4.6,6.6-6.2,8.8
		c-0.8,1.1-1.5,2-2,2.6C137.2,427.2,137,427.5,136.7,427.8"/>
	<path id="Trazado_35663" class="st5" d="M74.1,397c-4.8-5.6-5.4-14.7-4.7-22s2.4-14.8,1.2-22c-0.7-4.3-2.4-8.5-2.9-12.8
		s0.2-9.2,3.6-12c3.9-3.2,9.9-2.5,14,0.6s6.3,7.8,8.1,12.5c3.7,10.4,5.1,21.9,2,32.5s-10.3,20.1-20.8,23.3"/>
	<path id="Trazado_35664" class="st6" d="M99.4,409.8c0.8-2.7,2.5-5.4,5.1-6.5s5.8-0.5,8.6,0.5s5.5,2.4,8.4,2.5s6.3-1.2,7.1-4
		c0.8-2.6-0.8-5.5-2.8-7.4c-6.9-6.7-17.9-6.5-24.6,0.5c-1.7,1.8-3.1,4-3.9,6.4"/>
	<g id="Grupo_35841">
		<g id="Grupo_35840">
			<g>
				<defs>
					<rect id="SVGID_1_" x="97.4" y="390" width="31.5" height="19.7"/>
				</defs>
				<clipPath id="SVGID_00000085973489205917882370000006509571272662760324_">
					<use xlink:href="#SVGID_1_"  style="overflow:visible;"/>
				</clipPath>
				<g id="Grupo_35855" style="clip-path:url(#SVGID_00000085973489205917882370000006509571272662760324_);">
					<g id="Grupo_35839">
						<path id="Trazado_35665" class="st8" d="M99.4,409.8c0.8-2.7,2.5-5.4,5.1-6.5s5.8-0.5,8.6,0.5s5.5,2.4,8.4,2.5s6.3-1.2,7.1-4
							c0.8-2.6-0.8-5.5-2.8-7.4c-6.9-6.7-17.9-6.5-24.6,0.5c-1.7,1.8-3.1,4-3.9,6.4"/>
					</g>
				</g>
			</g>
		</g>
	</g>
	<path id="Trazado_35666" class="st5" d="M76.2,421.6c-4.3-4-4.1-11.2-1.9-16.8s6.8-9.8,12.1-12.6c10.4-5.5,22.7-5.8,33.4-1.1
		c-5.3,0.2-10.1,3-12.8,7.5c-2.4,3.9-2.9,8.7-4.8,12.8C97.4,421.2,86.1,425.6,76.2,421.6"/>
	<path id="Trazado_35667" class="st0" d="M71.8,443.1c0-0.2,0-0.4,0-0.6v-1.9c0.1-2.3,0.2-4.6,0.6-6.8c0.4-3.4,1-6.7,1.8-10
		c1-4,2.5-7.9,4.6-11.6c3.7-6.6,9-12.3,15.3-16.5c1.2-0.8,2.4-1.4,3.3-2c0.8-0.5,1.7-0.9,2.6-1.3l1.7-0.7c0.2-0.1,0.4-0.2,0.6-0.2
		c-0.2,0.1-0.4,0.2-0.6,0.3l-1.7,0.8c-0.7,0.4-1.6,0.8-2.6,1.4c-1.1,0.6-2.2,1.3-3.3,2.1c-6.2,4.3-11.3,9.9-15,16.4
		c-4.4,7.7-5.6,15.7-6.5,21.4c-0.4,2.9-0.6,5.2-0.7,6.8c-0.1,0.8-0.1,1.4-0.1,1.9C71.9,442.7,71.9,442.9,71.8,443.1"/>
	<path id="Trazado_35668" class="st6" d="M30.3,381.4c-8.8,5.3-8.8,10.2-7.3,14.8s6.9,7.8,11.4,6.1c2.5-1,4.4-3.2,6-5.4
		s3-4.6,5.2-6.2s5.4-2.2,7.6-0.6"/>
	<path id="Trazado_35670" class="st5" d="M23.7,387.2c2.3-3.2,8-4.1,11.6-2.5s6.2,4.8,8.6,7.9s4.7,6.5,7.9,8.7s7.8,3,11.1,0.8
		c2.1-1.6,3.5-3.9,3.8-6.5c0.3-2.6,0.1-5.2-0.5-7.7c-0.8-3.7-2-7.6-5-9.9c-3.3-2.6-7.9-2.7-12.1-2.6c-4.8,0.2-9.7,0.5-14.3,2.2
		S25.6,382.8,23.7,387.2"/>
	<path id="Trazado_35671" class="st0" d="M64.1,442.7c0-0.3-0.1-0.5-0.1-0.8c0-0.7,0-1.5-0.1-2.2c-0.1-2-0.1-4.7-0.2-8.1
		s-0.2-7.5-0.5-12s-0.6-9.4-1.3-14.6c-0.3-2.5-0.8-5-1.5-7.4c-0.7-2.2-1.6-4.4-2.7-6.5c-1.8-3.5-4.2-6.7-7.1-9.5
		c-2-1.8-4.2-3.3-6.6-4.5c-0.7-0.3-1.3-0.6-2-0.9c-0.2-0.1-0.5-0.2-0.7-0.3c0.2,0.1,0.5,0.1,0.7,0.2c0.7,0.2,1.4,0.5,2,0.8
		c2.5,1.1,4.7,2.6,6.8,4.4c3,2.7,5.4,5.9,7.3,9.5c1.1,2.1,2,4.3,2.8,6.5c0.7,2.4,1.2,5,1.5,7.5c0.7,5.2,1,10.1,1.2,14.6
		s0.3,8.5,0.4,12c0.1,3.4,0.1,6.2,0.1,8.1v2.2C64.2,442.2,64.1,442.5,64.1,442.7"/>
	<path id="Trazado_35672" class="st0" d="M68.1,442.7c0-0.1,0-0.2-0.1-0.2l-0.2-0.7c-0.2-0.7-0.4-1.6-0.7-2.9
		c-0.6-3.6-0.9-7.3-0.7-10.9c0.2-5.4,1.1-10.8,2.7-16c1.8-5.9,4.3-12.1,6.5-18.8c2.1-6.3,3.5-12.7,4.1-19.3
		c0.5-5.4,0.6-10.8,0.4-16.2c-0.1-4.6-0.4-8.4-0.5-10.9c-0.1-1.3-0.1-2.2-0.2-3v-0.8c0-0.1,0-0.2,0-0.3c0,0.1,0,0.2,0,0.3
		c0,0.3,0,0.5,0.1,0.8c0.1,0.7,0.2,1.7,0.2,3c0.2,2.6,0.5,6.3,0.7,10.9c0.3,5.4,0.2,10.8-0.3,16.2c-0.6,6.6-2,13.2-4.1,19.5
		c-2.2,6.7-4.8,12.9-6.6,18.8c-1.5,5.2-2.5,10.5-2.7,15.9c-0.2,3.6,0,7.3,0.5,10.9c0.2,1.3,0.4,2.2,0.6,2.9c0.1,0.3,0.1,0.6,0.2,0.8
		C68,442.6,68.1,442.7,68.1,442.7"/>
	<rect id="Rectángulo_28762" x="400.9" y="281.6" class="st2" width="8.8" height="161.2"/>
	<path id="Trazado_35673" class="st5" d="M414.2,276.1c0,4.9-4,8.8-8.8,8.8s-8.8-4-8.8-8.8c0-4.9,4-8.8,8.8-8.8
		C410.2,267.2,414.2,271.2,414.2,276.1L414.2,276.1z"/>
	<rect id="Rectángulo_28763" x="575.2" y="281.6" class="st2" width="8.8" height="161.2"/>
	<path id="Trazado_35674" class="st5" d="M588.5,276.1c0,4.9-4,8.8-8.8,8.8c-4.9,0-8.8-4-8.8-8.8c0-4.9,4-8.8,8.8-8.8h0
		C584.5,267.2,588.5,271.2,588.5,276.1C588.5,276.1,588.5,276.1,588.5,276.1L588.5,276.1L588.5,276.1z"/>
	<rect id="Rectángulo_28764" x="375.9" y="297.1" class="st5" width="224.7" height="40.2"/>
	<path id="Trazado_35675" class="st3" d="M401.3,297.1l-0.4,0.7l-23.1,39.5h-1.9v-40.2H401.3L401.3,297.1z"/>
	<path id="Trazado_35676" class="st3" d="M458.1,297.1l-23.5,40.2h-30.7l9.3-16l14.2-24.2L458.1,297.1L458.1,297.1z"/>
	<path id="Trazado_35677" class="st3" d="M514.9,297.1l-23.5,40.2h-30.7l23.5-40.2H514.9z"/>
	<path id="Trazado_35678" class="st3" d="M571.7,297.2l-23.5,40.2h-30.7l23.5-40.2H571.7z"/>
	<path id="Trazado_35679" class="st3" d="M600.6,297.2v40.2h-26.4l23.5-40.2H600.6z"/>
	<rect id="Rectángulo_28765" x="375.9" y="359.3" class="st5" width="224.7" height="40.2"/>
	<path id="Trazado_35680" class="st3" d="M401.3,359.3l-0.4,0.7l-23.1,39.5h-1.9v-40.2H401.3L401.3,359.3z"/>
	<path id="Trazado_35681" class="st3" d="M458.1,359.3l-23.5,40.2h-30.7l9.3-16l14.2-24.2H458.1L458.1,359.3z"/>
	<path id="Trazado_35682" class="st3" d="M514.9,359.3l-23.5,40.2h-30.7l23.5-40.2H514.9z"/>
	<path id="Trazado_35683" class="st3" d="M571.7,359.3l-23.5,40.2h-30.7l23.5-40.2H571.7z"/>
	<path id="Trazado_35684" class="st3" d="M600.6,359.3v40.2h-26.4l23.5-40.2H600.6z"/>
	<path id="Trazado_35685" class="st0" d="M600.6,337.4v-2.7c0-1.8,0-4.4-0.1-7.8c0-6.8-0.1-16.9-0.1-29.7l0.2,0.2l-224.7,0.2
		l0.4-0.5v40.2l-0.4-0.5l160,0.2l47.4,0.1l12.8,0.1h0.1l-12.7,0l-47.3,0.1l-160.3,0.2h-0.5v-40.9h0.5l224.7,0.2h0.2v0.2
		c0,12.9-0.1,23-0.1,29.8v9.7C600.8,336.9,600.7,337.1,600.6,337.4"/>
	<path id="Trazado_35686" class="st0" d="M600.6,399.5v-2.7c0-1.8,0-4.4-0.1-7.8c0-6.8-0.1-16.9-0.1-29.7l0.2,0.2l-224.7,0.2
		l0.4-0.5v40.2l-0.4-0.4l160,0.2l47.4,0.1h12.9l-12.7,0.1l-47.3,0.1l-160.3,0.2h-0.5v-40.9h0.5l224.7,0.2h0.2v0.2
		c0,12.9-0.1,23-0.1,29.8v9.7C600.8,399,600.7,399.3,600.6,399.5"/>
	<path id="Trazado_35687" class="st0" d="M651.8,442.8c0,0.1-142.1,0.3-317.5,0.3S16.9,443,16.9,442.8s142.1-0.3,317.5-0.3
		S651.8,442.7,651.8,442.8"/>
	<rect id="Rectángulo_28766" x="107" y="197.2" class="st2" width="9.2" height="245.6"/>
	<path id="Trazado_35688" class="st0" d="M116.2,442.8v-19.2c0-12.4,0-30.3-0.1-52.5c0-44.3-0.1-105.7-0.1-173.9l0.3,0.3H107
		l0.3-0.3c-0.1,118.4-0.2,217.8-0.2,245.6l-0.1-0.1H107v-0.1c0-27.8-0.1-127.3-0.2-245.6v-0.3h9.7v0.3c0,68.3-0.1,129.8-0.1,174.1
		c0,22.2-0.1,40-0.1,52.4v17.8C116.3,441.9,116.3,442.4,116.2,442.8"/>
	<path id="Trazado_35689" class="st5" d="M89.8,104.9c27-12,58.7,0.1,70.7,27.1c12,27-0.1,58.7-27.1,70.7c-27,12-58.7-0.1-70.7-27.1
		l0,0C50.6,148.6,62.8,117,89.8,104.9C89.8,104.9,89.8,104.9,89.8,104.9L89.8,104.9"/>
	<path id="Trazado_35690" class="st1" d="M159.8,151.8c-0.1-0.3-0.1-0.5-0.1-0.8c0-0.6-0.1-1.3-0.2-2.3c0-0.5-0.1-1.1-0.1-1.7
		s-0.2-1.3-0.3-2c-0.2-1.7-0.5-3.3-1-5c-1.1-4.5-2.9-8.8-5.4-12.8c-3.2-5.3-7.3-9.9-12.2-13.6c-5.9-4.5-12.8-7.6-20.2-8.9
		c-8.4-1.5-17.1-0.8-25.1,2.1c-2.1,0.8-4.2,1.7-6.2,2.7c-1,0.6-2,1.2-3,1.8c-1,0.6-2,1.3-2.9,2c-1.9,1.4-3.7,3-5.4,4.6
		c-1.7,1.7-3.2,3.6-4.7,5.5c-3,4-5.3,8.4-6.8,13.1c-3.3,9.8-3.3,20.4,0,30.1c1.6,4.7,3.9,9.2,6.8,13.1c1.4,1.9,3,3.8,4.7,5.5
		c1.7,1.6,3.5,3.2,5.4,4.6c0.9,0.7,1.9,1.4,2.9,2c1,0.6,2,1.2,3,1.8c22.5,12,50.5,4.2,63.7-17.6c2.4-4,4.2-8.3,5.4-12.8
		c0.5-1.6,0.8-3.3,1-5c0.1-0.7,0.2-1.4,0.3-2s0.1-1.2,0.1-1.7c0.1-1,0.1-1.7,0.2-2.3C159.7,152.4,159.7,152.1,159.8,151.8
		c0,0.3,0,0.5,0,0.8c0,0.6,0,1.3-0.1,2.3c0,0.6,0,1.1-0.1,1.7c-0.1,0.6-0.2,1.3-0.3,2c-0.2,1.7-0.5,3.4-0.9,5
		c-1.1,4.6-2.9,8.9-5.3,12.9c-11.8,20.1-36.3,28.9-58.2,20.9c-2.2-0.8-4.3-1.7-6.3-2.8c-1-0.6-2-1.2-3-1.8c-1-0.6-2-1.3-2.9-2
		c-4-2.8-7.5-6.3-10.3-10.3c-3-4.1-5.4-8.6-7-13.4c-3.4-10-3.4-20.8,0-30.7c1.6-4.8,3.9-9.3,7-13.4c1.5-2,3.1-3.9,4.8-5.6
		c1.7-1.7,3.6-3.2,5.5-4.7c0.9-0.7,1.9-1.4,2.9-2c1-0.6,2-1.2,3-1.8c2.1-1.1,4.2-2,6.3-2.8c21.9-7.9,46.4,0.9,58.2,20.9
		c2.4,4,4.2,8.4,5.3,12.9c0.4,1.7,0.8,3.4,0.9,5.1c0.1,0.7,0.2,1.4,0.3,2s0,1.2,0.1,1.7c0,1,0,1.7,0.1,2.3
		C159.8,151.4,159.8,151.6,159.8,151.8"/>
	<rect id="Rectángulo_28767" x="83.7" y="145.8" class="st9" width="55.8" height="11.6"/>
	<path id="Trazado_35691" class="st0" d="M312.2,101.4c-1.3,0.1,0.4,2.9-0.9,3.2c-1.7,0.3-3.3-0.9-4.3-2.3s-1.7-3-3-4.1
		c-1.7-1.5-4-1.8-6.1-2.6c-9-3.1-13.8-12.8-10.7-21.8c0,0,0,0,0,0c0.3-0.8,0.6-1.5,1-2.3l7.4-15.1c-2.3-1.5-2.9-4.8-1.6-7.2
		c1.4-2.4,3.8-4,6.6-4.3c4-0.6,8,0.7,10.8,3.6c1.5,1.5,2.7,3.5,4.7,4.2c1.8,0.6,3.7,0.1,5.6,0.3c2.5,0.4,4.7,2,5.9,4.2
		c1.2,2.2,1.9,4.6,2.1,7.1c0.3,2.3,0.5,4.8,2,6.4c0,0,2.5,2.2,2.5,4.8c0,5.8-5.6,4.7-5.8,6.9c-0.5,4.2,1.3,6.1-2.8,8.7
		c0,0,0.8,1.9-2,5.1s-5.8,2.9-5.8,2.9L312.2,101.4L312.2,101.4z"/>
	<path id="Trazado_35692" class="st10" d="M290.7,60c-2,0.2-3.5,1.9-3.4,3.9l2.3,51.5c0.1,6.1,9,9.5,15.5,9.3
		c6.6-0.2,6.8-3.4,6.9-9.2c0.1-9.7,0.1-13.3,0.1-13.2s8.3-1.4,10-12.2c0.9-5.4,0.6-14.2,0.1-21.5c-0.4-6.5-4.8-14.5-11.3-13.8
		L290.7,60L290.7,60z"/>
	<path id="Trazado_35693" class="st0" d="M318.7,74.9c0,0.8-0.6,1.4-1.3,1.4c-0.7,0.1-1.4-0.5-1.5-1.2l0,0c0-0.8,0.6-1.4,1.4-1.4
		C318,73.5,318.6,74.1,318.7,74.9C318.7,74.8,318.7,74.8,318.7,74.9L318.7,74.9L318.7,74.9"/>
	<path id="Trazado_35694" class="st0" d="M320.4,73.6c-0.2,0.2-1.2-0.6-2.7-0.6s-2.6,0.8-2.8,0.6s0.1-0.4,0.6-0.8
		c0.7-0.4,1.4-0.7,2.2-0.7c0.8,0,1.5,0.2,2.2,0.7C320.3,73.2,320.5,73.5,320.4,73.6"/>
	<path id="Trazado_35695" class="st0" d="M304.3,75.4c0,0.8-0.6,1.4-1.4,1.4c-0.7,0.1-1.4-0.5-1.4-1.2c0,0,0,0,0,0l0,0v0
		c0-0.8,0.6-1.4,1.3-1.4C303.6,74.1,304.2,74.6,304.3,75.4L304.3,75.4"/>
	<path id="Trazado_35696" class="st0" d="M305.5,74c-0.2,0.2-1.2-0.6-2.7-0.6s-2.6,0.8-2.8,0.6s0.1-0.4,0.6-0.8
		c0.7-0.5,1.4-0.7,2.2-0.7c0.8,0,1.5,0.2,2.2,0.7C305.4,73.6,305.6,73.9,305.5,74"/>
	<path id="Trazado_35697" class="st0" d="M311.1,84.6c0.8-0.3,1.6-0.4,2.4-0.4c0.4,0,0.8-0.1,0.8-0.4c0-0.4-0.1-0.8-0.2-1.1
		c-0.4-0.9-0.8-1.9-1.1-2.9c-1.6-4.1-2.7-7.5-2.6-7.6s1.6,3.2,3.2,7.4c0.4,1,0.8,2,1.1,2.9c0.2,0.5,0.3,1,0.2,1.5
		c-0.1,0.3-0.3,0.5-0.6,0.6c-0.2,0.1-0.4,0.1-0.6,0.1C312.7,84.8,311.9,84.8,311.1,84.6"/>
	<path id="Trazado_35698" class="st11" d="M312.2,102.3c-5.1,0.1-10.2-1.2-14.6-3.8c0,0,3.7,7.6,14.6,6.6V102.3z"/>
	<path id="Trazado_35699" class="st11" d="M310.5,88.2c-0.6-0.7-1.5-1.1-2.4-1c-0.7,0.1-1.3,0.4-1.7,0.9c-0.4,0.5-0.5,1.2-0.1,1.8
		c0.5,0.6,1.3,0.7,2,0.5c0.7-0.3,1.4-0.6,1.9-1.1c0.2-0.1,0.3-0.3,0.4-0.4C310.6,88.7,310.6,88.4,310.5,88.2"/>
	<path id="Trazado_35700" class="st0" d="M305.9,71.3c-0.2,0.3-1.6-0.2-3.4-0.3s-3.3-0.1-3.4-0.5c-0.1-0.2,0.3-0.5,0.9-0.8
		c1.7-0.6,3.6-0.4,5.2,0.6C305.8,70.7,306,71.1,305.9,71.3"/>
	<path id="Trazado_35701" class="st0" d="M320.3,70.8c-0.3,0.4-1.6,0.2-3.1,0.3s-2.8,0.6-3.2,0.2c-0.1-0.2,0-0.5,0.5-0.9
		c0.7-0.5,1.6-0.8,2.5-0.8c0.9-0.1,1.8,0,2.6,0.4C320.2,70.3,320.4,70.6,320.3,70.8"/>
	<path id="Trazado_35702" class="st0" d="M296.7,54.1c0,2.2,1,4.3,2.7,5.7c1.7,1.4,3.9,2,6.1,1.6c1.7-0.3,3.5-1.1,4.9-0.3
		s1.6,3.2,2.9,4.4c1.9,1.7,5,0.1,7.4,0.8c1.9,0.6,3,2.3,4.3,3.9s3.1,2.9,5,2.4c-0.1-1.7-0.3-3.4-0.8-5c-0.5-1.6-1.5-3.1-2.8-4.1
		c-0.8-0.5-1.7-0.8-2.4-1.4c-1.6-1.3-1.9-3.4-2.9-5.2c-1.3-2.3-3.6-3.8-6.2-4.1c-2.1-0.2-4.4,0.4-6.4-0.1c-1.5-0.4-2.9-1.4-4.5-1.7
		c-3-0.6-5.9,1.6-8.1,3.8"/>
	<path id="Trazado_35703" class="st0" d="M291,77.6c-0.6,0.3-0.9,1-0.6,1.6c0,0,0,0,0,0c0.2,0.4,0.6,0.7,1.1,0.7
		c3.7,0.8,4.1-6.3,3.3-8.3c1.4-1.1,2.6-2.4,3.7-3.8c1.2-2.3,1.8-4.8,1.7-7.4c1.3,0.1,6.9-1.8,6.3-1.9c-1.4-0.4-4.2-1.3-4.9-2.5
		c-1.5-2.6-4.3-4.2-7.2-4.2c-3,0.2-5.6,2.4-6.2,5.4c-3.6,0.1-6.9,2.2-8.5,5.5c-1.7,3.4-1.5,7.3,0.3,10.6c0.6,0.8,1,1.7,1.1,2.6
		c0,1.2-0.9,2.2-1.5,3.2c-1.7,2.7-1.6,6.5-0.3,9.4s2.3,4.1,4.2,4.6c3.7,1.2-0.6,8.8,5.6,8.8"/>
	<path id="Trazado_35704" class="st10" d="M291.1,80.5c-0.1-1.8-1.5-3.1-3.3-3c-0.5,0-0.9,0.1-1.3,0.4c-1.1,0.6-2,1.9-1.9,4.4
		c0.3,6.5,6.8,4.9,6.8,4.7S291.2,83.2,291.1,80.5"/>
	<path id="Trazado_35705" class="st11" d="M289.3,84.5c-0.1,0.1-0.2,0.1-0.3,0.2c-0.3,0.1-0.6,0.1-0.9,0.1c-0.9-0.5-1.4-1.5-1.4-2.5
		c0-0.6,0-1.1,0.2-1.7c0.1-0.4,0.4-0.8,0.8-0.9c0.3-0.1,0.6,0,0.7,0.3c0.1,0.2,0.1,0.3,0.1,0.3s0.1-0.1,0.1-0.4
		c0-0.2-0.1-0.3-0.3-0.4c-0.2-0.1-0.4-0.2-0.6-0.1c-0.5,0.1-1,0.5-1.1,1c-0.3,0.6-0.4,1.2-0.3,1.8c0,1.2,0.7,2.3,1.8,2.8
		c0.4,0.1,0.7,0,1-0.2C289.3,84.7,289.4,84.5,289.3,84.5"/>
	<path id="Trazado_35706" class="st12" d="M297.4,56.6c-0.5,0.3-1,0.6-1.3,1.1c-0.7,1.4-0.9,3-0.5,4.5v0.2h-0.2
		c-1.9,0.5-3.5,1.9-4.2,3.7c-0.2,0.5-0.3,1-0.3,1.6c0,0.6,0.1,1.2,0.2,1.7c0.1,0.6,0.2,1.2,0.2,1.9c0.1,0.7-0.1,1.4-0.5,1.9
		c-0.9,1.1-2,1.9-3.3,2.4c-1.1,0.5-2.1,1.2-3,2c-1.5,1.4-2.4,3.4-2.5,5.5c-0.1,1.4,0.2,2.8,0.9,4.1c0.4,0.9,0.8,1.3,0.8,1.3
		s-0.1-0.1-0.3-0.3c-0.2-0.3-0.5-0.7-0.6-1c-1.8-3.2-1.2-7.3,1.5-9.9c0.9-0.9,2-1.6,3.1-2.1c1.2-0.5,2.2-1.3,3-2.3
		c0.7-1,0.4-2.3,0.2-3.4c-0.1-0.6-0.2-1.2-0.2-1.8c0-0.6,0.2-1.2,0.4-1.8c0.8-1.9,2.5-3.4,4.5-3.9l-0.1,0.2
		c-0.4-1.6-0.2-3.3,0.7-4.7c0.3-0.4,0.6-0.6,1-0.8C297,56.7,297.2,56.6,297.4,56.6"/>
	<path id="Trazado_35707" class="st0" d="M310.4,90.4c-0.9-0.3-1.7-0.8-2.5-1.3c-1.3-0.8-2.4-1.4-2.4-1.6s1.3,0.2,2.7,1
		S310.5,90.3,310.4,90.4"/>
	<path id="Trazado_35708" class="st12" d="M329,78.5c-0.1-0.2,0.7-0.4,1.6-1.4c0.5-0.5,0.8-1.2,1-1.9c0.2-0.9,0-1.9-0.4-2.7
		c-0.7-1-1.6-1.7-2.7-2.2c-0.7-0.4-1.4-0.8-2-1.3c-0.7-0.6-1.4-1.4-1.8-2.2c-0.9-1.7-1.2-3.5-1.9-4.9c-0.3-0.7-0.7-1.3-1.2-1.9
		c-0.5-0.5-1.1-0.8-1.7-0.8c-1.5-0.2-3.4,0.5-5.6,0.1c-1.1-0.2-2-0.7-2.9-1.4c-0.7-0.6-1.4-1.2-2-1.9c-0.9-1.1-2-2.1-3.2-2.8
		c-1-0.6-2.2-0.8-3.4-0.8c-1.8,0.1-3.5,0.8-4.8,2.1c-1,0.9-1.3,1.6-1.5,1.5s-0.1-0.9,0.7-2.2c0.5-0.8,1.2-1.4,1.9-2
		c1-0.7,2.2-1.2,3.5-1.3c1.5-0.2,3.1,0.1,4.5,0.7c1.5,0.8,2.8,1.9,3.9,3.1c0.9,1.1,2.2,2,3.6,2.4c0.8,0.1,1.6,0.1,2.3,0
		c1-0.2,2.1-0.2,3.2-0.2c1.2,0.1,2.4,0.7,3.3,1.6c0.8,0.8,1.3,1.7,1.7,2.7c0.8,1.9,1,3.5,1.7,4.8c0.3,0.6,0.7,1.1,1.1,1.6
		c0.5,0.4,1.1,0.9,1.7,1.2c0.6,0.4,1.3,0.9,1.8,1.4c0.6,0.5,1.1,1.2,1.4,1.9c0.5,1.2,0.6,2.6,0.1,3.9c-0.3,0.9-0.9,1.7-1.7,2.2
		C330,78.8,329.1,78.7,329,78.5"/>
	<path id="Trazado_35709" class="st2" d="M288.2,99.1l-1.9,7c0,0-9.3,13.4-10.8,15.7s-4.8,10.7-5.2,14.9s14.5,62.7,14.5,62.1
		s42.9,12.1,42.9,12.1l8.8-7.9c0,0,1.5-19.1,0.6-20.8s-0.9-26.9-3.2-36.1s-20.3-30-20.3-30l-1.6-4.6v4.5L288.2,99.1L288.2,99.1z"/>
	<path id="Trazado_35710" class="st2" d="M283.9,127.1c-3.1,6.5-2.3,14.2,1.9,20c6.8,9.3,16.5,22.4,17.2,22.4
		c1.2,0,25.2-22.2,25.2-22.2s-13.3-20.9-20.2-25.5c-3.3-2.2-13.4-6.3-17.9-4C288.2,118.8,285.9,122.8,283.9,127.1"/>
	<path id="Trazado_35711" class="st0" d="M291.9,117.2c-0.2,0,0-1.8,0.5-3.8c0.2-1.3,0.6-2.5,1.2-3.7c0,1.3-0.3,2.6-0.7,3.8
		C292.7,114.7,292.4,115.9,291.9,117.2"/>
	<path id="Trazado_35712" class="st0" d="M312.1,116.1c-0.3-0.1-0.5-0.3-0.8-0.4l-2.1-1.4l0.2-0.1c0,1,0.2,2.1,0.4,3.1
		c0.3,1.3,0.5,2.7,0.5,4v0.5l-0.4-0.3c-2-1.7-4.4-3.5-7-5.4c-4.4-3.1-8.5-5.7-11.5-7.4c-1.5-0.9-2.8-1.6-3.6-2
		c-0.5-0.2-0.9-0.5-1.3-0.8c0.5,0.1,1,0.3,1.4,0.6c0.9,0.4,2.2,1,3.7,1.9c4,2.2,7.9,4.7,11.6,7.4c2.6,1.9,5,3.7,7,5.4l-0.4,0.2
		c0-1.3-0.2-2.6-0.5-3.9c-0.2-1-0.3-2.1-0.3-3.2v-0.3l0.2,0.2l2,1.5C311.6,115.7,311.9,115.8,312.1,116.1"/>
	<path id="Trazado_35714" class="st10" d="M346.2,161.2c-2.8-1.8-7.6-0.6-7.6-0.6l-11.8-11.9L307,166.1c2,2.4,16.1,14,21.2,15.6
		c5.6,1.8,11.9,0.7,13.9-2.2s5.4-7.4,5.4-7.4S349,163,346.2,161.2"/>
	<path id="Trazado_35715" class="st10" d="M339,146.1l6,4.2c0,0,5.5,0.6,7.6,5.5s2.6,15.9-4.6,16.1L331.6,160v-9.1L339,146.1
		L339,146.1z"/>
	<path id="Trazado_35716" class="st11" d="M350.9,154.9c0,0.1-0.9-0.7-2.5-1.5c-4.2-2.2-9.2-2.4-13.5-0.4c-1.6,0.7-2.5,1.4-2.6,1.4
		s0.2-0.2,0.6-0.5c0.6-0.4,1.2-0.8,1.8-1.1c4.4-2.2,9.6-2.1,13.8,0.4c0.6,0.4,1.2,0.8,1.8,1.3C350.7,154.7,350.9,154.9,350.9,154.9"
		/>
	<path id="Trazado_35717" class="st2" d="M334.1,149.2l6.7-4.4l-23.6-24.6L334.1,149.2L334.1,149.2z"/>
	<path id="Trazado_35718" class="st0" d="M288.9,151.3c0.1,0.1,0.2,0.2,0.3,0.3l0.8,0.9l2.9,3.6l10.4,13.2h-0.3
		c0.9-0.7,1.8-1.5,2.8-2.3s1.9-1.7,2.9-2.5c2-1.7,4-3.6,6.1-5.5l13.7-12.2l0,0.3c-1.2-1.8-2.5-3.7-3.8-5.5c-2.6-3.6-5.2-7-7.8-10.2
		c-1.3-1.6-2.6-3.1-4-4.6c-1.3-1.5-2.6-2.9-4-4.2c-1.4-1.2-2.9-2.2-4.6-3c-1.6-0.7-3.3-1.2-5-1.6c-1.6-0.4-3.2-0.6-4.8-0.8
		c-1.5-0.1-3,0.2-4.2,0.9c-1.2,0.7-2.2,1.6-3,2.7c-0.8,1-1.5,2-2.1,3c-1.6,2.8-2.7,5.8-3.2,9c-0.1,0.4-0.1,0.7-0.1,1
		c0,0.1,0,0.2-0.1,0.3c0.1-1.7,0.4-3.3,0.8-4.9c0.5-1.9,1.3-3.7,2.3-5.4c0.6-1.1,1.3-2.1,2-3c0.9-1.1,1.9-2,3.1-2.8
		c1.3-0.8,2.9-1.1,4.5-1c1.6,0.2,3.3,0.4,4.9,0.8c1.7,0.3,3.4,0.9,5.1,1.6c1.7,0.8,3.3,1.8,4.7,3c1.5,1.3,2.8,2.7,4.1,4.2
		c1.3,1.5,2.7,3,4,4.6c2.7,3.2,5.3,6.6,7.9,10.2c1.4,1.9,2.6,3.8,3.9,5.6l0.1,0.2l-0.2,0.1l-13.7,12.2l-6.2,5.5
		c-1,0.9-1.9,1.7-2.9,2.5l-2.8,2.3l-0.2,0.1l-0.1-0.2l-10.2-13.3l-2.8-3.7l-0.7-1C289,151.5,289,151.4,288.9,151.3"/>
	<path id="Trazado_35719" class="st11" d="M347.5,172.1c0,0,0.1-0.5,0.3-1.4c0.1-0.6,0.1-1.1,0.1-1.7c0-0.7,0.1-1.4,0.1-2.3
		c0-1.9-0.6-3.8-1.7-5.4c-1.5-1.8-3.9-2.7-6.2-2.3c-0.9,0.1-1.7,0.4-2.5,0.9l-0.2,0.1l-0.1-0.1c-3.1-3.2-5.9-6.1-7.8-8.1l-2.3-2.4
		c-0.3-0.3-0.6-0.6-0.8-0.9c0.3,0.2,0.6,0.5,0.9,0.8l2.4,2.3c2,2,4.8,4.8,8,8h-0.3c0.8-0.5,1.7-0.9,2.7-1c2.5-0.4,5.1,0.6,6.7,2.5
		c1.2,1.6,1.8,3.7,1.7,5.7c0,0.9-0.1,1.6-0.1,2.3c0,0.9-0.2,1.9-0.5,2.8C347.6,172,347.5,172.1,347.5,172.1"/>
	<path id="Trazado_35720" class="st0" d="M317.1,120.9c0.4,0.3,0.7,0.7,1,1.1c0.6,0.7,1.5,1.8,2.5,3.1c2.7,3.4,5.2,7,7.4,10.8
		c1.2,2.1,2.2,4.3,2.9,6.6c0.6,1.9,0.8,3.9,0.7,5.9c-0.1,1.6-0.1,2.9-0.1,4c0,0.5,0,1-0.1,1.4c-0.1-0.5-0.1-1-0.1-1.4v-4
		c0.1-1.9-0.2-3.9-0.8-5.7c-0.7-2.3-1.7-4.5-2.9-6.5c-2.2-3.8-4.6-7.4-7.2-10.9c-1-1.3-1.7-2.4-2.4-3.2
		C317.7,121.7,317.4,121.3,317.1,120.9"/>
	<path id="Trazado_35721" class="st0" d="M303,183.1c0.1-0.1,1.1,3,3.1,6.5s4.3,5.8,4.1,5.9c-0.6-0.4-1.1-0.9-1.6-1.5
		c-2.3-2.6-4.1-5.6-5.2-8.9C303.2,184.5,303,183.8,303,183.1"/>
	<path id="Trazado_35722" class="st0" d="M315.9,196.8c-1.2-2.8-2.1-5.7-2.7-8.7C314.4,190.9,315.3,193.8,315.9,196.8"/>
	<path id="Trazado_35723" class="st5" d="M330.5,410.7l-1.4,21.2c0,0,21.1,7,21.2,11l-41.3,0.2l0.8-33.2L330.5,410.7L330.5,410.7z"
		/>
	<path id="Trazado_35724" class="st0" d="M309.1,443.1l0.1-3.3l39.9,1.1c0.9,0.4,1.4,1.3,1.5,2.2H309.1z"/>
	<path id="Trazado_35725" class="st0" d="M335.3,242.1l1.8-34.7l-53.8-2c0,0-6.9,16.2-8.5,22.4s-2.7,14.4-0.6,22.3
		c2.1,7.9,17.2,34.3,17.2,34.3l14.5,145.9h32.8L335.3,242.1L335.3,242.1z"/>
	<path id="Trazado_35726" class="st0" d="M335,213.5c0.4,3.9,30.6,97.2,27.1,111.4s-27.9,81-27.9,81L335,213.5L335,213.5z"/>
	<path id="Trazado_35727" class="st12" d="M335.8,219.7c0.1,0,0.6,39.1,0.9,87.2s0.5,87.2,0.4,87.2s-0.6-39-0.9-87.2
		S335.6,219.7,335.8,219.7"/>
	<path id="Trazado_35728" class="st12" d="M326.1,430.4c-0.1,0-1.9-45.7-4-102.1S318.6,226,318.7,226s1.9,45.7,4,102.2
		S326.3,430.4,326.1,430.4"/>
	<path id="Trazado_35729" class="st12" d="M317,211.5c0,0.5,0,1-0.1,1.4c-0.2,1.3-0.5,2.5-0.9,3.8c-1.3,4.1-3.5,7.9-6.4,11
		c-3.4,3.7-7.4,6.2-10.6,7c-1.3,0.3-2.6,0.4-3.9,0.1c-0.3-0.1-0.7-0.2-1-0.3c-0.2-0.1-0.3-0.1-0.3-0.2s0.5,0.1,1.4,0.2
		c1.3,0.1,2.5,0,3.8-0.3c3.1-0.8,7-3.3,10.3-7c2.8-3.1,5-6.8,6.4-10.8C316.7,213.5,316.9,211.5,317,211.5"/>
	<path id="Trazado_35730" class="st12" d="M350.5,317.1c-4.8-0.7-9.7,0-14,2.1c0.5-0.5,1.2-0.8,1.8-1.1c1.6-0.7,3.2-1.2,5-1.5
		c1.7-0.2,3.5-0.2,5.2,0C349.2,316.7,349.9,316.8,350.5,317.1"/>
	<path id="Trazado_35731" class="st12" d="M300,296.8c-0.6-0.8-1.1-1.6-1.5-2.5c-0.9-1.6-2.1-3.8-3.5-6.1s-2.8-4.5-3.8-6.1
		c-0.6-0.8-1.1-1.7-1.5-2.5c0.7,0.7,1.3,1.5,1.8,2.3c1.1,1.5,2.5,3.6,3.9,6s2.6,4.6,3.4,6.2C299.3,295,299.7,295.9,300,296.8"/>
	<path id="Trazado_35732" class="st5" d="M283.3,191.6c-0.8-0.3-1.3,15.3-1.3,15.3s27.1,5.3,55.1,1.2l0.7-13.6
		C337.8,194.5,313.6,201.7,283.3,191.6"/>
	<path id="Trazado_35733" class="st6" d="M304.4,205.7c-0.6,0.1-1.1,0.5-1.1,1.1c-0.1,0.6,0.3,1.2,0.9,1.3c0.7,0.1,1.3-0.3,1.5-1
		c0.1-0.7-0.3-1.3-1-1.5l0,0C304.5,205.7,304.4,205.7,304.4,205.7"/>
	<path id="Trazado_35734" class="st12" d="M299.3,211.2c3,2,6.8,2.3,10,0.8"/>
	<path id="Trazado_35735" class="st0" d="M309.3,211.9c-0.4,0.4-0.9,0.6-1.4,0.7c-1.2,0.4-2.5,0.6-3.7,0.5c-1.3-0.1-2.5-0.4-3.6-1
		c-0.9-0.5-1.3-0.9-1.3-0.9c1.6,0.7,3.2,1.2,4.9,1.4C306,212.7,307.7,212.4,309.3,211.9"/>
	<path id="Trazado_35736" class="st12" d="M319,216.1c-0.6,0.1-1,0.5-1.1,1.1c-0.1,0.6,0.3,1.2,0.9,1.3c0.7,0.1,1.3-0.3,1.5-1
		c0.1-0.7-0.3-1.3-1-1.5c0,0,0,0,0,0C319.2,216.1,319.1,216.1,319,216.1"/>
	<path id="Trazado_35737" class="st5" d="M174,404.7l-6.9,27.4l-11.7,20.1c-0.8,1.4-0.3,3.2,1.1,4l0,0c0,0,0.1,0.1,0.1,0.1
		c0.8,0.4,1.8,0.4,2.6,0l26.5-16.5l7.7-27.4L174,404.7L174,404.7z"/>
	<path id="Trazado_35738" class="st0" d="M159.3,456.2l26.5-16.5l1.1-4l-30.5,20.4C157.3,456.7,158.4,456.7,159.3,456.2"/>
	<path id="Trazado_35739" class="st5" d="M246.6,410.8l-1.4,21.4c0,0,21.3,7.1,21.4,11.1l-41.6,0.3l0.8-33.5L246.6,410.8
		L246.6,410.8z"/>
	<path id="Trazado_35740" class="st0" d="M224.9,443.6l0.1-3.4l40.2,1.1c0.9,0.4,1.5,1.3,1.5,2.3L224.9,443.6L224.9,443.6z"/>
	<path id="Trazado_35741" class="st13" d="M149.4,93.9c-0.8-1.4-1-2.4-0.6-4.8s2.4-19.3,2.7-20.7c0.5-2.6,2.4-3.3,2.7-1.4
		s0.3,9.6,0.8,9.7s1-12.2,2-13.6c1-1.4,1.9-1.4,2.4-0.8c0.3,0.3,0.5,0.6,0.6,1c0,0,0.9-1.5,1.8-1.4c1.8,0.2,1.8,2.4,1.8,2.4l0.1,5.2
		c0,0,0.1-4.2,1.4-4.8c0.7-0.3,1.6-0.1,2,1.2s0,6.4,0,6.8s0.1,13.7,0.1,13.7c1-1.3,1.8-2.6,2.4-4.1c0.7-1.7,1.8-2.3,3.3-2
		s1.6,1.8,1.1,2.9s-1.4,4.3-1.4,4.3l-2.5,4.9l-8.6,7.7l-3.1,7.1c0,0-10-1-11.2-6.4L149.4,93.9L149.4,93.9z"/>
	<path id="Trazado_35742" class="st14" d="M163.7,84.7c-0.9,0.5-1.8,1.2-2.6,1.9c-1.9,1.8-2.9,4.3-3,6.9v0.8l-0.5,0.1
		c-0.5-2.4-1.5-4.6-2.7-6.7c-1-1.6-1.7-2.4-1.6-2.5s0.2,0.2,0.6,0.6c0.5,0.6,0.9,1.1,1.4,1.7c1.4,2.1,2.4,4.4,2.9,6.8l-0.5,0.1v-0.8
		c0-1.5,0.4-3,1.1-4.3c0.6-1.1,1.3-2,2.2-2.8c0.6-0.5,1.3-1,2-1.3C163.1,84.8,163.4,84.7,163.7,84.7"/>
	<path id="Trazado_35743" class="st14" d="M163.5,79.8c0,0.2-2.3,0.3-5,0.8s-4.9,1-5,0.9c1.5-0.8,3.2-1.2,4.9-1.4
		C160.1,79.6,161.8,79.6,163.5,79.8"/>
	<path id="Trazado_35744" class="st14" d="M159.5,78.8c-0.2-2.6-0.2-5.2-0.1-7.9c0-2.6,0.2-5.3,0.5-7.9c0.2,2.6,0.2,5.2,0,7.9
		C160,73.5,159.9,76.2,159.5,78.8"/>
	<path id="Trazado_35745" class="st14" d="M163.4,78.6c-0.2-2.3-0.2-4.6-0.1-6.9c0-2.3,0.1-4.7,0.4-7c0.2,2.3,0.2,4.6,0.1,6.9
		C163.8,74,163.7,76.3,163.4,78.6"/>
	<path id="Trazado_35746" class="st0" d="M202.4,210.2c-2.9-1.4-5.2-3.8-6.5-6.8c0.1-0.1,1.3,1.7,3,3.6S202.5,210.1,202.4,210.2"/>
	<path id="Trazado_35747" class="st0" d="M237.1,198.8c0-0.1,1.3,0.2,3.3,0.4c5.3,0.7,10.6,0.4,15.8-0.8c2-0.5,3.2-0.8,3.2-0.8
		c-0.2,0.2-0.5,0.3-0.8,0.4c-0.5,0.2-1.3,0.5-2.3,0.8c-5.2,1.4-10.6,1.7-15.9,0.8c-0.8-0.1-1.6-0.3-2.4-0.5
		C237.7,199,237.4,198.9,237.1,198.8"/>
	<path id="Trazado_35748" class="st0" d="M248.5,426.4l13.6-182.9l0.6-47.1l-75.2,6.1l-24.9,225.1l29.9-0.8L222.9,238l-1.4,187.5
		L248.5,426.4L248.5,426.4z"/>
	<path id="Trazado_35749" class="st12" d="M206.5,231.4c0.1,0-6.3,43.4-14.4,96.9s-14.7,96.9-14.9,96.9s6.3-43.4,14.4-97
		S206.3,231.4,206.5,231.4"/>
	<path id="Trazado_35750" class="st12" d="M236.4,425.2v-0.5c0-0.5,0-1,0.1-1.5c0.1-1.3,0.2-3.2,0.4-5.7c0.3-4.9,0.8-12,1.4-20.8
		c1.1-17.6,2.6-41.9,3.9-68.7s2.2-51.2,2.7-68.8c0.3-8.8,0.5-15.9,0.6-20.8c0.1-2.4,0.1-4.4,0.2-5.7c0-0.5,0-1,0.1-1.5
		c0-0.2,0-0.3,0-0.5v2c0,1.3,0,3.2-0.1,5.7c-0.1,4.9-0.2,12.1-0.4,20.8c-0.4,17.6-1.3,41.9-2.6,68.8s-2.8,51.1-4.1,68.7
		c-0.6,8.8-1.1,15.9-1.6,20.8c-0.2,2.4-0.4,4.3-0.5,5.6c-0.1,0.6-0.1,1.1-0.1,1.5S236.4,425.2,236.4,425.2"/>
	<path id="Trazado_35751" class="st2" d="M210.5,88.4l-5.3,7.9c0,0-17,2.2-19.7,3.4s-3.7,5.6-3.7,5.6l4.8,57.9c0,0,1.2,24.6,1,28.4
		c0,0,0,3.8-0.2,6.6c0,2.6,0.1,5.1,0.5,7.7c0,0,21.7,5.4,23.5,5.2s11.1-2.1,11.1-2.1l27.8-1l8.9-2.9l1.7-4.8l-1.1-2
		c0,0,3.9-4.4,4.2-6.8s-1-25-1-25v-6.6l3.9-58.7c0,0-4.9-3.2-7.6-3.6c-7.7-1.4-14.4-3.3-14.4-3.3l-7.3-8.4L210.5,88.4L210.5,88.4z"
		/>
	<path id="Trazado_35752" class="st0" d="M222.1,114.2c0,0.1,0,0.2,0,0.2v0.7l-0.2,2.7c-0.2,2.4-0.6,5.8-0.9,10.1
		c-0.3,4.3-0.6,9.3-0.9,14.9s-0.3,11.8-0.3,18.3s0.3,12.7,0.6,18.3s0.7,10.7,1.1,14.9s0.8,7.7,1.1,10c0.1,1.1,0.2,2,0.3,2.7l0.1,0.7
		v0.2c0-0.1-0.1-0.2-0.1-0.2c0-0.2-0.1-0.5-0.1-0.7c-0.1-0.7-0.2-1.6-0.4-2.7c-0.3-2.4-0.8-5.8-1.2-10s-0.9-9.3-1.3-14.9
		s-0.6-11.8-0.7-18.3s0.1-12.7,0.3-18.3s0.6-10.7,1-14.9s0.7-7.7,1-10c0.1-1.2,0.3-2,0.4-2.7l0.1-0.7V114.2"/>
	<path id="Trazado_35753" class="st2" d="M220.4,115.3l17,22.6c2,3.1,4.1,6.2,6.5,9.1c4.2,5.3,18.6,15.5,21.6,16.1s8.3,1.2,11.7-4.9
		s4.8-19.1,4.8-19.1l-15.1-38c0,0-5.7,3.3-8.5,8.8s-3,16.9-3,16.9l-16-14.4l-7-8.3L220.4,115.3L220.4,115.3z"/>
	<path id="Trazado_35754" class="st0" d="M265.5,139.1c-0.6-0.6-1.1-1.3-1.5-2.1c-0.8-1.4-1.4-3.5-2.5-5.6c-0.5-1-1.1-1.9-1.9-2.7
		c-0.6-0.6-1.4-1.1-2.2-1.5c-0.8-0.3-1.6-0.4-2.4-0.5c0.2-0.1,0.4-0.1,0.7-0.2c0.6,0,1.3,0.1,1.9,0.3c0.9,0.3,1.7,0.8,2.4,1.5
		c0.8,0.8,1.5,1.7,2,2.8c1.1,2.2,1.7,4.2,2.4,5.6S265.5,139.1,265.5,139.1"/>
	<path id="Trazado_35755" class="st0" d="M239.4,112.4c-0.2,0.8-0.5,1.6-1,2.3c-1,1.8-2.2,3.4-3.7,4.8c-1.5,1.4-3.2,2.5-5.1,3.3
		c-0.7,0.4-1.6,0.6-2.4,0.8c-0.1-0.2,3.6-1.3,7.1-4.5S239.2,112.3,239.4,112.4"/>
	<path id="Trazado_35756" class="st0" d="M225.6,115.2c0.1-0.1,0.2-0.1,0.4-0.2c0.4-0.1,0.8,0,1.2,0.2c0.5,0.3,0.8,0.9,0.9,1.6
		c0,1-0.8,1.8-1.8,1.8c-0.2,0-0.5,0-0.7-0.1c-0.9-0.4-1.3-1.5-0.9-2.4c0,0,0,0,0,0l0,0c0,0,0-0.1,0-0.1
		C224.8,115.5,225.2,115.2,225.6,115.2c0-0.1,0.2-0.1,0.3-0.1c-0.5,0.1-0.8,0.5-0.9,0.9c-0.2,0.4-0.1,1,0.1,1.4
		c0.3,0.5,0.9,0.7,1.4,0.5c0.5-0.2,0.9-0.6,0.9-1.2c0-0.5-0.2-0.9-0.6-1.2c-0.3-0.2-0.6-0.3-0.9-0.3
		C225.8,115.2,225.6,115.2,225.6,115.2"/>
	<path id="Trazado_35757" class="st2" d="M146.3,98.4l-5.5,9.8l-3.4,1.2c0,0-14.9,22.5-6.6,29.9s21.9,6.9,26.5,4.7s28.5-13,28.5-13
		l-0.2-31.1c-4.3,2.1-8.4,4.7-12.2,7.7c-3,2.5-17.3,10.8-17.3,10.8l4.2-12.9L146.3,98.4L146.3,98.4z"/>
	<path id="Trazado_35758" class="st2" d="M203.7,98c0,3.7-1,7.3-3,10.4c4.8-1.9,9.2-4.7,12.9-8.2c1.5,2.1,3.4,4,5.5,5.5
		c-1.2-3.1-3.4-5.7-5.3-8.4s-3.5-5.9-3.2-9.3L203.7,98L203.7,98z"/>
	<path id="Trazado_35759" class="st0" d="M245.7,168.7c-0.3,0.5-0.6,1-0.9,1.5c-0.3,0.5-0.7,1-1.2,1.6c-0.5,0.7-1.1,1.4-1.7,2.1
		c-1.5,1.8-3.2,3.5-4.9,5.1c-2.2,1.9-4.4,3.7-6.8,5.4c-2.4,1.6-4.9,3.1-7.5,4.3c-2.1,1-4.3,1.9-6.5,2.7c-0.9,0.4-1.8,0.6-2.6,0.8
		c-0.7,0.2-1.3,0.4-2,0.5c-0.6,0.2-1.1,0.3-1.7,0.4c0.5-0.2,1.1-0.4,1.7-0.6c0.5-0.2,1.2-0.4,1.9-0.6s1.6-0.5,2.6-0.9
		c2.2-0.8,4.4-1.8,6.4-2.8c5.1-2.6,9.9-5.8,14.2-9.6c1.7-1.6,3.4-3.2,5-5c0.7-0.7,1.3-1.4,1.8-2s0.9-1.1,1.3-1.6
		C244.9,169.6,245.3,169.1,245.7,168.7"/>
	<path id="Trazado_35760" class="st0" d="M211.5,100.3c-0.1,0.4-0.2,0.7-0.5,1c-0.5,0.8-1.2,1.6-1.9,2.2c-1.8,1.7-4.9,3.3-8,5.3
		l-0.2,0.2l-0.6,0.4l0.2-0.7c0.8-3,1.9-6,3-8.9c0.4-1.1,0.8-2,1.1-2.6c0.1-0.3,0.3-0.6,0.5-0.9c-0.1,0.3-0.2,0.7-0.3,1
		c-0.3,0.7-0.6,1.6-1,2.7c-0.8,2.3-1.9,5.4-2.9,8.9l-0.4-0.3l0.3-0.2c3.2-2,6.2-3.6,8-5.2C209.9,102.4,210.8,101.4,211.5,100.3"/>
	<path id="Trazado_35761" class="st0" d="M187.6,191.6c-0.1-0.2-0.1-0.5-0.1-0.7c0-0.5-0.1-1.2-0.1-2.1c-0.1-1.9-0.2-4.5-0.4-7.8
		s-0.3-7.2-0.5-11.6c-0.1-2.2-0.1-4.5-0.3-6.8s-0.4-4.8-0.6-7.3c-1.6-19.5-2.8-33.4-3-36.3c0.1,0.2,0.2,0.5,0.2,0.7
		c0.1,0.5,0.2,1.2,0.3,2.1c0.2,1.8,0.5,4.5,0.8,7.8c0.6,6.6,1.4,15.6,2.3,25.6c0.2,2.5,0.4,4.9,0.6,7.3s0.2,4.6,0.3,6.8
		c0.1,4.3,0.3,8.2,0.4,11.6s0.2,5.9,0.2,7.8v2.1C187.6,191.1,187.6,191.3,187.6,191.6"/>
	<path id="Trazado_35762" class="st0" d="M157.4,114.9c0.1,0-0.6,1.5-1.5,3.9c-1.9,4.8-2.9,9.9-3.2,15.1c0,1.5-0.1,3-0.2,4.5
		c-0.1,1.1-0.7,2-1.5,2.7c-0.2,0.2-0.5,0.3-0.8,0.4h-0.3c0.3-0.2,0.6-0.3,0.9-0.6c0.7-0.7,1.2-1.6,1.3-2.6c0.2-1.2,0-2.8,0.1-4.5
		c0.2-5.2,1.4-10.4,3.4-15.2c0.5-1.2,1-2.1,1.3-2.8C157,115.5,157.2,115.2,157.4,114.9"/>
	<path id="Trazado_35763" class="st0" d="M155.3,137.1c-0.2-0.9-0.2-1.8-0.2-2.8c-0.1-1.7-0.1-4.1,0-6.7s0.3-5,0.5-6.7
		c0.1-0.9,0.2-1.9,0.5-2.8c0.1,0.9,0,1.9-0.1,2.8c-0.1,1.7-0.2,4.1-0.3,6.7c-0.1,2.6-0.1,5-0.2,6.7
		C155.5,135.2,155.4,136.2,155.3,137.1"/>
	<path id="Trazado_35764" class="st0" d="M156.4,116.3c-0.9,0.1-1.8,0-2.7-0.2c-2.1-0.4-4.2-1.1-6.1-2.2c-1.9-1-3.7-2.3-5.2-3.9
		c-0.7-0.6-1.2-1.3-1.7-2.1c2.1,2.1,4.5,4,7.1,5.5C150.6,114.8,153.5,115.8,156.4,116.3"/>
	<path id="Trazado_35765" class="st0" d="M153.6,107.4c-0.2,0.4-0.2,0.8-0.2,1.2c0.1,0.4,0.3,0.8,0.7,0.9c0.7,0.2,1.4-0.1,1.6-0.8
		c0.1-0.3,0.1-0.5,0-0.8c-0.2-0.4-0.5-0.6-0.9-0.7C154.4,107.2,154,107.2,153.6,107.4c0,0,0-0.2,0.2-0.3c0.3-0.2,0.7-0.3,1-0.2
		c0.6,0.1,1,0.4,1.3,0.8c0.3,0.6,0.1,1.4-0.4,1.9c-0.5,0.5-1.3,0.7-1.9,0.3c-0.5-0.3-0.8-0.8-0.8-1.3c0-0.4,0-0.7,0.2-1
		C153.4,107.4,153.6,107.4,153.6,107.4"/>
	<path id="Trazado_35766" class="st0" d="M267.9,103.7c0.1,0.2,0.2,0.4,0.3,0.6c0.2,0.4,0.5,1,0.8,1.8c0.7,1.7,1.6,4.1,2.9,7.1
		c2.5,6.2,6,15,10.3,25.8v0.1c-0.7,3.8-1.4,7.8-2.1,12c-0.3,2.2-1,4.3-2,6.3c-0.5,1-1.2,2-1.9,2.9c-0.4,0.5-0.8,0.9-1.2,1.3
		c-0.5,0.4-1,0.7-1.5,1c-2.2,1-4.7,1.3-7.1,0.8c-1.2-0.1-2.4-0.5-3.5-1.1l-3.1-2c-4.3-2.7-8.4-5.8-12.2-9.1c-3-2.7-5.8-5.7-8.2-8.9
		c-2.5-3.1-4.7-6.3-6.8-9.4c-4.3-6.2-8.1-12.2-12.1-17.5l-0.1-0.2l0.2-0.1l12-11.1l0.1-0.1l0.1,0.1c6.9,7.1,12.6,12.8,16.5,16.7
		l4.5,4.6l1.1,1.2c0.1,0.1,0.3,0.3,0.4,0.4c0,0-0.1-0.1-0.4-0.4l-1.2-1.2l-4.5-4.5l-16.6-16.6h0.3l-12,11.2v-0.3
		c4.1,5.3,7.9,11.3,12.1,17.5c2.1,3.1,4.4,6.2,6.8,9.4c2.4,3.2,5.2,6.1,8.1,8.8c3.8,3.3,7.9,6.4,12.1,9.1l3.1,2
		c1,0.6,2.2,0.9,3.4,1.1c2.3,0.5,4.7,0.2,6.8-0.7c0.5-0.2,1-0.6,1.4-0.9c0.4-0.4,0.8-0.8,1.1-1.2c0.7-0.9,1.3-1.8,1.8-2.8
		c1-1.9,1.7-4,2-6.1c0.8-4.2,1.5-8.2,2.2-12v0.1c-4.2-10.8-7.7-19.7-10.1-25.9l-2.7-7.2c-0.3-0.8-0.5-1.4-0.7-1.9
		C268,104.2,267.9,103.9,267.9,103.7"/>
	<path id="Trazado_35767" class="st2" d="M244.7,94.7c-0.4,4.1-5,11.9-6.4,14.2c0,0-3-5.9-4.5-9.1l-0.6,4.6
		c-1.2-1.1-0.1-7.6-0.3-7.5l4.4-11L244.7,94.7L244.7,94.7z"/>
	<path id="Trazado_35768" class="st0" d="M236.6,85.9c0.3-0.1,0.6-0.1,0.9-0.2c1.2,1.2,3.9,4.3,7.5,8.3l0.1,0.1v0.1
		c-0.8,3.8-2.2,7.5-4.2,10.9c-0.8,1.3-1.5,2.6-2.4,3.8l-0.3,0.4l-0.2-0.4c-0.9-2.3-2.1-4.3-3.1-6.2c-0.9-1.7-1.7-3.5-2.2-5.3h0.3
		c-0.8,1.8-1.5,3.3-1.9,4.4c-0.2,0.5-0.5,1.1-0.8,1.6c0.2-0.6,0.4-1.1,0.6-1.7c0.5-1.1,1.1-2.6,1.8-4.5l0.2-0.5l0.1,0.5
		c0.6,1.8,1.3,3.6,2.2,5.2c1,1.9,2.2,3.9,3.2,6.2H238c0.8-1.2,1.6-2.4,2.3-3.8c1.9-3.4,3.3-7,4.2-10.8l0.1,0.2
		c-3.5-4.1-6.1-7.2-7.2-8.5h0.1C237.1,85.9,236.9,85.9,236.6,85.9"/>
	<path id="Trazado_35769" class="st0" d="M253.3,114.7c0.5,2,0.9,4.1,1.1,6.2c0.2,1.7,0.5,3.3,0.6,4.4c0.1,0.5,0.1,0.9,0.1,1.4
		c0,0.1,0,0.3-0.1,0.4c0,0-0.1,0.1-0.1,0c0,0,0,0,0,0l0,0c0.1,0.2,0-0.6-0.2-1.7s-0.5-2.7-0.7-4.4
		C253.5,118.9,253.3,116.8,253.3,114.7"/>
	<path id="Trazado_35770" class="st13" d="M223.9,103.6L223.9,103.6c-6.9,0.1-12.6-5.3-12.8-12.2c0-0.3,0-0.6,0-0.9
		c0.1-2.4,0.2-4.1,0.2-4.1s-10-1.3-10.4-11.3s0.8-32.9,0.8-32.9c11.4-5.3,24.8-3.9,34.9,3.5l1.5,1.1l-1.6,39c0,0-4.4,14.5-7.7,16.7
		C227,103.7,226.3,103.6,223.9,103.6"/>
	<path id="Trazado_35771" class="st14" d="M211.4,86.4c4.6-0.1,9.1-1.6,12.9-4.2c0,0-3,7.2-13,6.6C211.3,88.9,211.4,86.4,211.4,86.4
		z"/>
	<path id="Trazado_35772" class="st13" d="M237.2,57.2c0.2-0.1,6.8-2.2,6.8,4.6c0,6.8-6.9,5.4-6.9,5.2S237.2,57.2,237.2,57.2"/>
	<path id="Trazado_35773" class="st14" d="M239.2,64.4c0.1,0.1,0.2,0.1,0.3,0.2c0.3,0.1,0.6,0.1,0.9,0c0.9-0.6,1.4-1.6,1.4-2.6
		c0-0.6-0.1-1.2-0.3-1.7c-0.1-0.4-0.5-0.8-0.9-0.9c-0.3-0.1-0.6,0.1-0.7,0.3c-0.1,0.2-0.1,0.3-0.1,0.3s-0.1-0.1-0.1-0.4
		c0-0.2,0.1-0.3,0.3-0.4c0.2-0.1,0.4-0.2,0.7-0.2c0.6,0.1,1,0.5,1.2,1.1c0.3,0.6,0.4,1.2,0.4,1.9c0.1,1.2-0.6,2.4-1.8,2.9
		c-0.4,0.1-0.8,0-1.1-0.2C239.3,64.6,239.2,64.4,239.2,64.4"/>
	<path id="Trazado_35774" class="st0" d="M205.6,58.2c0,0.8,0.6,1.4,1.4,1.4c0.7,0,1.4-0.5,1.4-1.3v0c0-0.8-0.6-1.4-1.4-1.4
		C206.3,56.8,205.7,57.4,205.6,58.2L205.6,58.2L205.6,58.2"/>
	<path id="Trazado_35775" class="st0" d="M204,56.3c0.2,0.2,1.2-0.7,2.8-0.7s2.7,0.7,2.8,0.5s-0.1-0.4-0.6-0.8
		c-0.7-0.4-1.5-0.7-2.3-0.6c-0.8,0-1.6,0.3-2.2,0.8C204.1,55.8,203.9,56.2,204,56.3"/>
	<path id="Trazado_35776" class="st0" d="M220.5,58.2c0,0.8,0.6,1.4,1.4,1.4c0.7,0,1.4-0.5,1.4-1.3v0c0-0.8-0.6-1.4-1.4-1.4
		C221.2,56.8,220.6,57.4,220.5,58.2L220.5,58.2L220.5,58.2"/>
	<path id="Trazado_35777" class="st0" d="M219.1,56.2c0.2,0.2,1.2-0.6,2.8-0.7s2.7,0.7,2.8,0.5s-0.1-0.4-0.6-0.8
		c-0.7-0.4-1.5-0.7-2.3-0.6c-0.8,0-1.6,0.3-2.2,0.8C219.1,55.7,219,56.1,219.1,56.2"/>
	<path id="Trazado_35778" class="st0" d="M213.8,67.7c-0.8-0.2-1.7-0.4-2.5-0.4c-0.4,0-0.8-0.1-0.8-0.4c0-0.4,0-0.8,0.2-1.1
		c0.3-0.9,0.7-2,1.1-3c1.5-4.3,2.6-7.8,2.4-7.8s-1.5,3.4-3,7.6c-0.4,1-0.7,2-1,3c-0.2,0.5-0.3,1-0.2,1.5c0.1,0.3,0.4,0.5,0.7,0.6
		c0.2,0.1,0.4,0.1,0.7,0.1C212.1,67.8,213,67.8,213.8,67.7"/>
	<path id="Trazado_35779" class="st0" d="M218.4,52.5c0.2,0.4,1.7,0,3.5,0.1s3.3,0.4,3.5,0c0.1-0.2-0.2-0.5-0.8-0.9
		c-1.7-0.9-3.6-0.9-5.3-0.1C218.6,52,218.4,52.3,218.4,52.5"/>
	<path id="Trazado_35780" class="st0" d="M203.6,53.3c0.3,0.4,1.5,0.1,2.9,0.2s2.6,0.4,2.9,0.1c0.1-0.2,0-0.5-0.5-0.9
		c-0.7-0.5-1.5-0.7-2.4-0.7c-0.8-0.1-1.7,0.1-2.4,0.5C203.7,52.8,203.5,53.1,203.6,53.3"/>
	<path id="Trazado_35781" class="st14" d="M218.1,70.9c-0.4-0.4-0.9-0.6-1.5-0.6c-0.5,0-1.1,0.1-1.6,0.2c-0.6,0.1-1.2,0.4-1.6,0.9
		c-0.2,0.4-0.3,0.8-0.2,1.2c0.1,0.4,0.1,1.9,1,2.3h3.6c0.5-0.6,0.8-1.4,0.9-2.2C218.8,72.1,218.6,71.4,218.1,70.9"/>
	<path id="Trazado_35782" class="st0" d="M217,75h0.4c0.3-0.1,0.6-0.3,0.7-0.7c0.1-0.5,0.2-1.1,0.2-1.7c0.1-0.6-0.1-1.3-0.5-1.8
		c-0.4-0.5-1.1-0.3-1.8-0.2c-0.6,0.1-1.1,0.2-1.6,0.4c-0.9,0.4-1,1.1-1.1,1s0-0.2,0.1-0.4c0.2-0.4,0.5-0.7,0.9-0.9
		c0.5-0.3,1.1-0.5,1.7-0.6c0.3-0.1,0.7-0.1,1.1-0.2c0.4,0,0.9,0.2,1.2,0.5c0.5,0.6,0.7,1.4,0.6,2.2c0,0.6-0.1,1.2-0.4,1.8
		c-0.2,0.4-0.6,0.7-1,0.7C217,75.2,216.9,75,217,75"/>
	<path id="Trazado_35783" class="st0" d="M229.7,48.7c-0.3,1-0.4,2.1-0.1,3.2c0.3,1,1.4,1.6,2.4,1.3c0,0,0,0,0,0c0,0,0.1,0,0.1,0
		c-0.3,1-0.5,2.1-0.4,3.2c0.1,1.1,0.6,2.1,1.5,2.8c0.8,0.7,2,0.9,3,0.5c1-0.5,1.5-1.6,1.2-2.7c1,0.6,2.2,0.2,2.8-0.8c0,0,0,0,0,0
		l0,0c0,0,0-0.1,0.1-0.1c0.4-1.1,0.2-2.3-0.5-3.2c1,0,1.9-0.8,2-1.8c0.1-1-0.2-2-0.8-2.8c-0.6-0.8-1.2-1.6-1.8-2.4s-1-1.6-1.8-1.8
		c-0.7-0.1-1.4,0-2,0.4c-2.1,1-4.1,2.2-6,3.6"/>
	<path id="Trazado_35784" class="st0" d="M240.6,42.3c0,0,4.6,0.5,5.3-2.6c1.7-8.2-9.6-11.6-9.6-11.6s-3.9-1-10.4-3.4
		c-2.5-0.9-4.9-2.1-7.2-3.5c-2.1-1.3-4.7-1.3-6.8,0.1c-3.7,2.5-7.7,4.4-11.9,5.9c0,0-4.4,1.1-4.4,6.9c0,2.6,4.5,4.6,4.5,4.6
		L240.6,42.3L240.6,42.3z"/>
	<path id="Trazado_35785" class="st5" d="M239.9,46.9l0.8-4.8c0,0-26.4-9.5-40-3.4v5.4L239.9,46.9L239.9,46.9z"/>
	<path id="Trazado_35786" class="st0" d="M193.6,47.6c0,0,3.3,2.7,10.5,3c13.1,0.7,34.3-3.9,34.3-3.9l-37.7-2.7L193.6,47.6
		L193.6,47.6z"/>
	<path id="Trazado_35787" class="st12" d="M239.7,47.1c-0.4,0.1-0.7,0.2-1.1,0.2l-3,0.5c-2.6,0.4-6.2,1-10.1,1.6s-7.6,0.9-10.2,1.1
		c-1.3,0.1-2.4,0.1-3.1,0.1c-0.4,0-0.8,0-1.2,0c0.4-0.1,0.7-0.1,1.1-0.2l3.1-0.3c2.6-0.2,6.2-0.7,10.2-1.3s7.6-1.1,10.2-1.4
		c1.3-0.2,2.4-0.3,3.1-0.3C239,47,239.3,47,239.7,47.1"/>
	<path id="Trazado_35788" class="st15" d="M213.1,73.7v6.9h3.9v-6.8L213.1,73.7z"/>
	<path id="Trazado_35789" class="st13" d="M217.9,76.7c0,0-0.8,0.7-0.7,2.8s2.2,3.9,2.2,3.9v1.8l-6.6-7.4c0,0-0.6-1-1.6-0.7
		c-1.5,0.4-2.4,1.9-2,3.4c0,0,0,0,0,0c0.1,0.3,0.2,0.7,0.4,1c-1.1,0.4-1.9,1.6-1.7,2.8c0,0-2.7-0.9-2.7,2.2v1.9
		c-0.5-0.4-1.3-0.4-1.8,0c-0.9,0.8-0.7,3-0.4,4.1s7.7,11.5,10.1,12.6c1.4,0.6,2.7,1.5,3.8,2.5l5.1,6.2l9.4-8.8c0,0-5.7-5.7-6.1-6.8
		s0.7-4.5,0.6-5.8c-0.2-2.5-0.5-5-1-7.4C224.7,83.5,217.9,76.7,217.9,76.7"/>
	<path id="Trazado_35790" class="st14" d="M222.1,113.6c-0.1-0.1-0.3-0.2-0.4-0.4l-1-1.2l-3.8-4.5c-0.6-0.5-1.2-1-1.9-1.4
		c-0.4-0.2-0.8-0.5-1.1-0.7c-0.4-0.2-0.9-0.4-1.3-0.7c-1.6-1.4-3-3-4.3-4.7c-1.4-1.8-2.9-3.8-4.3-5.9c-0.4-0.6-0.7-1.1-1-1.8
		c-0.2-0.7-0.2-1.3-0.2-2c0-0.8,0.2-1.5,0.6-2.1c0.3-0.3,0.7-0.5,1.1-0.5c0.4,0,0.8,0.1,1.1,0.4l-0.4,0.2v-1.5c0-0.5,0-1.1,0.2-1.6
		c0.2-0.6,0.6-1,1.1-1.3c0.6-0.2,1.2-0.2,1.7,0l-0.3,0.2c0-0.6,0.1-1.2,0.4-1.8c0.3-0.6,0.9-1,1.5-1.2l-0.2,0.4
		c-0.3-0.6-0.5-1.2-0.6-1.8c0-0.7,0.2-1.3,0.7-1.8c0.4-0.5,1-0.9,1.6-1.1c0.4-0.1,0.8-0.1,1.1,0.1c0.3,0.2,0.6,0.4,0.8,0.7l0.2,0.2
		c2.2,2.5,4.4,4.9,6.5,7.2l-0.5,0.2v-1.8l0.1,0.2c-1-0.9-1.8-2-2.2-3.3c-0.2-0.6-0.2-1.3-0.1-1.9c0-0.7,0.3-1.3,0.8-1.8l0.1-0.2
		l0.2,0.2c1.7,1.8,3.3,3.4,4.8,5.1c0.7,0.8,1.4,1.7,2.1,2.6c0.1,0.3,0.2,0.5,0.3,0.8c0.1,0.2,0.1,0.5,0.1,0.8l0.2,1.5
		c0.1,1,0.2,2,0.3,2.9c0.1,0.5,0.1,0.9,0.1,1.4c0.1,0.5,0.1,0.9,0,1.4c-0.4,1.6-0.6,3.1-0.7,4.7c0.1,0.3,0.3,0.6,0.5,0.9
		c0.2,0.3,0.4,0.5,0.6,0.8c0.4,0.5,0.8,1,1.2,1.4l2,2.1l1.2,1.3c0.2,0.1,0.3,0.3,0.4,0.5c-0.2-0.1-0.3-0.3-0.5-0.4l-1.3-1.3
		c-0.6-0.6-1.2-1.3-2-2.1c-0.4-0.4-0.8-0.9-1.2-1.4c-0.2-0.2-0.4-0.5-0.6-0.8c-0.3-0.3-0.4-0.6-0.6-1c-0.1-1.6,0.4-3.1,0.6-4.8
		c0.1-0.9,0-1.8-0.1-2.7c-0.1-0.9-0.2-1.9-0.4-2.9c-0.1-0.5-0.1-1-0.2-1.5c0-0.3-0.1-0.5-0.1-0.8c0-0.2-0.1-0.5-0.2-0.7
		c-0.6-0.9-1.3-1.7-2-2.5c-1.5-1.7-3.1-3.3-4.8-5.1h0.3c-0.3,0.4-0.5,1-0.6,1.5c-0.1,0.6,0,1.2,0.1,1.8c0.4,1.2,1.1,2.2,2,3l0.1,0.1
		v2.6l-0.5-0.5l-6.5-7.3l-0.2-0.2c-0.2-0.5-0.8-0.7-1.3-0.6c-0.5,0.2-1,0.5-1.4,0.9c-0.4,0.4-0.6,0.9-0.6,1.5c0,0.6,0.2,1.1,0.5,1.6
		l0.1,0.3l-0.3,0.1c-0.5,0.2-0.9,0.5-1.2,1c-0.2,0.5-0.4,1-0.3,1.5v0.3l-0.3-0.1c-0.4-0.1-0.9-0.1-1.4,0c-0.4,0.2-0.7,0.5-0.8,0.9
		c-0.1,0.5-0.2,0.9-0.1,1.4v2l-0.4-0.3c-0.4-0.4-1.1-0.4-1.6,0c-0.4,0.5-0.5,1.1-0.5,1.8c0,0.6,0,1.3,0.2,1.9
		c0.3,0.6,0.6,1.1,0.9,1.6c1.4,2.1,2.9,4.1,4.3,5.9c1.2,1.7,2.7,3.2,4.2,4.6c0.2,0.1,0.4,0.3,0.6,0.4l0.6,0.3
		c0.4,0.2,0.8,0.5,1.2,0.7c0.7,0.4,1.3,1,1.9,1.5l3.7,4.6l1,1.2C221.8,113.2,221.9,113.4,222.1,113.6"/>
	<path id="Trazado_35791" class="st14" d="M214.4,87.1c-1-0.8-1.9-1.8-2.6-2.9c-0.9-1-1.6-2-2.2-3.2c1,0.8,1.9,1.8,2.6,2.9
		C213,84.9,213.8,86,214.4,87.1"/>
	<path id="Trazado_35792" class="st14" d="M210.8,88.5c-0.1,0.1-1-0.7-1.8-2c-0.5-0.7-0.9-1.6-0.9-2.5c0.5,0.7,1,1.4,1.4,2.2
		C210,86.9,210.5,87.7,210.8,88.5"/>
	<path id="Trazado_35793" class="st14" d="M206.6,91.1c-0.1,0.1-0.6-0.5-1-1.4s-0.7-1.5-0.6-1.6s0.6,0.5,1,1.4S206.7,91,206.6,91.1"
		/>
	<rect id="Rectángulo_28768" x="191.5" y="135.2" class="st0" width="18.1" height="3.9"/>
	<path id="Trazado_35794" class="st5" d="M187.4,199c0,0-2.2,9.4,30,8.3s45.2-13.3,45.2-13.3v15.1c0,0-34.9,13.9-59.1,10.4
		c-19-2.7-17.2-6.5-17.2-6.5L187.4,199L187.4,199z"/>
	<path id="Trazado_35795" class="st6" d="M192.7,205.8c-0.6,0.1-1.1,0.6-1.2,1.1c-0.1,0.6,0.3,1.2,0.9,1.3c0.7,0.1,1.3-0.3,1.5-1
		c0.1-0.7-0.3-1.3-1-1.5c0,0,0,0,0,0l0,0C192.8,205.8,192.8,205.8,192.7,205.8"/>
	<path id="Trazado_35796" class="st6" d="M187.6,211.3c3,2,6.8,2.3,10.1,0.8"/>
	<path id="Trazado_35797" class="st6" d="M261.5,194.9c-0.6,0.1-1.1,0.6-1.2,1.1c-0.1,0.6,0.3,1.2,0.9,1.3c0.7,0.1,1.3-0.3,1.5-1
		c0.1-0.7-0.3-1.3-1-1.5c0,0,0,0,0,0l0,0C261.6,194.9,261.6,194.9,261.5,194.9"/>
	<path id="Trazado_35798" class="st6" d="M243.2,206.1c3,2,6.8,2.3,10.1,0.8"/>
	<path id="Trazado_35799" class="st0" d="M217.3,207l0.9,13.3c0.1,0.9,0.9,1.6,1.8,1.5l9.5-0.6c0.9-0.1,1.6-0.8,1.6-1.8l-0.9-13.3
		c-0.1-0.9-0.9-1.6-1.8-1.5l-9.5,0.6C218,205.3,217.3,206,217.3,207 M227.5,219.5l-6.1,0.4c-0.9,0.1-1.7-0.6-1.8-1.5l0,0l-0.6-9.4
		c-0.1-0.9,0.6-1.7,1.6-1.7c0,0,0,0,0,0l0,0l6.1-0.4c0.9-0.1,1.7,0.6,1.8,1.5c0,0,0,0,0,0l0.6,9.3
		C229.2,218.6,228.5,219.4,227.5,219.5C227.6,219.5,227.6,219.5,227.5,219.5L227.5,219.5L227.5,219.5z"/>
	<path id="Trazado_35800" class="st0" d="M233.4,211.2c-1.5-0.5-3.1-0.7-4.6-0.7c-1.6,0.2-3.1,0.5-4.6,1.2c0.3-0.3,0.7-0.6,1.2-0.8
		c1-0.5,2.2-0.8,3.4-0.9c1.2-0.1,2.3,0.1,3.4,0.5C232.6,210.6,233.1,210.9,233.4,211.2"/>
	<path id="Trazado_35801" class="st0" d="M233.7,214.8c-2.9-1.1-6.2-0.9-8.9,0.6c0.3-0.4,0.7-0.7,1.1-0.9c2-1.1,4.4-1.3,6.6-0.5
		C233.3,214.4,233.7,214.7,233.7,214.8"/>
	<path id="Trazado_35806" class="st0" d="M209.4,130.5l-3.4-6.7c-0.4-0.9-1.5-1.3-2.4-0.8c-0.4,0.2-0.7,0.5-0.8,0.8l-2.4,4.7
		c-0.3-0.5-0.7-0.9-1.2-1.1c1-0.8,1.3-2.2,0.5-3.2c0,0,0,0,0,0c-0.2-0.3-0.5-0.5-0.8-0.7c-0.7-0.4-1.4-0.5-2.2-0.5h-3.6
		c-0.7,0-1.3,0.6-1.4,1.3l0,0v6.8c0,0.7,0.6,1.3,1.4,1.4h3.9c0.7,0,1.5-0.1,2.1-0.4l0.2-0.1l0,0c0.4,0.6,1.2,0.8,1.8,0.5
		c0.2-0.1,0.4-0.4,0.5-0.6c0.1-0.3,0.4-0.4,0.6-0.4h4.1c0.3,0,0.5,0.2,0.6,0.4c0.3,0.7,1.1,1,1.8,0.7s1-1.1,0.7-1.8
		C209.4,130.6,209.3,130.6,209.4,130.5"/>
	<path id="Trazado_35807" class="st0" d="M312.8,139.1l-6.6-3.6c-0.9-0.5-2-0.2-2.4,0.7c0,0,0,0,0,0c-0.2,0.3-0.3,0.8-0.2,1.1
		l0.6,5.2c-0.5-0.2-1.1-0.3-1.6-0.2c0.4-1.2-0.2-2.5-1.4-3c0,0,0,0,0,0c-0.3-0.1-0.7-0.2-1.1-0.1c-0.8,0.1-1.5,0.4-2.1,0.8l-3,2.1
		c-0.6,0.4-0.8,1.2-0.4,1.9c0,0,0,0,0,0l0,0l3.8,5.6c0.4,0.6,1.3,0.8,1.9,0.4l3.2-2.2c0.6-0.4,1.1-0.9,1.5-1.6l0.1-0.2l0,0
		c0.7,0.3,1.5,0,1.8-0.7c0.1-0.3,0.1-0.5,0.1-0.8c-0.1-0.3,0.1-0.5,0.3-0.7l3.4-2.3c0.2-0.1,0.5-0.1,0.8,0c0.6,0.4,1.5,0.2,1.9-0.4
		c0.3-0.5,0.3-1,0-1.5C313.2,139.3,313,139.2,312.8,139.1"/>
	<path id="Icon_material-lock" class="st5" d="M505.8,146.5h-2v-4.1c-0.1-5.6-4.7-10.1-10.3-10c-5.5,0.1-9.9,4.5-10,10v4.1h-2
		c-2.2,0-4.1,1.8-4.1,4.1v20.3c0,2.2,1.8,4.1,4.1,4.1h24.4c2.2,0,4.1-1.8,4.1-4.1v-20.3C509.8,148.3,508,146.5,505.8,146.5
		L505.8,146.5z M493.6,164.8c-2.2,0-4.1-1.8-4.1-4.1c0-2.2,1.8-4.1,4.1-4.1c2.2,0,4.1,1.8,4.1,4.1
		C497.6,163,495.8,164.8,493.6,164.8C493.6,164.8,493.6,164.8,493.6,164.8L493.6,164.8z M499.9,146.5h-12.6v-4.1
		c0-3.5,2.8-6.3,6.3-6.3c3.5,0,6.3,2.8,6.3,6.3l0,0L499.9,146.5L499.9,146.5z"/>
</g>
<g>
	<path d="M466.1,220.5c-0.3,0-0.5-0.1-0.7-0.2c-0.2-0.1-0.3-0.3-0.3-0.5c0-0.2,0-0.4,0.1-0.7l4.5-9.9c0.1-0.3,0.3-0.6,0.5-0.7
		s0.5-0.2,0.7-0.2c0.3,0,0.5,0.1,0.7,0.2c0.2,0.1,0.4,0.4,0.5,0.7l4.5,9.9c0.1,0.3,0.2,0.5,0.1,0.7c0,0.2-0.1,0.4-0.3,0.5
		c-0.2,0.1-0.4,0.2-0.6,0.2c-0.3,0-0.6-0.1-0.7-0.2c-0.2-0.2-0.3-0.4-0.5-0.7l-1.1-2.6l0.9,0.6h-7.2l0.9-0.6l-1.1,2.6
		c-0.1,0.3-0.3,0.6-0.5,0.7C466.6,220.5,466.4,220.5,466.1,220.5z M471,210.8l-2.4,5.7l-0.4-0.5h5.7l-0.4,0.5L471,210.8L471,210.8z"
		/>
	<path d="M482.2,220.6c-0.9,0-1.6-0.2-2.3-0.5c-0.6-0.4-1.1-0.9-1.5-1.5s-0.5-1.4-0.5-2.3c0-0.7,0.1-1.3,0.3-1.8
		c0.2-0.5,0.5-1,0.9-1.3c0.4-0.4,0.8-0.7,1.4-0.8c0.5-0.2,1.1-0.3,1.8-0.3c0.4,0,0.8,0.1,1.2,0.2c0.4,0.1,0.8,0.3,1.2,0.5
		c0.2,0.1,0.3,0.2,0.4,0.4c0.1,0.2,0.1,0.3,0,0.5c0,0.2-0.1,0.3-0.2,0.4c-0.1,0.1-0.2,0.2-0.4,0.2c-0.2,0-0.3,0-0.5-0.1
		c-0.2-0.1-0.5-0.3-0.8-0.3c-0.3-0.1-0.5-0.1-0.7-0.1c-0.4,0-0.7,0.1-1,0.2c-0.3,0.1-0.5,0.3-0.7,0.5s-0.3,0.5-0.5,0.8
		c-0.1,0.3-0.2,0.7-0.2,1.1c0,0.8,0.2,1.5,0.6,2s1,0.7,1.7,0.7c0.2,0,0.5,0,0.7-0.1c0.3-0.1,0.5-0.2,0.8-0.3
		c0.2-0.1,0.4-0.1,0.5-0.1c0.2,0,0.3,0.1,0.4,0.2c0.1,0.1,0.2,0.3,0.2,0.4c0,0.2,0,0.3-0.1,0.5c-0.1,0.2-0.2,0.3-0.3,0.4
		c-0.4,0.2-0.8,0.4-1.2,0.5C482.9,220.5,482.5,220.6,482.2,220.6z"/>
	<path d="M490,220.6c-0.9,0-1.6-0.2-2.3-0.5c-0.6-0.4-1.1-0.9-1.5-1.5s-0.5-1.4-0.5-2.3c0-0.7,0.1-1.3,0.3-1.8
		c0.2-0.5,0.5-1,0.9-1.3c0.4-0.4,0.8-0.7,1.4-0.8c0.5-0.2,1.1-0.3,1.8-0.3c0.4,0,0.8,0.1,1.2,0.2c0.4,0.1,0.8,0.3,1.2,0.5
		c0.2,0.1,0.3,0.2,0.4,0.4c0.1,0.2,0.1,0.3,0,0.5c0,0.2-0.1,0.3-0.2,0.4c-0.1,0.1-0.2,0.2-0.4,0.2c-0.2,0-0.3,0-0.5-0.1
		c-0.2-0.1-0.5-0.3-0.8-0.3c-0.3-0.1-0.5-0.1-0.7-0.1c-0.4,0-0.7,0.1-1,0.2c-0.3,0.1-0.5,0.3-0.7,0.5s-0.3,0.5-0.5,0.8
		c-0.1,0.3-0.2,0.7-0.2,1.1c0,0.8,0.2,1.5,0.6,2s1,0.7,1.7,0.7c0.2,0,0.5,0,0.7-0.1c0.3-0.1,0.5-0.2,0.8-0.3
		c0.2-0.1,0.4-0.1,0.5-0.1c0.2,0,0.3,0.1,0.4,0.2c0.1,0.1,0.2,0.3,0.2,0.4c0,0.2,0,0.3-0.1,0.5c-0.1,0.2-0.2,0.3-0.3,0.4
		c-0.4,0.2-0.8,0.4-1.2,0.5C490.8,220.5,490.4,220.6,490,220.6z"/>
	<path d="M498.1,220.6c-0.9,0-1.8-0.2-2.4-0.5c-0.7-0.4-1.2-0.8-1.6-1.5c-0.4-0.6-0.6-1.4-0.6-2.3c0-0.9,0.2-1.6,0.5-2.3
		c0.4-0.6,0.8-1.2,1.5-1.5s1.3-0.6,2.2-0.6c0.6,0,1.1,0.1,1.6,0.3c0.5,0.2,0.9,0.5,1.2,0.8c0.3,0.4,0.6,0.8,0.8,1.3
		c0.2,0.5,0.3,1.1,0.3,1.7c0,0.2-0.1,0.4-0.2,0.5c-0.1,0.1-0.3,0.2-0.6,0.2h-5.5v-1.2h4.8l-0.3,0.3c0-0.5-0.1-1-0.2-1.3
		c-0.2-0.4-0.4-0.6-0.7-0.8c-0.3-0.2-0.6-0.3-1.1-0.3c-0.5,0-0.9,0.1-1.2,0.3c-0.3,0.2-0.6,0.5-0.8,0.9s-0.3,0.9-0.3,1.4v0.1
		c0,0.9,0.2,1.6,0.7,2.1c0.4,0.5,1.1,0.7,1.9,0.7c0.3,0,0.6,0,1-0.1c0.4-0.1,0.7-0.2,1-0.4c0.2-0.1,0.4-0.2,0.6-0.2
		c0.2,0,0.3,0.1,0.4,0.2c0.1,0.1,0.2,0.3,0.2,0.4c0,0.2,0,0.3-0.1,0.5s-0.2,0.3-0.4,0.4c-0.4,0.2-0.9,0.4-1.4,0.6
		S498.6,220.6,498.1,220.6z"/>
	<path d="M506.3,220.6c-0.5,0-1-0.1-1.5-0.2c-0.5-0.1-1-0.3-1.5-0.5c-0.2-0.1-0.3-0.2-0.4-0.4c-0.1-0.2-0.1-0.3-0.1-0.5
		c0-0.2,0.1-0.3,0.2-0.4c0.1-0.1,0.2-0.2,0.4-0.2c0.2,0,0.3,0,0.5,0.1c0.5,0.2,0.9,0.4,1.3,0.5c0.4,0.1,0.8,0.1,1.2,0.1
		c0.5,0,0.9-0.1,1.2-0.3c0.3-0.2,0.4-0.4,0.4-0.7c0-0.3-0.1-0.5-0.3-0.6s-0.4-0.2-0.8-0.3l-1.7-0.3c-0.7-0.1-1.2-0.4-1.6-0.8
		c-0.4-0.4-0.6-0.9-0.6-1.5c0-0.5,0.1-1,0.5-1.4c0.3-0.4,0.7-0.7,1.2-0.9c0.5-0.2,1.1-0.3,1.8-0.3c0.5,0,1,0.1,1.4,0.2
		c0.4,0.1,0.9,0.3,1.3,0.5c0.2,0.1,0.3,0.2,0.3,0.4c0.1,0.1,0.1,0.3,0,0.5c0,0.2-0.1,0.3-0.2,0.4c-0.1,0.1-0.2,0.2-0.4,0.2
		c-0.2,0-0.3,0-0.5-0.1c-0.4-0.2-0.7-0.3-1-0.4s-0.6-0.1-0.9-0.1c-0.6,0-1,0.1-1.2,0.3c-0.3,0.2-0.4,0.4-0.4,0.8
		c0,0.2,0.1,0.4,0.2,0.6c0.2,0.2,0.4,0.3,0.7,0.3l1.7,0.3c0.7,0.1,1.3,0.4,1.7,0.7c0.4,0.4,0.6,0.9,0.6,1.5c0,0.8-0.3,1.5-1,1.9
		C508.2,220.3,507.4,220.6,506.3,220.6z"/>
	<path d="M515.3,220.6c-0.9,0-1.6-0.2-2.2-0.5c-0.6-0.4-1.1-0.9-1.5-1.5s-0.5-1.4-0.5-2.3c0-0.7,0.1-1.3,0.3-1.8
		c0.2-0.5,0.5-1,0.9-1.4s0.8-0.7,1.3-0.9c0.5-0.2,1.1-0.3,1.8-0.3c0.9,0,1.6,0.2,2.2,0.5s1.1,0.8,1.5,1.5c0.4,0.6,0.5,1.4,0.5,2.3
		c0,0.7-0.1,1.3-0.3,1.8c-0.2,0.5-0.5,1-0.9,1.4s-0.8,0.7-1.3,0.9C516.6,220.5,516,220.6,515.3,220.6z M515.3,219
		c0.4,0,0.8-0.1,1.1-0.3s0.6-0.5,0.7-0.9s0.3-0.9,0.3-1.5c0-0.9-0.2-1.6-0.6-2c-0.4-0.4-0.9-0.7-1.5-0.7c-0.4,0-0.8,0.1-1.1,0.3
		s-0.6,0.5-0.7,0.9c-0.2,0.4-0.3,0.9-0.3,1.5c0,0.9,0.2,1.6,0.6,2C514.2,218.7,514.7,219,515.3,219z"/>
	<path d="M457.7,241c-0.7,0-1.4-0.2-1.9-0.5c-0.5-0.4-1-0.9-1.3-1.5c-0.3-0.7-0.5-1.4-0.5-2.3c0-0.9,0.2-1.7,0.5-2.3
		c0.3-0.6,0.7-1.1,1.3-1.5s1.2-0.5,1.9-0.5c0.7,0,1.3,0.2,1.8,0.5c0.5,0.3,0.9,0.8,1,1.3h-0.2v-4.4c0-0.4,0.1-0.6,0.3-0.8
		c0.2-0.2,0.4-0.3,0.8-0.3c0.3,0,0.6,0.1,0.8,0.3c0.2,0.2,0.3,0.4,0.3,0.8v10.1c0,0.4-0.1,0.6-0.3,0.8c-0.2,0.2-0.4,0.3-0.8,0.3
		s-0.6-0.1-0.8-0.3c-0.2-0.2-0.3-0.5-0.3-0.8v-1.3l0.2,0.5c-0.2,0.6-0.5,1.1-1,1.4C459,240.8,458.4,241,457.7,241z M458.3,239.4
		c0.4,0,0.8-0.1,1.1-0.3s0.6-0.5,0.7-0.9s0.3-0.9,0.3-1.5c0-0.9-0.2-1.6-0.6-2c-0.4-0.4-0.9-0.7-1.5-0.7c-0.4,0-0.8,0.1-1.1,0.3
		s-0.6,0.5-0.7,0.9c-0.2,0.4-0.3,0.9-0.3,1.5c0,0.9,0.2,1.6,0.6,2C457.1,239.1,457.6,239.4,458.3,239.4z"/>
	<path d="M468.8,241c-0.9,0-1.8-0.2-2.4-0.5c-0.7-0.4-1.2-0.8-1.6-1.5c-0.4-0.6-0.6-1.4-0.6-2.3c0-0.9,0.2-1.6,0.5-2.3
		c0.4-0.6,0.8-1.2,1.5-1.5s1.3-0.6,2.2-0.6c0.6,0,1.1,0.1,1.6,0.3c0.5,0.2,0.9,0.5,1.2,0.8c0.3,0.4,0.6,0.8,0.8,1.3
		c0.2,0.5,0.3,1.1,0.3,1.7c0,0.2-0.1,0.4-0.2,0.5c-0.1,0.1-0.3,0.2-0.6,0.2h-5.5v-1.2h4.8l-0.3,0.3c0-0.5-0.1-1-0.2-1.3
		c-0.2-0.4-0.4-0.6-0.7-0.8c-0.3-0.2-0.6-0.3-1.1-0.3c-0.5,0-0.9,0.1-1.2,0.3c-0.3,0.2-0.6,0.5-0.8,0.9s-0.3,0.9-0.3,1.4v0.1
		c0,0.9,0.2,1.6,0.7,2.1c0.4,0.5,1.1,0.7,1.9,0.7c0.3,0,0.6,0,1-0.1c0.4-0.1,0.7-0.2,1-0.4c0.2-0.1,0.4-0.2,0.6-0.2
		c0.2,0,0.3,0.1,0.4,0.2c0.1,0.1,0.2,0.3,0.2,0.4c0,0.2,0,0.3-0.1,0.5s-0.2,0.3-0.4,0.4c-0.4,0.2-0.9,0.4-1.4,0.6
		S469.2,241,468.8,241z"/>
	<path d="M475,240.9c-0.3,0-0.6-0.1-0.8-0.3c-0.2-0.2-0.3-0.5-0.3-0.8v-6.4c0-0.4,0.1-0.6,0.3-0.8s0.4-0.3,0.8-0.3
		c0.3,0,0.6,0.1,0.8,0.3c0.2,0.2,0.3,0.4,0.3,0.8v1.2l-0.2-0.4c0.2-0.6,0.6-1.1,1.2-1.4c0.5-0.3,1.1-0.5,1.8-0.5
		c0.7,0,1.2,0.1,1.6,0.4c0.4,0.2,0.8,0.6,1,1.1c0.2,0.5,0.3,1.1,0.3,1.9v4.1c0,0.4-0.1,0.6-0.3,0.8c-0.2,0.2-0.4,0.3-0.8,0.3
		s-0.6-0.1-0.8-0.3c-0.2-0.2-0.3-0.5-0.3-0.8v-4c0-0.6-0.1-1.1-0.4-1.4s-0.6-0.4-1.1-0.4c-0.6,0-1.1,0.2-1.5,0.6s-0.6,0.9-0.6,1.6
		v3.7C476,240.6,475.7,240.9,475,240.9z"/>
	<path d="M487.9,241c-0.9,0-1.8-0.2-2.4-0.5c-0.7-0.4-1.2-0.8-1.6-1.5c-0.4-0.6-0.6-1.4-0.6-2.3c0-0.9,0.2-1.6,0.5-2.3
		c0.4-0.6,0.8-1.2,1.5-1.5s1.3-0.6,2.2-0.6c0.6,0,1.1,0.1,1.6,0.3c0.5,0.2,0.9,0.5,1.2,0.8c0.3,0.4,0.6,0.8,0.8,1.3
		c0.2,0.5,0.3,1.1,0.3,1.7c0,0.2-0.1,0.4-0.2,0.5c-0.1,0.1-0.3,0.2-0.6,0.2h-5.5v-1.2h4.8l-0.3,0.3c0-0.5-0.1-1-0.2-1.3
		c-0.2-0.4-0.4-0.6-0.7-0.8c-0.3-0.2-0.6-0.3-1.1-0.3c-0.5,0-0.9,0.1-1.2,0.3c-0.3,0.2-0.6,0.5-0.8,0.9s-0.3,0.9-0.3,1.4v0.1
		c0,0.9,0.2,1.6,0.7,2.1c0.4,0.5,1.1,0.7,1.9,0.7c0.3,0,0.6,0,1-0.1c0.4-0.1,0.7-0.2,1-0.4c0.2-0.1,0.4-0.2,0.6-0.2
		c0.2,0,0.3,0.1,0.4,0.2c0.1,0.1,0.2,0.3,0.2,0.4c0,0.2,0,0.3-0.1,0.5s-0.2,0.3-0.4,0.4c-0.4,0.2-0.9,0.4-1.4,0.6
		S488.4,241,487.9,241z"/>
	<path d="M496.9,244c-0.6,0-1.2-0.1-1.8-0.2s-1.1-0.3-1.6-0.5c-0.2-0.1-0.4-0.2-0.4-0.4c-0.1-0.2-0.1-0.3-0.1-0.5s0.1-0.3,0.2-0.4
		s0.2-0.2,0.4-0.3c0.2,0,0.3,0,0.5,0.1c0.5,0.2,1,0.4,1.4,0.5c0.4,0.1,0.8,0.1,1.1,0.1c0.8,0,1.3-0.2,1.7-0.6s0.6-0.9,0.6-1.6v-1.5
		h0.2c-0.2,0.6-0.5,1-1.1,1.4c-0.5,0.3-1.1,0.5-1.8,0.5c-0.7,0-1.4-0.2-2-0.5c-0.6-0.3-1-0.8-1.3-1.5c-0.3-0.6-0.5-1.3-0.5-2.2
		c0-0.6,0.1-1.2,0.3-1.7c0.2-0.5,0.4-0.9,0.7-1.3c0.3-0.4,0.7-0.6,1.2-0.8s1-0.3,1.5-0.3c0.7,0,1.3,0.2,1.8,0.5
		c0.5,0.3,0.9,0.8,1,1.4l-0.2,0.4v-1.2c0-0.4,0.1-0.6,0.3-0.8c0.2-0.2,0.4-0.3,0.8-0.3c0.3,0,0.6,0.1,0.8,0.3
		c0.2,0.2,0.3,0.4,0.3,0.8v6.5c0,1.3-0.4,2.4-1.1,3S498.3,244,496.9,244z M496.9,239c0.4,0,0.8-0.1,1.1-0.3c0.3-0.2,0.6-0.5,0.7-0.9
		c0.2-0.4,0.3-0.8,0.3-1.4c0-0.8-0.2-1.4-0.6-1.8c-0.4-0.4-0.9-0.7-1.6-0.7c-0.4,0-0.8,0.1-1.1,0.3c-0.3,0.2-0.6,0.5-0.7,0.9
		s-0.3,0.8-0.3,1.3c0,0.8,0.2,1.4,0.6,1.9C495.7,238.8,496.2,239,496.9,239z"/>
	<path d="M506.1,241c-0.6,0-1.1-0.1-1.6-0.3s-0.8-0.5-1.1-0.9c-0.3-0.4-0.4-0.8-0.4-1.3c0-0.6,0.2-1.1,0.5-1.5
		c0.3-0.4,0.8-0.6,1.5-0.8c0.7-0.2,1.7-0.2,2.9-0.2h0.8v1.2h-0.8c-0.7,0-1.3,0-1.7,0.1c-0.4,0.1-0.7,0.2-0.9,0.3
		c-0.2,0.2-0.3,0.4-0.3,0.7c0,0.4,0.1,0.7,0.4,0.9c0.3,0.2,0.6,0.4,1.1,0.4c0.4,0,0.7-0.1,1-0.3s0.5-0.4,0.7-0.7
		c0.2-0.3,0.3-0.7,0.3-1.1v-2c0-0.6-0.1-1-0.4-1.2s-0.7-0.4-1.3-0.4c-0.3,0-0.7,0-1.1,0.1s-0.8,0.2-1.2,0.4
		c-0.2,0.1-0.4,0.1-0.6,0.1c-0.2,0-0.3-0.1-0.4-0.3s-0.1-0.3-0.1-0.5c0-0.2,0-0.3,0.1-0.5s0.2-0.3,0.5-0.4c0.5-0.2,1-0.4,1.5-0.5
		c0.5-0.1,0.9-0.1,1.3-0.1c0.8,0,1.5,0.1,2,0.4c0.5,0.2,0.9,0.6,1.2,1.1c0.3,0.5,0.4,1.2,0.4,1.9v4.1c0,0.4-0.1,0.6-0.3,0.8
		c-0.2,0.2-0.4,0.3-0.7,0.3s-0.6-0.1-0.7-0.3c-0.2-0.2-0.3-0.5-0.3-0.8V239h0.1c-0.1,0.4-0.2,0.7-0.5,1c-0.2,0.3-0.5,0.5-0.9,0.7
		C506.9,240.9,506.5,241,506.1,241z"/>
	<path d="M515.8,241c-0.7,0-1.4-0.2-1.9-0.5c-0.5-0.4-1-0.9-1.3-1.5c-0.3-0.7-0.5-1.4-0.5-2.3c0-0.9,0.2-1.7,0.5-2.3
		c0.3-0.6,0.7-1.1,1.3-1.5s1.2-0.5,1.9-0.5c0.7,0,1.3,0.2,1.8,0.5c0.5,0.3,0.9,0.8,1,1.3h-0.2v-4.4c0-0.4,0.1-0.6,0.3-0.8
		c0.2-0.2,0.4-0.3,0.8-0.3c0.3,0,0.6,0.1,0.8,0.3c0.2,0.2,0.3,0.4,0.3,0.8v10.1c0,0.4-0.1,0.6-0.3,0.8c-0.2,0.2-0.4,0.3-0.8,0.3
		s-0.6-0.1-0.8-0.3c-0.2-0.2-0.3-0.5-0.3-0.8v-1.3l0.2,0.5c-0.2,0.6-0.5,1.1-1,1.4C517.1,240.8,516.5,241,515.8,241z M516.4,239.4
		c0.4,0,0.8-0.1,1.1-0.3s0.6-0.5,0.7-0.9s0.3-0.9,0.3-1.5c0-0.9-0.2-1.6-0.6-2c-0.4-0.4-0.9-0.7-1.5-0.7c-0.4,0-0.8,0.1-1.1,0.3
		s-0.6,0.5-0.7,0.9c-0.2,0.4-0.3,0.9-0.3,1.5c0,0.9,0.2,1.6,0.6,2C515.3,239.1,515.8,239.4,516.4,239.4z"/>
	<path d="M526.6,241c-0.9,0-1.6-0.2-2.2-0.5c-0.6-0.4-1.1-0.9-1.5-1.5s-0.5-1.4-0.5-2.3c0-0.7,0.1-1.3,0.3-1.8
		c0.2-0.5,0.5-1,0.9-1.4s0.8-0.7,1.3-0.9c0.5-0.2,1.1-0.3,1.8-0.3c0.9,0,1.6,0.2,2.2,0.5s1.1,0.8,1.5,1.5c0.4,0.6,0.5,1.4,0.5,2.3
		c0,0.7-0.1,1.3-0.3,1.8c-0.2,0.5-0.5,1-0.9,1.4s-0.8,0.7-1.3,0.9C527.8,240.9,527.3,241,526.6,241z M526.6,239.4
		c0.4,0,0.8-0.1,1.1-0.3s0.6-0.5,0.7-0.9s0.3-0.9,0.3-1.5c0-0.9-0.2-1.6-0.6-2c-0.4-0.4-0.9-0.7-1.5-0.7c-0.4,0-0.8,0.1-1.1,0.3
		s-0.6,0.5-0.7,0.9c-0.2,0.4-0.3,0.9-0.3,1.5c0,0.9,0.2,1.6,0.6,2C525.5,239.1,526,239.4,526.6,239.4z"/>
</g>
</svg>
