<svg width="452" height="452" viewBox="0 0 452 452" fill="none" xmlns="http://www.w3.org/2000/svg">
<path d="M452 345.69H0V345.916H452V345.69Z" fill="#E6E6E6"/>
<path d="M95.815 356.411H46.6917V356.637H95.815V356.411Z" fill="#E6E6E6"/>
<path d="M226.904 351.502H208.408V351.728H226.904V351.502Z" fill="#E6E6E6"/>
<path d="M163.877 351.502H136.811V351.728H163.877V351.502Z" fill="#E6E6E6"/>
<path d="M387.735 354.106H330.475V354.332H387.735V354.106Z" fill="#E6E6E6"/>
<path d="M216.255 354.106H203.337V354.332H216.255V354.106Z" fill="#E6E6E6"/>
<path d="M116.616 356.411H104.566V356.637H116.616V356.411Z" fill="#E6E6E6"/>
<path d="M402.813 354.106H395.12V354.332H402.813V354.106Z" fill="#E6E6E6"/>
<path d="M214.248 305.371H39.6945C38.3271 305.369 37.0165 304.824 36.0504 303.856C35.0843 302.888 34.5417 301.577 34.5417 300.209V54.8366C34.5537 53.477 35.1015 52.177 36.0663 51.219C37.0311 50.261 38.3349 49.7223 39.6945 49.72H214.248C215.617 49.72 216.93 50.2638 217.898 51.2318C218.866 52.1999 219.41 53.5128 219.41 54.8818V300.209C219.41 301.578 218.866 302.891 217.898 303.859C216.93 304.827 215.617 305.371 214.248 305.371ZM39.6945 49.9008C38.387 49.9032 37.1339 50.4242 36.2102 51.3496C35.2865 52.275 34.7677 53.5291 34.7677 54.8366V300.209C34.7677 301.517 35.2865 302.771 36.2102 303.696C37.1339 304.622 38.387 305.143 39.6945 305.145H214.248C215.556 305.143 216.81 304.622 217.735 303.697C218.661 302.772 219.181 301.518 219.184 300.209V54.8366C219.181 53.5283 218.661 52.2742 217.735 51.3491C216.81 50.424 215.556 49.9032 214.248 49.9008H39.6945Z" fill="#E6E6E6"/>
<path d="M409.792 305.371H235.23C233.862 305.369 232.55 304.824 231.583 303.857C230.615 302.889 230.071 301.578 230.068 300.209V54.8366C230.082 53.4762 230.632 52.1762 231.598 51.2184C232.565 50.2607 233.869 49.7223 235.23 49.72H409.792C411.15 49.7247 412.452 50.2644 413.415 51.2222C414.378 52.1799 414.924 53.4786 414.936 54.8366V300.209C414.936 301.575 414.395 302.885 413.431 303.853C412.467 304.82 411.158 305.366 409.792 305.371ZM235.23 49.9008C233.922 49.9032 232.668 50.424 231.742 51.3491C230.817 52.2742 230.297 53.5283 230.294 54.8366V300.209C230.297 301.518 230.817 302.772 231.742 303.697C232.668 304.622 233.922 305.143 235.23 305.145H409.792C411.101 305.143 412.355 304.622 413.28 303.697C414.205 302.772 414.726 301.518 414.728 300.209V54.8366C414.726 53.5283 414.205 52.2742 413.28 51.3491C412.355 50.424 411.101 49.9032 409.792 49.9008H235.23Z" fill="#E6E6E6"/>
<path d="M372.593 77.3462H171.1V194.468H372.593V77.3462Z" fill="#E6E6E6"/>
<path d="M375.314 77.3462H173.821V194.468H375.314V77.3462Z" fill="#F5F5F5"/>
<path d="M370.423 188.972V82.8425L178.712 82.8425V188.972H370.423Z" fill="white"/>
<path d="M370.432 188.972V82.8425H368.371V188.972H370.432Z" fill="#E6E6E6"/>
<path d="M373.298 155.985H175.846V163.362H373.298V155.985Z" fill="#F5F5F5"/>
<path d="M228.712 267.683H195.625V341.043H228.712V267.683Z" fill="#E6E6E6"/>
<path d="M347.624 341.043H201.972V345.69H347.624V341.043Z" fill="#E6E6E6"/>
<path d="M228.703 341.043H353.979V267.683H228.703V341.043Z" fill="#F5F5F5"/>
<path d="M241.721 300.77H340.98V276.714H241.721V300.77Z" fill="#E6E6E6"/>
<path d="M241.721 332.003H340.98V307.948H241.721V332.003Z" fill="#E6E6E6"/>
<path d="M306.23 287.092H276.47C275.667 287.092 275.015 287.744 275.015 288.548V288.936C275.015 289.74 275.667 290.392 276.47 290.392H306.23C307.034 290.392 307.685 289.74 307.685 288.936V288.548C307.685 287.744 307.034 287.092 306.23 287.092Z" fill="#F5F5F5"/>
<path d="M306.23 318.335H276.47C275.667 318.335 275.015 318.986 275.015 319.79V320.179C275.015 320.982 275.667 321.634 276.47 321.634H306.23C307.034 321.634 307.685 320.982 307.685 320.179V319.79C307.685 318.986 307.034 318.335 306.23 318.335Z" fill="#F5F5F5"/>
<path d="M129.615 345.69H59.1306L49.4126 111.852H119.897L129.615 345.69Z" fill="#E6E6E6"/>
<path d="M139.822 345.69H60.9387L51.2207 111.852H130.104L139.822 345.69Z" fill="#F5F5F5"/>
<path d="M68.7312 337.554L59.6912 119.988H122.302L131.351 337.554H68.7312Z" fill="white"/>
<path d="M257.577 256.365C258.481 231.668 259.385 197.452 257.477 185.067L254.358 182.653C254.358 182.653 255.036 184.958 255.398 222.8C255.76 260.641 256.203 250.742 255.823 256.365H257.577Z" fill="#E0E0E0"/>
<path d="M263.38 174.553C269.148 166.734 281.289 161.174 293.863 161.201C298.799 161.201 279.164 170.296 271.218 180.321C265.044 188.104 258.237 201.203 256.013 208.471C257.079 193.176 257.64 182.364 263.38 174.553Z" fill="#E0E0E0"/>
<path d="M251.809 194.92C246.512 186.784 234.714 180.52 222.167 179.815C217.24 179.534 236.306 189.759 243.655 200.218C249.359 208.354 255.407 221.823 257.215 229.218C257.016 213.886 257.116 203.065 251.809 194.92Z" fill="#E0E0E0"/>
<path d="M254.178 161.5C249.35 152.008 238.086 142.85 225.837 139.126C221.019 137.661 240.97 154.367 246.674 167.15C251.104 177.094 256.474 189.587 257.884 197.479C258.408 181.912 258.996 171.001 254.178 161.5Z" fill="#E0E0E0"/>
<path d="M256.411 267.683C259.346 267.683 262.169 266.559 264.301 264.541C266.433 262.524 267.711 259.766 267.873 256.835L268.886 239.207H243.935L244.957 256.835C245.116 259.765 246.393 262.523 248.523 264.541C250.654 266.558 253.476 267.683 256.411 267.683Z" fill="#F0F0F0"/>
<path d="M242.326 243.23H270.504L271.309 235.917H241.513L242.326 243.23Z" fill="#EBEBEB"/>
<path d="M362.115 122.185H380.774V71.5606H362.115V122.185Z" fill="#E6E6E6"/>
<path d="M362.115 71.5697H352.867V118.126H362.115V71.5697Z" fill="#F5F5F5"/>
<path d="M334.209 122.185H352.867V71.5606H334.209V122.185Z" fill="#E6E6E6"/>
<path d="M334.209 71.5697H324.961V118.126H334.209V71.5697Z" fill="#F5F5F5"/>
<path d="M306.302 122.185H324.961V71.5606H306.302V122.185Z" fill="#E6E6E6"/>
<path d="M306.302 71.5697H297.054V118.126H306.302V71.5697Z" fill="#F5F5F5"/>
<path d="M278.387 122.185H297.045V71.5606H278.387V122.185Z" fill="#E6E6E6"/>
<path d="M278.387 71.5697H269.139V118.126H278.387V71.5697Z" fill="#F5F5F5"/>
<path d="M250.489 122.185H269.148V71.5606H250.489V122.185Z" fill="#E6E6E6"/>
<path d="M250.48 71.5697H241.232V118.126H250.48V71.5697Z" fill="#F5F5F5"/>
<path d="M222.574 122.185H241.232V71.5606H222.574V122.185Z" fill="#E6E6E6"/>
<path d="M222.574 71.5697H213.326V118.126H222.574V71.5697Z" fill="#F5F5F5"/>
<path d="M194.667 122.185H213.326V71.5606H194.667V122.185Z" fill="#E6E6E6"/>
<path d="M194.667 71.5697H185.419V118.126H194.667V71.5697Z" fill="#F5F5F5"/>
<path d="M166.761 122.185H185.419V71.5606H166.761V122.185Z" fill="#E6E6E6"/>
<path d="M226 386.514C322.803 386.514 401.277 381.933 401.277 376.281C401.277 370.629 322.803 366.048 226 366.048C129.197 366.048 50.7234 370.629 50.7234 376.281C50.7234 381.933 129.197 386.514 226 386.514Z" fill="#F5F5F5"/>
<path d="M318.588 198.455L322.43 204.331L328.143 203.147L323.831 195.843L318.588 198.455Z" fill="#9F5B53"/>
<path d="M329.481 148.093C330.295 149.079 330.973 149.955 331.669 150.914C332.365 151.872 333.034 152.794 333.694 153.752C335.014 155.66 336.27 157.621 337.445 159.637C338.62 161.653 339.76 163.714 340.754 165.875C341.287 166.933 341.739 168.054 342.227 169.147C342.716 170.241 343.131 171.389 343.484 172.574L343.773 173.478L343.918 173.921C343.999 174.183 344.081 174.463 344.135 174.725C344.334 175.663 344.401 176.625 344.334 177.582C344.214 179.081 343.889 180.556 343.366 181.966C342.482 184.316 341.348 186.565 339.985 188.674C337.447 192.589 334.501 196.225 331.199 199.522L327.248 196.43C329.42 192.723 331.406 188.909 333.196 185.004C334.019 183.221 334.676 181.366 335.158 179.462C335.338 178.747 335.42 178.011 335.402 177.274C335.401 177.118 335.368 176.964 335.303 176.822L335.158 176.479L334.86 175.792C333.167 171.989 331.172 168.328 328.893 164.844C327.754 163.036 326.552 161.292 325.341 159.529C324.129 157.766 322.809 156.003 321.616 154.403L329.481 148.093Z" fill="#9F5B53"/>
<path d="M327.248 143.646C333.477 145.074 340.618 162.042 340.618 162.042L328.152 170.612C325.04 166.152 322.277 161.459 319.889 156.573C316.192 148.807 320.92 142.19 327.248 143.646Z" fill="#8F8E2A"/>
<path opacity="0.8" d="M327.248 143.646C333.477 145.074 340.618 162.042 340.618 162.042L328.152 170.612C325.04 166.152 322.277 161.459 319.889 156.573C316.192 148.807 320.92 142.19 327.248 143.646Z" fill="white"/>
<path d="M322.818 154.466L328.731 170.205L328.143 170.612C328.143 170.612 325.585 166.996 322.818 162.178V154.466Z" fill="#8F8E2A"/>
<path opacity="0.6" d="M322.818 154.466L328.731 170.205L328.143 170.612C328.143 170.612 325.585 166.996 322.818 162.178V154.466Z" fill="white"/>
<path d="M307.035 370.315H300.39L299.73 354.938H306.375L307.035 370.315Z" fill="#9F5B53"/>
<path d="M346.91 370.315H340.266L336.93 354.938H343.565L346.91 370.315Z" fill="#9F5B53"/>
<path d="M299.73 354.947L300.074 362.866H306.718L306.375 354.947H299.73Z" fill="#8A4743"/>
<path d="M343.574 354.947H336.93L338.648 362.866H345.292L343.574 354.947Z" fill="#8A4743"/>
<path d="M302.28 201.393C302.28 201.393 309.819 252.144 313.95 271.155C318.47 291.947 335.556 361.338 335.556 361.338H347.724C347.724 361.338 336.46 293.655 333.874 273.008C331.072 250.634 325.205 201.357 325.205 201.357L302.28 201.393Z" fill="#8F8E2A"/>
<path opacity="0.5" d="M302.28 201.393C302.28 201.393 309.819 252.144 313.95 271.155C318.47 291.947 335.556 361.338 335.556 361.338H347.724C347.724 361.338 336.46 293.655 333.874 273.008C331.072 250.634 325.205 201.357 325.205 201.357L302.28 201.393Z" fill="black"/>
<path opacity="0.4" d="M307.044 219.473C315.758 221.182 314.836 253.68 313.788 270.395C311.274 258.58 307.595 235.845 305.082 219.708C305.69 219.409 306.382 219.326 307.044 219.473Z" fill="black"/>
<path d="M289.678 201.393C289.678 201.393 288.774 251.041 289.488 271.299C290.238 292.363 297.624 361.338 297.624 361.338H308.87C308.87 361.338 309.286 293.592 309.774 272.909C310.316 250.354 313.037 201.393 313.037 201.393H289.678Z" fill="#8F8E2A"/>
<path opacity="0.5" d="M289.678 201.393C289.678 201.393 288.774 251.041 289.488 271.299C290.238 292.363 297.624 361.338 297.624 361.338H308.87C308.87 361.338 309.286 293.592 309.774 272.909C310.316 250.354 313.037 201.393 313.037 201.393H289.678Z" fill="black"/>
<path d="M328.685 195.011L323.831 195.843L328.143 203.147C328.143 203.147 331.524 201.52 332.139 198.365L328.685 195.011Z" fill="#9F5B53"/>
<path d="M296.603 118.966C296.603 119.5 296.322 119.934 295.97 119.934C295.617 119.934 295.337 119.5 295.337 118.966C295.337 118.433 295.617 117.999 295.97 117.999C296.322 117.999 296.603 118.424 296.603 118.966Z" fill="#263238"/>
<path d="M296.367 119.934C295.728 121.571 294.867 123.113 293.809 124.517C294.175 124.778 294.593 124.957 295.035 125.04C295.477 125.122 295.932 125.108 296.367 124.996V119.934Z" fill="#892B29"/>
<path d="M298.501 116.001C298.435 116.002 298.371 115.98 298.32 115.938C298.006 115.696 297.638 115.533 297.248 115.463C296.858 115.392 296.457 115.415 296.078 115.531C296.04 115.546 296 115.552 295.959 115.551C295.918 115.55 295.878 115.541 295.841 115.524C295.804 115.507 295.771 115.483 295.743 115.453C295.716 115.423 295.694 115.388 295.68 115.35C295.664 115.312 295.656 115.272 295.656 115.23C295.656 115.189 295.664 115.148 295.68 115.111C295.696 115.073 295.719 115.038 295.749 115.01C295.779 114.981 295.814 114.958 295.852 114.944C296.328 114.79 296.834 114.754 297.327 114.839C297.82 114.924 298.285 115.128 298.682 115.432C298.716 115.454 298.746 115.484 298.768 115.518C298.791 115.553 298.806 115.592 298.813 115.633C298.82 115.674 298.818 115.715 298.808 115.755C298.798 115.795 298.779 115.833 298.754 115.866C298.727 115.908 298.69 115.943 298.645 115.967C298.601 115.991 298.551 116.003 298.501 116.001Z" fill="#263238"/>
<path d="M313.896 125.141C312.938 130.004 311.989 138.9 315.388 142.145C315.388 142.145 314.059 147.072 305.028 147.072C295.084 147.072 300.291 142.145 300.291 142.145C305.715 140.852 305.57 136.829 304.621 133.06L313.896 125.141Z" fill="#9F5B53"/>
<path d="M316.689 143.835C317.403 142.281 318.181 140.491 316.563 139.93C314.755 139.315 305.019 138.692 301.656 139.84C301.212 139.963 300.797 140.172 300.435 140.457C300.073 140.741 299.771 141.095 299.547 141.496C299.322 141.898 299.18 142.341 299.128 142.798C299.075 143.255 299.114 143.719 299.242 144.161L316.689 143.835Z" fill="#8F8E2A"/>
<path d="M337.599 370.64C337.318 370.677 337.033 370.658 336.759 370.584C336.486 370.509 336.231 370.381 336.008 370.206C335.928 370.097 335.885 369.966 335.885 369.831C335.885 369.696 335.928 369.564 336.008 369.456C336.057 369.362 336.127 369.281 336.211 369.217C336.295 369.153 336.393 369.108 336.496 369.085C337.472 368.868 339.298 370.116 339.38 370.17C339.405 370.188 339.424 370.213 339.435 370.242C339.446 370.271 339.449 370.302 339.443 370.333C339.438 370.362 339.424 370.389 339.403 370.41C339.382 370.431 339.355 370.445 339.325 370.45C338.758 370.573 338.179 370.636 337.599 370.64ZM336.776 369.374H336.577C336.516 369.387 336.458 369.413 336.408 369.451C336.358 369.488 336.317 369.536 336.288 369.591C336.143 369.844 336.234 369.953 336.288 369.989C336.568 370.369 337.924 370.369 338.919 370.206C338.274 369.779 337.542 369.501 336.776 369.392V369.374Z" fill="#8F8E2A"/>
<path d="M339.298 370.477H339.226C338.539 370.098 337.21 368.669 337.346 367.91C337.369 367.793 337.432 367.687 337.524 367.611C337.617 367.535 337.733 367.494 337.852 367.494C337.971 367.481 338.092 367.492 338.207 367.526C338.321 367.561 338.428 367.617 338.521 367.693C339.289 368.326 339.425 370.242 339.425 370.324C339.429 370.352 339.424 370.381 339.411 370.407C339.398 370.433 339.378 370.454 339.353 370.468C339.336 370.475 339.317 370.478 339.298 370.477ZM337.961 367.765H337.888C337.68 367.765 337.662 367.892 337.653 367.928C337.572 368.371 338.422 369.465 339.1 369.98C339.052 369.225 338.782 368.502 338.322 367.901C338.218 367.822 338.091 367.781 337.961 367.783V367.765Z" fill="#8F8E2A"/>
<path d="M297.723 370.64C296.874 370.64 296.051 370.522 295.771 370.143C295.701 370.042 295.664 369.922 295.664 369.799C295.664 369.677 295.701 369.557 295.771 369.456C295.823 369.362 295.894 369.281 295.98 369.217C296.065 369.153 296.164 369.108 296.268 369.085C297.362 368.787 299.694 370.107 299.793 370.161C299.82 370.178 299.841 370.203 299.854 370.231C299.867 370.26 299.871 370.292 299.866 370.324C299.862 370.356 299.847 370.386 299.824 370.409C299.801 370.432 299.771 370.446 299.739 370.45C299.075 370.576 298.4 370.639 297.723 370.64ZM296.666 369.356C296.567 369.342 296.466 369.342 296.367 369.356C296.304 369.369 296.243 369.395 296.19 369.432C296.138 369.469 296.093 369.518 296.06 369.573C295.951 369.772 295.988 369.863 296.06 369.917C296.367 370.333 298.04 370.36 299.287 370.188C298.474 369.749 297.584 369.473 296.666 369.374V369.356Z" fill="#8F8E2A"/>
<path d="M299.73 370.477H299.667C298.863 370.125 297.281 368.669 297.398 367.937C297.398 367.756 297.552 367.539 297.986 367.494C298.147 367.47 298.312 367.481 298.468 367.528C298.624 367.575 298.768 367.656 298.89 367.765C299.739 368.452 299.911 370.242 299.92 370.324C299.924 370.351 299.92 370.379 299.909 370.405C299.897 370.43 299.88 370.452 299.857 370.468C299.838 370.479 299.816 370.485 299.795 370.486C299.773 370.488 299.751 370.485 299.73 370.477ZM298.112 367.765H298.013C297.733 367.765 297.714 367.91 297.705 367.946C297.633 368.398 298.718 369.528 299.513 370.016C299.435 369.257 299.119 368.542 298.609 367.973C298.471 367.854 298.295 367.787 298.112 367.783V367.765Z" fill="#8F8E2A"/>
<path d="M339.796 369.546H347.254C347.387 369.547 347.516 369.593 347.619 369.677C347.722 369.761 347.794 369.877 347.823 370.007L349.134 375.91C349.164 376.054 349.161 376.203 349.126 376.345C349.09 376.488 349.023 376.62 348.929 376.733C348.835 376.846 348.717 376.937 348.584 376.997C348.45 377.058 348.304 377.089 348.158 377.085C345.554 377.04 344.288 376.887 341.007 376.887C338.991 376.887 334.833 377.104 332.039 377.104C329.246 377.104 328.893 374.392 330.032 374.093C335.149 372.972 337.075 371.426 338.72 369.962C339.013 369.692 339.397 369.544 339.796 369.546Z" fill="#263238"/>
<path d="M300.435 369.546H307.667C307.801 369.547 307.929 369.593 308.033 369.677C308.136 369.761 308.208 369.877 308.237 370.007L309.548 375.91C309.579 376.053 309.578 376.2 309.544 376.342C309.51 376.484 309.445 376.617 309.353 376.73C309.261 376.843 309.144 376.933 309.012 376.995C308.88 377.057 308.735 377.088 308.589 377.085C305.977 377.04 302.198 376.887 298.908 376.887C295.066 376.887 291.739 377.104 287.228 377.104C284.516 377.104 283.748 374.392 284.887 374.093C290.085 372.954 294.324 372.837 298.817 370.07C299.296 369.745 299.857 369.563 300.435 369.546Z" fill="#263238"/>
<path d="M290.952 157.233C288.322 161.12 285.601 164.745 282.663 168.343C279.728 171.978 276.589 175.443 273.261 178.721L271.959 179.95L271.625 180.258L271.399 180.465L271.064 180.755C270.635 181.093 270.178 181.395 269.699 181.659C268.173 182.461 266.494 182.93 264.773 183.033C262.146 183.196 259.509 182.98 256.944 182.391C252.296 181.362 247.789 179.777 243.52 177.672L245.174 172.971C249.41 173.814 253.694 174.397 258.002 174.716C259.893 174.87 261.797 174.791 263.67 174.481C264.207 174.403 264.72 174.206 265.17 173.902V173.839L265.234 173.767L265.505 173.469L266.572 172.293C269.401 169.066 272.14 165.64 274.798 162.123C277.456 158.607 280.113 155.027 282.654 151.51L290.952 157.233Z" fill="#9F5B53"/>
<path d="M294.017 158.272C293.093 163.881 290.669 169.135 287.002 173.478C286.857 170.295 286.803 167.439 286.812 164.881L294.017 158.272Z" fill="#BED3FC"/>
<path d="M314.465 117.827C314.068 124.408 314.167 128.278 310.849 131.659C305.85 136.739 297.732 133.72 296.159 127.139C294.749 121.226 295.644 111.463 302.09 108.842C303.507 108.259 305.051 108.049 306.572 108.231C308.094 108.413 309.544 108.981 310.785 109.882C312.025 110.782 313.014 111.985 313.658 113.376C314.303 114.767 314.58 116.299 314.465 117.827Z" fill="#9F5B53"/>
<path d="M301.683 113.452C301.737 121.19 304.25 130.682 311.735 130.022C316.707 129.588 320.486 120.521 321.001 116.679C321.788 110.803 321.905 109.682 318.597 109.004C320.043 108.218 320.567 104.484 317.186 103.58C312.486 102.342 303.626 101.13 306.411 98.2648C300.86 99.2682 299.468 101.492 300.481 104.195C297.235 103.942 295.237 102.242 295.337 99.675C289.958 101.854 286.469 114.175 301.683 113.452Z" fill="#263238"/>
<path d="M305.552 119.744C305.185 121.34 304.302 122.77 303.039 123.812C301.366 125.168 300.029 123.957 300.065 122.004C300.065 120.241 301.023 117.412 302.903 116.815C304.784 116.218 306.013 117.818 305.552 119.744Z" fill="#9F5B53"/>
<path d="M323.632 110.351C322.747 109.788 321.736 109.453 320.69 109.378C319.644 109.302 318.595 109.487 317.638 109.917C317.638 109.917 321.399 104.864 323.632 110.351Z" fill="#263238"/>
<path d="M333.576 356.854C333.522 356.854 334.833 361.528 334.833 361.528H348.519L348.266 357.36L333.576 356.854Z" fill="#8F8E2A"/>
<path d="M295.436 356.854C295.382 356.854 296.069 361.528 296.069 361.528H309.756L310.126 357.36L295.436 356.854Z" fill="#8F8E2A"/>
<path d="M299.938 353.256C299.911 353.256 299.885 353.246 299.864 353.228C299.844 353.209 299.832 353.184 299.83 353.157C297.841 334.064 293.167 287.87 292.598 271.299C291.992 254.386 292.543 216.436 292.724 205.208C292.724 205.145 292.778 205.109 292.842 205.099C292.87 205.102 292.896 205.114 292.916 205.134C292.936 205.153 292.948 205.18 292.95 205.208C292.769 216.436 292.218 254.386 292.824 271.29C293.411 287.861 298.085 334.037 300.056 353.129C300.056 353.16 300.045 353.19 300.025 353.213C300.005 353.236 299.977 353.252 299.947 353.256H299.938Z" fill="#8F8E2A"/>
<path opacity="0.3" d="M299.938 353.256C299.911 353.256 299.885 353.246 299.864 353.228C299.844 353.209 299.832 353.184 299.83 353.157C297.841 334.064 293.167 287.87 292.598 271.299C291.992 254.386 292.543 216.436 292.724 205.208C292.724 205.145 292.778 205.109 292.842 205.099C292.87 205.102 292.896 205.114 292.916 205.134C292.936 205.153 292.948 205.18 292.95 205.208C292.769 216.436 292.218 254.386 292.824 271.29C293.411 287.861 298.085 334.037 300.056 353.129C300.056 353.16 300.045 353.19 300.025 353.213C300.005 353.236 299.977 353.252 299.947 353.256H299.938Z" fill="black"/>
<path d="M297.082 149.368C297.986 155.696 285.565 171.724 285.565 171.724L273.116 163.154C273.116 163.154 276.57 154.304 282.382 148.5C289.018 141.928 296.123 142.525 297.082 149.368Z" fill="#8F8E2A"/>
<path opacity="0.8" d="M297.082 149.368C297.986 155.696 285.565 171.724 285.565 171.724L273.116 163.154C273.116 163.154 276.57 154.304 282.382 148.5C289.018 141.928 296.123 142.525 297.082 149.368Z" fill="white"/>
<path d="M290.076 143.989C290.076 143.989 283.006 151.971 289.678 201.393H325.205C325.449 195.969 322.023 169.337 327.275 143.646C323.349 142.89 319.378 142.388 315.388 142.145C310.36 141.855 305.319 141.855 300.291 142.145C296.843 142.492 293.427 143.109 290.076 143.989Z" fill="#8F8E2A"/>
<path opacity="0.8" d="M290.076 143.989C290.076 143.989 283.006 151.971 289.678 201.393H325.205C325.449 195.969 322.023 169.337 327.275 143.646C323.349 142.89 319.378 142.388 315.388 142.145C310.36 141.855 305.319 141.855 300.291 142.145C296.843 142.492 293.427 143.109 290.076 143.989Z" fill="white"/>
<path d="M185.554 107.707C188.391 95.2087 180.56 82.7769 168.061 79.9397C155.563 77.1025 143.131 84.9342 140.294 97.4324C137.457 109.931 145.289 122.362 157.787 125.199C170.285 128.037 182.717 120.205 185.554 107.707Z" fill="#8F8E2A"/>
<path opacity="0.2" d="M185.554 107.707C188.391 95.2087 180.56 82.7769 168.061 79.9397C155.563 77.1025 143.131 84.9342 140.294 97.4324C137.457 109.931 145.289 122.362 157.787 125.199C170.285 128.037 182.717 120.205 185.554 107.707Z" fill="white"/>
<path d="M160.541 132.662C154.539 132.198 148.814 129.943 144.109 126.187C139.404 122.431 135.936 117.349 134.154 111.599L135.012 111.328C136.743 116.906 140.108 121.835 144.673 125.478C149.237 129.121 154.791 131.309 160.614 131.758L160.541 132.662Z" fill="#8F8E2A"/>
<path opacity="0.2" d="M160.541 132.662C154.539 132.198 148.814 129.943 144.109 126.187C139.404 122.431 135.936 117.349 134.154 111.599L135.012 111.328C136.743 116.906 140.108 121.835 144.673 125.478C149.237 129.121 154.791 131.309 160.614 131.758L160.541 132.662Z" fill="white"/>
<path d="M134.886 94.2149L133.982 93.9618C135.147 90.0681 137.087 86.45 139.685 83.3245C142.283 80.199 145.485 77.6305 149.1 75.7731C152.715 73.9158 156.668 72.8079 160.722 72.5159C164.776 72.2238 168.847 72.7537 172.691 74.0738L172.402 74.9326C168.67 73.6534 164.719 73.1411 160.785 73.4263C156.851 73.7116 153.015 74.7886 149.507 76.5927C145.999 78.3968 142.892 80.8909 140.372 83.9252C137.852 86.9596 135.97 90.4718 134.84 94.251L134.886 94.2149Z" fill="#8F8E2A"/>
<path opacity="0.2" d="M134.886 94.2149L133.982 93.9618C135.147 90.0681 137.087 86.45 139.685 83.3245C142.283 80.199 145.485 77.6305 149.1 75.7731C152.715 73.9158 156.668 72.8079 160.722 72.5159C164.776 72.2238 168.847 72.7537 172.691 74.0738L172.402 74.9326C168.67 73.6534 164.719 73.1411 160.785 73.4263C156.851 73.7116 153.015 74.7886 149.507 76.5927C145.999 78.3968 142.892 80.8909 140.372 83.9252C137.852 86.9596 135.97 90.4718 134.84 94.251L134.886 94.2149Z" fill="white"/>
<path d="M190.87 93.8261C188.757 87.0673 184.259 81.3068 178.214 77.6174L178.684 76.84C184.91 80.65 189.541 86.589 191.72 93.5549L190.87 93.8261Z" fill="#8F8E2A"/>
<path opacity="0.2" d="M190.87 93.8261C188.757 87.0673 184.259 81.3068 178.214 77.6174L178.684 76.84C184.91 80.65 189.541 86.589 191.72 93.5549L190.87 93.8261Z" fill="white"/>
<path d="M185.565 171.763C188.402 159.265 180.57 146.833 168.072 143.996C155.574 141.159 143.142 148.991 140.305 161.489C137.467 173.987 145.299 186.419 157.797 189.256C170.296 192.093 182.727 184.262 185.565 171.763Z" fill="#8F8E2A"/>
<path opacity="0.6" d="M185.565 171.763C188.402 159.265 180.57 146.833 168.072 143.996C155.574 141.159 143.142 148.991 140.305 161.489C137.467 173.987 145.299 186.419 157.797 189.256C170.296 192.093 182.727 184.262 185.565 171.763Z" fill="white"/>
<path d="M185.557 235.818C188.394 223.32 180.562 210.888 168.064 208.051C155.566 205.214 143.134 213.045 140.297 225.544C137.46 238.042 145.292 250.473 157.79 253.311C170.288 256.148 182.72 248.316 185.557 235.818Z" fill="#8F8E2A"/>
<path opacity="0.6" d="M185.557 235.818C188.394 223.32 180.562 210.888 168.064 208.051C155.566 205.214 143.134 213.045 140.297 225.544C137.46 238.042 145.292 250.473 157.79 253.311C170.288 256.148 182.72 248.316 185.557 235.818Z" fill="white"/>
<path d="M185.558 299.884C188.396 287.386 180.564 274.954 168.066 272.117C155.568 269.279 143.136 277.111 140.299 289.609C137.461 302.107 145.293 314.539 157.791 317.376C170.289 320.214 182.721 312.382 185.558 299.884Z" fill="#8F8E2A"/>
<path opacity="0.6" d="M185.558 299.884C188.396 287.386 180.564 274.954 168.066 272.117C155.568 269.279 143.136 277.111 140.299 289.609C137.461 302.107 145.293 314.539 157.791 317.376C170.289 320.214 182.721 312.382 185.558 299.884Z" fill="white"/>
<path d="M121.499 107.699C124.337 95.2012 116.505 82.7695 104.007 79.9322C91.5085 77.095 79.0767 84.9268 76.2395 97.4249C73.4023 109.923 81.234 122.355 93.7322 125.192C106.23 128.029 118.662 120.198 121.499 107.699Z" fill="#8F8E2A"/>
<path opacity="0.6" d="M121.499 107.699C124.337 95.2012 116.505 82.7695 104.007 79.9322C91.5085 77.095 79.0767 84.9268 76.2395 97.4249C73.4023 109.923 81.234 122.355 93.7322 125.192C106.23 128.029 118.662 120.198 121.499 107.699Z" fill="white"/>
<path d="M121.51 171.765C124.347 159.267 116.515 146.835 104.017 143.998C91.519 141.161 79.0872 148.992 76.25 161.491C73.4128 173.989 81.2445 186.421 93.7427 189.258C106.241 192.095 118.673 184.263 121.51 171.765Z" fill="#8F8E2A"/>
<path opacity="0.6" d="M121.51 171.765C124.347 159.267 116.515 146.835 104.017 143.998C91.519 141.161 79.0872 148.992 76.25 161.491C73.4128 173.989 81.2445 186.421 93.7427 189.258C106.241 192.095 118.673 184.263 121.51 171.765Z" fill="white"/>
<path d="M121.503 235.82C124.34 223.322 116.508 210.89 104.01 208.053C91.5117 205.215 79.0799 213.047 76.2427 225.545C73.4055 238.043 81.2372 250.475 93.7354 253.312C106.234 256.15 118.665 248.318 121.503 235.82Z" fill="#8F8E2A"/>
<path opacity="0.6" d="M121.503 235.82C124.34 223.322 116.508 210.89 104.01 208.053C91.5117 205.215 79.0799 213.047 76.2427 225.545C73.4055 238.043 81.2372 250.475 93.7354 253.312C106.234 256.15 118.665 248.318 121.503 235.82Z" fill="white"/>
<path d="M121.504 299.876C124.341 287.378 116.509 274.946 104.011 272.109C91.5129 269.272 79.0811 277.104 76.2439 289.602C73.4067 302.1 81.2385 314.532 93.7366 317.369C106.235 320.206 118.667 312.374 121.504 299.876Z" fill="#8F8E2A"/>
<path opacity="0.6" d="M121.504 299.876C124.341 287.378 116.509 274.946 104.011 272.109C91.5129 269.272 79.0811 277.104 76.2439 289.602C73.4067 302.1 81.2385 314.532 93.7366 317.369C106.235 320.206 118.667 312.374 121.504 299.876Z" fill="white"/>
<path d="M246.069 173.459L241.196 168.415L235.998 175.123C235.998 175.123 239.958 178.938 244.668 177.835L246.069 173.459Z" fill="#9F5B53"/>
<path d="M234.498 165.649L232.274 172.682L235.998 175.123L241.196 168.415L234.498 165.649Z" fill="#9F5B53"/>
<path d="M168.144 166.029C168.547 164.831 169.205 163.736 170.071 162.817C170.938 161.898 171.993 161.177 173.165 160.705C174.337 160.232 175.597 160.019 176.858 160.08C178.12 160.141 179.354 160.474 180.475 161.057L175.051 158.236C173.043 157.222 171.491 155.488 170.703 153.381C169.916 151.273 169.951 148.946 170.802 146.864C171.283 145.766 171.985 144.778 172.863 143.962C173.741 143.146 174.777 142.519 175.907 142.119C177.038 141.719 178.238 141.555 179.434 141.637C180.63 141.72 181.796 142.046 182.861 142.597L177.437 139.786C175.427 138.771 173.873 137.036 173.086 134.926C172.298 132.817 172.335 130.488 173.188 128.404C173.669 127.297 174.373 126.3 175.257 125.478C176.14 124.655 177.185 124.024 178.324 123.624C179.463 123.225 180.673 123.065 181.876 123.154C183.08 123.244 184.253 123.582 185.32 124.146L159.565 110.677C157.67 109.73 156.175 108.139 155.346 106.189C154.518 104.239 154.411 102.058 155.045 100.037C155.45 98.8401 156.11 97.7452 156.977 96.827C157.845 95.9088 158.901 95.189 160.073 94.7168C161.245 94.2447 162.505 94.0313 163.767 94.0913C165.029 94.1513 166.263 94.4834 167.385 95.0646L221.625 123.423L216.056 100.57C215.507 98.2741 215.85 95.8556 217.016 93.8027C218.181 91.7499 220.082 90.2157 222.335 89.51C224.587 88.8043 227.024 88.9796 229.152 90.0005C231.28 91.0214 232.942 92.8119 233.802 95.0104L251.592 141.223C253.116 145.173 256.024 148.434 259.773 150.398L262.874 152.017C263.349 152.264 263.771 152.604 264.115 153.015C264.458 153.426 264.718 153.901 264.877 154.412C265.037 154.924 265.094 155.462 265.045 155.996C264.996 156.529 264.842 157.048 264.592 157.522L242.896 198.97C242.394 199.928 241.532 200.648 240.5 200.971C239.468 201.295 238.35 201.196 237.39 200.697L229.779 196.719C226.896 195.24 223.665 194.571 220.431 194.785C212.613 195.222 204.823 193.535 197.886 189.903L172.574 176.669C170.695 175.707 169.219 174.109 168.408 172.161C167.597 170.213 167.503 168.04 168.144 166.029Z" fill="#8F8E2A"/>
<path d="M239.325 202.496C238.45 202.497 237.588 202.286 236.812 201.881L229.2 197.904C226.533 196.538 223.549 195.914 220.558 196.096C212.496 196.548 204.462 194.811 197.307 191.069L171.995 177.835C169.827 176.725 168.122 174.883 167.183 172.636C166.245 170.388 166.134 167.88 166.869 165.559C167.334 164.173 168.094 162.906 169.098 161.844C170.102 160.783 171.325 159.952 172.682 159.411C173.05 159.259 173.427 159.132 173.812 159.032C171.699 157.765 170.111 155.781 169.337 153.441C168.564 151.102 168.657 148.562 169.599 146.285C170.146 145.009 170.953 143.862 171.97 142.917C172.987 141.972 174.19 141.25 175.503 140.798C175.747 140.717 175.991 140.635 176.235 140.572C174.12 139.306 172.531 137.323 171.757 134.982C170.984 132.642 171.078 130.102 172.022 127.826C172.57 126.551 173.378 125.406 174.394 124.462C175.411 123.519 176.614 122.798 177.925 122.347C178.151 122.266 178.386 122.194 178.612 122.13L158.941 111.843C156.773 110.733 155.068 108.891 154.13 106.644C153.191 104.396 153.08 101.888 153.816 99.5665C154.284 98.185 155.045 96.921 156.047 95.861C157.049 94.8009 158.268 93.9699 159.621 93.4248C160.974 92.8796 162.429 92.6333 163.886 92.7025C165.343 92.7718 166.768 93.1551 168.063 93.8261L219.672 120.838L214.799 100.886C214.174 98.2569 214.571 95.4882 215.909 93.1398C217.246 90.7913 219.426 89.0382 222.006 88.2347C224.587 87.4311 227.376 87.6371 229.81 88.8109C232.245 89.9847 234.143 92.0389 235.121 94.5584L252.912 140.771C254.317 144.414 257.001 147.422 260.46 149.232L263.552 150.85C264.185 151.18 264.747 151.632 265.205 152.179C265.663 152.726 266.009 153.358 266.222 154.04C266.435 154.721 266.512 155.437 266.448 156.148C266.384 156.859 266.18 157.55 265.848 158.182L244.152 199.639C243.684 200.51 242.987 201.237 242.137 201.74C241.286 202.244 240.314 202.505 239.325 202.496ZM221.579 193.375C224.666 193.358 227.712 194.087 230.457 195.499L238.068 199.477C238.385 199.645 238.732 199.748 239.089 199.781C239.445 199.815 239.805 199.777 240.147 199.67C240.49 199.563 240.807 199.39 241.082 199.159C241.357 198.929 241.583 198.647 241.748 198.329L263.444 156.871C263.61 156.554 263.712 156.208 263.744 155.852C263.775 155.495 263.736 155.136 263.629 154.795C263.521 154.454 263.347 154.138 263.117 153.864C262.887 153.59 262.604 153.365 262.287 153.201L259.195 151.583C255.164 149.469 252.04 145.96 250.408 141.711L232.608 95.4985C231.894 93.5953 230.477 92.0379 228.65 91.1462C226.823 90.2544 224.724 90.0959 222.784 90.7033C220.844 91.3107 219.21 92.6378 218.218 94.4122C217.225 96.1866 216.95 98.2735 217.448 100.245L223.035 123.107C223.097 123.359 223.085 123.624 223 123.869C222.915 124.114 222.76 124.33 222.556 124.49C222.352 124.653 222.104 124.753 221.844 124.777C221.584 124.801 221.322 124.748 221.091 124.625L166.851 96.2669C165.906 95.7754 164.865 95.4943 163.801 95.4428C162.737 95.3913 161.674 95.5707 160.686 95.9686C159.685 96.3585 158.784 96.9665 158.047 97.7484C157.311 98.5302 156.758 99.4663 156.428 100.489C155.888 102.203 155.975 104.054 156.674 105.71C157.373 107.366 158.638 108.719 160.243 109.529L186.007 122.998C186.326 123.165 186.566 123.451 186.673 123.795C186.781 124.138 186.748 124.51 186.581 124.829C186.499 124.987 186.386 125.127 186.249 125.241C186.112 125.355 185.955 125.442 185.785 125.495C185.441 125.603 185.069 125.569 184.75 125.403C183.851 124.936 182.866 124.659 181.855 124.589C180.844 124.519 179.83 124.658 178.874 124.996C177.915 125.326 177.036 125.853 176.292 126.543C175.548 127.232 174.956 128.069 174.553 129.001C173.834 130.767 173.806 132.74 174.477 134.526C175.147 136.312 176.465 137.78 178.169 138.637L183.593 141.458C183.885 141.638 184.097 141.923 184.188 142.253C184.278 142.584 184.24 142.937 184.081 143.241C183.921 143.545 183.653 143.777 183.329 143.89C183.006 144.004 182.651 143.991 182.337 143.853C181.439 143.389 180.455 143.113 179.445 143.043C178.436 142.973 177.424 143.11 176.47 143.447C175.51 143.779 174.631 144.308 173.887 144.999C173.143 145.69 172.551 146.528 172.149 147.46C171.432 149.226 171.406 151.197 172.076 152.981C172.746 154.765 174.063 156.231 175.765 157.088L181.189 159.909C181.508 160.075 181.747 160.362 181.855 160.705C181.963 161.048 181.929 161.42 181.763 161.739C181.596 162.058 181.31 162.298 180.966 162.405C180.623 162.513 180.251 162.48 179.932 162.313C178.985 161.825 177.945 161.547 176.881 161.497C175.817 161.447 174.755 161.627 173.767 162.024C172.77 162.418 171.872 163.028 171.137 163.809C170.403 164.59 169.85 165.524 169.518 166.544C168.976 168.258 169.063 170.11 169.762 171.766C170.461 173.423 171.727 174.776 173.333 175.584L198.645 188.818C205.352 192.285 212.867 193.887 220.404 193.456C220.802 193.456 221.191 193.393 221.579 193.393V193.375Z" fill="#8F8E2A"/>
<path d="M187.246 165.947C187.025 165.949 186.808 165.896 186.613 165.794L179.896 162.259C179.738 162.176 179.598 162.064 179.484 161.927C179.369 161.79 179.283 161.632 179.23 161.463C179.177 161.293 179.157 161.114 179.173 160.936C179.189 160.759 179.239 160.586 179.322 160.428C179.404 160.27 179.517 160.13 179.654 160.016C179.791 159.902 179.948 159.815 180.118 159.762C180.288 159.709 180.467 159.69 180.645 159.705C180.822 159.721 180.995 159.772 181.153 159.854L187.905 163.389C188.174 163.529 188.388 163.755 188.514 164.032C188.639 164.308 188.668 164.618 188.596 164.912C188.524 165.207 188.356 165.469 188.117 165.657C187.879 165.844 187.585 165.947 187.282 165.947H187.246Z" fill="#8F8E2A"/>
<path d="M189.668 147.488C189.448 147.49 189.23 147.437 189.035 147.334L182.282 143.799C182.112 143.725 181.958 143.616 181.832 143.479C181.705 143.343 181.608 143.182 181.546 143.006C181.484 142.83 181.46 142.644 181.473 142.458C181.487 142.273 181.538 142.092 181.625 141.927C181.711 141.762 181.831 141.617 181.976 141.5C182.121 141.383 182.288 141.298 182.468 141.249C182.648 141.2 182.835 141.188 183.02 141.215C183.204 141.241 183.381 141.306 183.539 141.404L190.292 144.929C190.561 145.069 190.775 145.296 190.9 145.572C191.025 145.848 191.054 146.158 190.982 146.453C190.91 146.747 190.742 147.009 190.504 147.197C190.266 147.384 189.971 147.487 189.668 147.488Z" fill="#8F8E2A"/>
<path d="M192.082 129.037C191.865 129.034 191.652 128.982 191.458 128.883L184.705 125.349C184.547 125.266 184.407 125.153 184.293 125.017C184.179 124.88 184.093 124.722 184.039 124.552C183.986 124.382 183.967 124.203 183.982 124.026C183.998 123.848 184.049 123.676 184.131 123.518C184.214 123.36 184.327 123.22 184.463 123.106C184.6 122.991 184.758 122.905 184.928 122.852C185.098 122.799 185.277 122.779 185.454 122.795C185.631 122.811 185.804 122.861 185.962 122.944L192.715 126.479C192.984 126.619 193.199 126.846 193.324 127.123C193.449 127.4 193.477 127.711 193.404 128.006C193.331 128.302 193.161 128.564 192.921 128.75C192.682 128.937 192.386 129.038 192.082 129.037Z" fill="#8F8E2A"/>
<path opacity="0.3" d="M239.325 202.496C238.45 202.497 237.588 202.286 236.812 201.881L229.2 197.904C226.533 196.538 223.549 195.914 220.558 196.096C212.496 196.548 204.462 194.811 197.307 191.069L171.995 177.835C169.827 176.725 168.122 174.883 167.183 172.636C166.245 170.388 166.134 167.88 166.869 165.559C167.334 164.173 168.094 162.906 169.098 161.844C170.102 160.783 171.325 159.952 172.682 159.411C173.05 159.259 173.427 159.132 173.812 159.032C171.699 157.765 170.111 155.781 169.337 153.441C168.564 151.102 168.657 148.562 169.599 146.285C170.146 145.009 170.953 143.862 171.97 142.917C172.987 141.972 174.19 141.25 175.503 140.798C175.747 140.717 175.991 140.635 176.235 140.572C174.12 139.306 172.531 137.323 171.757 134.982C170.984 132.642 171.078 130.102 172.022 127.826C172.57 126.551 173.378 125.406 174.394 124.462C175.411 123.519 176.614 122.798 177.925 122.347C178.151 122.266 178.386 122.194 178.612 122.13L158.941 111.843C156.773 110.733 155.068 108.891 154.13 106.644C153.191 104.396 153.08 101.888 153.816 99.5665C154.284 98.185 155.045 96.921 156.047 95.861C157.049 94.8009 158.268 93.9699 159.621 93.4248C160.974 92.8796 162.429 92.6333 163.886 92.7025C165.343 92.7718 166.768 93.1551 168.063 93.8261L219.672 120.838L214.799 100.886C214.174 98.2569 214.571 95.4882 215.909 93.1398C217.246 90.7913 219.426 89.0382 222.006 88.2347C224.587 87.4311 227.376 87.6371 229.81 88.8109C232.245 89.9847 234.143 92.0389 235.121 94.5584L252.912 140.771C254.317 144.414 257.001 147.422 260.46 149.232L263.552 150.85C264.185 151.18 264.747 151.632 265.205 152.179C265.663 152.726 266.009 153.358 266.222 154.04C266.435 154.721 266.512 155.437 266.448 156.148C266.384 156.859 266.18 157.55 265.848 158.182L244.152 199.639C243.684 200.51 242.987 201.237 242.137 201.74C241.286 202.244 240.314 202.505 239.325 202.496ZM221.579 193.375C224.666 193.358 227.712 194.087 230.457 195.499L238.068 199.477C238.385 199.645 238.732 199.748 239.089 199.781C239.445 199.815 239.805 199.777 240.147 199.67C240.49 199.563 240.807 199.39 241.082 199.159C241.357 198.929 241.583 198.647 241.748 198.329L263.444 156.871C263.61 156.554 263.712 156.208 263.744 155.852C263.775 155.495 263.736 155.136 263.629 154.795C263.521 154.454 263.347 154.138 263.117 153.864C262.887 153.59 262.604 153.365 262.287 153.201L259.195 151.583C255.164 149.469 252.04 145.96 250.408 141.711L232.608 95.4985C231.894 93.5953 230.477 92.0379 228.65 91.1462C226.823 90.2544 224.724 90.0959 222.784 90.7033C220.844 91.3107 219.21 92.6378 218.218 94.4122C217.225 96.1866 216.95 98.2735 217.448 100.245L223.035 123.107C223.097 123.359 223.085 123.624 223 123.869C222.915 124.114 222.76 124.33 222.556 124.49C222.352 124.653 222.104 124.753 221.844 124.777C221.584 124.801 221.322 124.748 221.091 124.625L166.851 96.2669C165.906 95.7754 164.865 95.4943 163.801 95.4428C162.737 95.3913 161.674 95.5707 160.686 95.9686C159.685 96.3585 158.784 96.9665 158.047 97.7484C157.311 98.5302 156.758 99.4663 156.428 100.489C155.888 102.203 155.975 104.054 156.674 105.71C157.373 107.366 158.638 108.719 160.243 109.529L186.007 122.998C186.326 123.165 186.566 123.451 186.673 123.795C186.781 124.138 186.748 124.51 186.581 124.829C186.499 124.987 186.386 125.127 186.249 125.241C186.112 125.355 185.955 125.442 185.785 125.495C185.441 125.603 185.069 125.569 184.75 125.403C183.851 124.936 182.866 124.659 181.855 124.589C180.844 124.519 179.83 124.658 178.874 124.996C177.915 125.326 177.036 125.853 176.292 126.543C175.548 127.232 174.956 128.069 174.553 129.001C173.834 130.767 173.806 132.74 174.477 134.526C175.147 136.312 176.465 137.78 178.169 138.637L183.593 141.458C183.885 141.638 184.097 141.923 184.188 142.253C184.278 142.584 184.24 142.937 184.081 143.241C183.921 143.545 183.653 143.777 183.329 143.89C183.006 144.004 182.651 143.991 182.337 143.853C181.439 143.389 180.455 143.113 179.445 143.043C178.436 142.973 177.424 143.11 176.47 143.447C175.51 143.779 174.631 144.308 173.887 144.999C173.143 145.69 172.551 146.528 172.149 147.46C171.432 149.226 171.406 151.197 172.076 152.981C172.746 154.765 174.063 156.231 175.765 157.088L181.189 159.909C181.508 160.075 181.747 160.362 181.855 160.705C181.963 161.048 181.929 161.42 181.763 161.739C181.596 162.058 181.31 162.298 180.966 162.405C180.623 162.513 180.251 162.48 179.932 162.313C178.985 161.825 177.945 161.547 176.881 161.497C175.817 161.447 174.755 161.627 173.767 162.024C172.77 162.418 171.872 163.028 171.137 163.809C170.403 164.59 169.85 165.524 169.518 166.544C168.976 168.258 169.063 170.11 169.762 171.766C170.461 173.423 171.727 174.776 173.333 175.584L198.645 188.818C205.352 192.285 212.867 193.887 220.404 193.456C220.802 193.456 221.191 193.393 221.579 193.393V193.375Z" fill="black"/>
</svg>
