<svg xmlns="http://www.w3.org/2000/svg" xmlns:xlink="http://www.w3.org/1999/xlink" width="82" height="46" viewBox="0 0 82 46">
  <defs>
    <clipPath id="clip-Logo_1">
      <rect width="82" height="46"/>
    </clipPath>
  </defs>
  <g id="Logo_1" data-name="Logo 1" clip-path="url(#clip-Logo_1)">
    <path id="Trazado_33648" data-name="Trazado 33648" d="M-50.721,118.738h-.006a8.249,8.249,0,0,0-7.382,4.557l-11.1,21.452a11.046,11.046,0,0,0-5.6-4.87,10.6,10.6,0,0,0,4.4-8.607,10.591,10.591,0,0,0-5.737-9.418,21.54,21.54,0,0,0-10.063-2.472h-16.606a6.168,6.168,0,0,0-6.174,6.17v30.9a6.168,6.168,0,0,0,6.174,6.169h17.958a24.724,24.724,0,0,0,9.75-2l1.137-.551c.065-.03.126-.065.187-.1a6.164,6.164,0,0,0,5.285,2.991,6.166,6.166,0,0,0,5.621-3.622,3.275,3.275,0,0,1,2.863-1.99h18.607a3.278,3.278,0,0,1,2.863,1.99,6.165,6.165,0,0,0,5.621,3.622,6.167,6.167,0,0,0,6.17-6.163,6.06,6.06,0,0,0-.8-3.036l-15.773-30.477a8.255,8.255,0,0,0-7.385-4.557Z" transform="translate(109 -118.738)" fill="#333"/>
  </g>
</svg>
